<svg width="829" height="468" viewBox="0 0 829 468" fill="none" xmlns="http://www.w3.org/2000/svg">
<path d="M166.741 260.762C182.894 231.307 217.773 184.407 208.603 184.761C208.603 184.761 183.435 148.423 174.486 160.278C169.183 167.305 151.981 192.87 136.911 221.927L166.741 260.773V260.762Z" fill="#84C318"/>
<path d="M173.691 166.52C173.37 167.459 174.63 168.586 175.061 169.371C175.713 170.586 176.342 171.779 176.895 173.05C177.513 174.486 179.9 173.458 179.414 171.989C178.85 170.277 177.911 168.686 176.552 167.503C176.11 167.117 174.133 165.25 173.702 166.531L173.691 166.52Z" fill="#312A3C"/>
<path d="M185.159 167.669C184.374 169.746 183.247 171.647 182.12 173.547C181.17 175.127 183.656 176.574 184.595 174.994C185.888 172.807 186.496 170.398 186.794 167.901C186.915 166.907 185.468 166.874 185.17 167.68L185.159 167.669Z" fill="#312A3C"/>
<path d="M190.108 190.572C189.788 191.511 191.047 192.638 191.478 193.423C192.13 194.638 192.76 195.831 193.312 197.102C193.931 198.538 196.317 197.511 195.831 196.041C195.268 194.329 194.329 192.738 192.97 191.556C192.528 191.169 190.55 189.302 190.119 190.583L190.108 190.572Z" fill="#312A3C"/>
<path d="M201.576 191.721C200.792 193.798 199.665 195.699 198.538 197.599C197.588 199.179 200.074 200.626 201.013 199.046C202.306 196.859 202.913 194.45 203.212 191.953C203.333 190.959 201.886 190.926 201.588 191.732L201.576 191.721Z" fill="#312A3C"/>
<path d="M159.14 200.67C158.819 201.61 160.079 202.737 160.51 203.521C161.162 204.736 161.791 205.929 162.344 207.2C162.962 208.636 165.349 207.609 164.863 206.139C164.299 204.427 163.36 202.836 162.001 201.654C161.559 201.267 159.582 199.4 159.151 200.682L159.14 200.67Z" fill="#312A3C"/>
<path d="M170.608 201.819C169.824 203.897 168.697 205.797 167.57 207.697C166.62 209.277 169.105 210.724 170.044 209.145C171.337 206.957 171.945 204.548 172.243 202.052C172.365 201.057 170.917 201.024 170.619 201.831L170.608 201.819Z" fill="#312A3C"/>
<path d="M141.618 219.751C141.297 220.69 142.557 221.817 142.988 222.601C143.639 223.817 144.269 225.01 144.822 226.28C145.44 227.717 147.827 226.689 147.341 225.22C146.777 223.507 145.838 221.916 144.479 220.734C144.037 220.348 142.059 218.48 141.629 219.762L141.618 219.751Z" fill="#312A3C"/>
<path d="M153.085 220.9C152.301 222.977 151.174 224.877 150.047 226.778C149.097 228.358 151.583 229.805 152.522 228.225C153.815 226.037 154.422 223.629 154.721 221.132C154.842 220.138 153.395 220.104 153.097 220.911L153.085 220.9Z" fill="#312A3C"/>
<path d="M165.603 225.861C165.283 226.8 166.542 227.927 166.973 228.711C167.625 229.926 168.255 231.12 168.807 232.39C169.426 233.826 171.813 232.799 171.326 231.33C170.763 229.617 169.824 228.026 168.465 226.844C168.023 226.457 166.045 224.59 165.614 225.872L165.603 225.861Z" fill="#312A3C"/>
<path d="M177.072 227.01C176.287 229.087 175.16 230.987 174.033 232.887C173.083 234.467 175.569 235.915 176.508 234.335C177.801 232.147 178.408 229.739 178.707 227.242C178.828 226.247 177.381 226.214 177.083 227.021L177.072 227.01Z" fill="#312A3C"/>
<path d="M358.651 260.762C342.498 231.307 307.618 184.407 316.788 184.761C316.788 184.761 341.956 148.423 350.906 160.278C356.209 167.305 373.411 192.87 388.481 221.927L358.651 260.773V260.762Z" fill="#84C318"/>
<path d="M338.576 168.476C338.255 169.415 339.515 170.542 339.946 171.326C340.598 172.541 341.227 173.735 341.78 175.005C342.387 176.442 344.785 175.414 344.299 173.945C343.735 172.232 342.796 170.641 341.437 169.459C340.995 169.072 339.018 167.205 338.587 168.487L338.576 168.476Z" fill="#312A3C"/>
<path d="M350.044 169.625C349.26 171.702 348.133 173.602 347.006 175.502C346.056 177.082 348.541 178.53 349.481 176.95C350.773 174.762 351.381 172.354 351.679 169.857C351.801 168.862 350.353 168.829 350.055 169.636L350.044 169.625Z" fill="#312A3C"/>
<path d="M328.588 198.737C328.268 199.676 329.527 200.803 329.958 201.588C330.61 202.803 331.24 203.996 331.792 205.267C332.411 206.703 334.797 205.675 334.311 204.206C333.748 202.493 332.808 200.903 331.449 199.72C331.008 199.334 329.03 197.466 328.599 198.748L328.588 198.737Z" fill="#312A3C"/>
<path d="M340.056 199.886C339.272 201.963 338.145 203.863 337.018 205.764C336.068 207.344 338.554 208.791 339.493 207.211C340.785 205.024 341.393 202.615 341.691 200.118C341.813 199.124 340.366 199.091 340.067 199.897L340.056 199.886Z" fill="#312A3C"/>
<path d="M355.767 189.313C355.446 190.252 356.706 191.379 357.137 192.163C357.789 193.379 358.418 194.572 358.971 195.842C359.589 197.279 361.976 196.251 361.49 194.782C360.926 193.069 359.987 191.478 358.628 190.296C358.186 189.909 356.209 188.042 355.778 189.324L355.767 189.313Z" fill="#312A3C"/>
<path d="M367.235 190.462C366.451 192.539 365.324 194.439 364.197 196.34C363.247 197.919 365.733 199.367 366.672 197.787C367.964 195.599 368.572 193.191 368.87 190.694C368.992 189.699 367.544 189.666 367.246 190.473L367.235 190.462Z" fill="#312A3C"/>
<path d="M346.939 222.093C346.619 223.032 347.878 224.159 348.309 224.944C348.961 226.159 349.591 227.352 350.143 228.623C350.751 230.059 353.148 229.032 352.662 227.562C352.099 225.85 351.16 224.259 349.801 223.076C349.359 222.69 347.381 220.823 346.95 222.104L346.939 222.093Z" fill="#312A3C"/>
<path d="M358.407 223.242C357.623 225.319 356.496 227.22 355.369 229.12C354.419 230.7 356.905 232.147 357.844 230.567C359.136 228.38 359.744 225.971 360.042 223.474C360.164 222.48 358.717 222.447 358.418 223.253L358.407 223.242Z" fill="#312A3C"/>
<path d="M368.826 212.768C368.505 213.707 369.765 214.834 370.196 215.619C370.848 216.834 371.477 218.027 372.03 219.298C372.649 220.734 375.035 219.707 374.549 218.237C373.985 216.525 373.046 214.934 371.687 213.752C371.245 213.365 369.268 211.498 368.837 212.779L368.826 212.768Z" fill="#312A3C"/>
<path d="M380.294 213.917C379.51 215.995 378.383 217.895 377.256 219.795C376.306 221.375 378.791 222.822 379.731 221.242C381.023 219.055 381.631 216.646 381.929 214.149C382.051 213.155 380.603 213.122 380.305 213.928L380.294 213.917Z" fill="#312A3C"/>
<path d="M295.564 142.048C287.444 132.304 287.19 108.616 286.925 91.3143C277.025 91.3805 250.322 91.3805 240.422 91.3143C240.157 108.616 239.903 132.304 231.782 142.048C223.121 152.445 176.696 164.078 178.242 165.537C189.677 176.077 225.684 224.391 262.674 224.391C299.663 224.391 337.659 176.077 349.105 165.537C350.651 164.078 304.237 152.445 295.564 142.048Z" fill="#B8625C"/>
<path d="M351.48 162.653C352.507 152.931 309.817 139.242 298.304 139.849C298.304 155.549 229.02 155.549 229.02 139.849C217.508 139.242 174.817 152.931 175.845 162.653C179.855 200.947 181.115 367.71 182.231 386.967C182.231 408.114 345.094 408.114 345.094 386.967C346.21 367.71 347.458 200.947 351.48 162.653Z" fill="#84C318"/>
<path d="M187.412 185.578C187.092 186.518 188.352 187.645 188.782 188.429C189.434 189.644 190.064 190.837 190.616 192.108C191.235 193.544 193.622 192.517 193.135 191.047C192.572 189.335 191.633 187.744 190.274 186.562C189.832 186.175 187.854 184.308 187.423 185.59L187.412 185.578Z" fill="#312A3C"/>
<path d="M198.881 186.727C198.096 188.805 196.969 190.705 195.842 192.605C194.892 194.185 197.378 195.632 198.317 194.053C199.61 191.865 200.218 189.456 200.516 186.96C200.637 185.965 199.19 185.932 198.892 186.739L198.881 186.727Z" fill="#312A3C"/>
<path d="M218.558 170.542C218.237 171.481 219.497 172.608 219.928 173.392C220.58 174.607 221.209 175.801 221.762 177.071C222.38 178.508 224.767 177.48 224.281 176.011C223.717 174.298 222.778 172.707 221.419 171.525C220.977 171.138 219 169.271 218.569 170.553L218.558 170.542Z" fill="#312A3C"/>
<path d="M230.026 171.691C229.241 173.768 228.115 175.668 226.988 177.568C226.037 179.148 228.523 180.596 229.462 179.016C230.755 176.828 231.363 174.42 231.661 171.923C231.783 170.928 230.335 170.895 230.037 171.702L230.026 171.691Z" fill="#312A3C"/>
<path d="M224.491 197.732C224.17 198.671 225.43 199.798 225.861 200.582C226.512 201.797 227.142 202.991 227.695 204.261C228.313 205.697 230.7 204.67 230.214 203.201C229.65 201.488 228.711 199.897 227.352 198.715C226.91 198.328 224.932 196.461 224.502 197.743L224.491 197.732Z" fill="#312A3C"/>
<path d="M235.959 198.881C235.174 200.958 234.047 202.858 232.92 204.758C231.97 206.338 234.456 207.786 235.395 206.206C236.688 204.018 237.296 201.61 237.594 199.113C237.715 198.118 236.268 198.085 235.97 198.892L235.959 198.881Z" fill="#312A3C"/>
<path d="M201.289 217.453C200.968 218.392 202.228 219.519 202.659 220.303C203.311 221.519 203.94 222.712 204.493 223.982C205.101 225.419 207.498 224.391 207.012 222.922C206.448 221.209 205.509 219.618 204.15 218.436C203.708 218.049 201.731 216.182 201.3 217.464L201.289 217.453Z" fill="#312A3C"/>
<path d="M212.757 218.602C211.973 220.679 210.846 222.579 209.719 224.48C208.769 226.06 211.255 227.507 212.194 225.927C213.486 223.739 214.094 221.331 214.392 218.834C214.514 217.84 213.066 217.806 212.768 218.613L212.757 218.602Z" fill="#312A3C"/>
<path d="M234.931 241.395C234.611 242.334 235.87 243.461 236.301 244.245C236.953 245.46 237.583 246.654 238.135 247.924C238.743 249.36 241.14 248.333 240.654 246.863C240.091 245.151 239.152 243.56 237.793 242.378C237.351 241.991 235.373 240.124 234.942 241.406L234.931 241.395Z" fill="#312A3C"/>
<path d="M246.399 242.544C245.615 244.621 244.488 246.521 243.361 248.421C242.411 250.001 244.897 251.449 245.836 249.869C247.128 247.681 247.736 245.273 248.034 242.776C248.156 241.781 246.709 241.748 246.41 242.555L246.399 242.544Z" fill="#312A3C"/>
<path d="M191.92 253.095C191.6 254.034 192.859 255.161 193.29 255.945C193.942 257.161 194.572 258.354 195.124 259.624C195.732 261.061 198.129 260.033 197.643 258.564C197.08 256.851 196.14 255.26 194.782 254.078C194.34 253.691 192.362 251.824 191.931 253.106L191.92 253.095Z" fill="#312A3C"/>
<path d="M203.388 254.244C202.604 256.321 201.477 258.221 200.35 260.121C199.4 261.701 201.886 263.149 202.825 261.569C204.117 259.381 204.725 256.973 205.023 254.476C205.145 253.481 203.698 253.448 203.399 254.255L203.388 254.244Z" fill="#312A3C"/>
<path d="M214.68 271.247C214.359 272.186 215.619 273.313 216.05 274.098C216.702 275.313 217.331 276.506 217.884 277.777C218.502 279.213 220.889 278.185 220.403 276.716C219.839 275.004 218.9 273.413 217.541 272.23C217.099 271.844 215.122 269.977 214.691 271.258L214.68 271.247Z" fill="#312A3C"/>
<path d="M226.148 272.396C225.364 274.473 224.237 276.374 223.11 278.274C222.16 279.854 224.645 281.301 225.585 279.721C226.877 277.534 227.485 275.125 227.783 272.628C227.905 271.634 226.457 271.601 226.159 272.407L226.148 272.396Z" fill="#312A3C"/>
<path d="M266.375 265.646C266.054 266.585 267.314 267.712 267.745 268.496C268.397 269.711 269.026 270.905 269.579 272.175C270.186 273.611 272.584 272.584 272.098 271.115C271.534 269.402 270.595 267.811 269.236 266.629C268.794 266.242 266.817 264.375 266.386 265.657L266.375 265.646Z" fill="#312A3C"/>
<path d="M277.843 266.795C277.058 268.872 275.931 270.772 274.805 272.672C273.854 274.252 276.34 275.7 277.279 274.12C278.572 271.932 279.18 269.524 279.478 267.027C279.6 266.032 278.152 265.999 277.854 266.806L277.843 266.795Z" fill="#312A3C"/>
<path d="M289.179 299.697C288.858 300.636 290.118 301.763 290.549 302.547C291.2 303.762 291.83 304.956 292.383 306.226C292.99 307.662 295.388 306.635 294.902 305.165C294.338 303.453 293.399 301.862 292.04 300.68C291.598 300.293 289.62 298.426 289.19 299.708L289.179 299.697Z" fill="#312A3C"/>
<path d="M300.647 300.846C299.862 302.923 298.735 304.823 297.608 306.723C296.658 308.303 299.144 309.751 300.083 308.171C301.376 305.983 301.983 303.574 302.282 301.078C302.403 300.083 300.956 300.05 300.658 300.857L300.647 300.846Z" fill="#312A3C"/>
<path d="M304.9 261.635C304.58 262.574 305.839 263.701 306.27 264.486C306.922 265.701 307.552 266.894 308.104 268.165C308.723 269.601 311.109 268.573 310.623 267.104C310.06 265.392 309.121 263.801 307.762 262.618C307.32 262.232 305.342 260.365 304.911 261.646L304.9 261.635Z" fill="#312A3C"/>
<path d="M316.368 262.784C315.584 264.861 314.457 266.762 313.33 268.662C312.38 270.242 314.866 271.689 315.805 270.109C317.097 267.922 317.705 265.513 318.003 263.016C318.125 262.022 316.678 261.989 316.379 262.795L316.368 262.784Z" fill="#312A3C"/>
<path d="M287.356 239.98C287.035 240.92 288.295 242.046 288.726 242.831C289.377 244.046 290.007 245.239 290.56 246.51C291.167 247.946 293.565 246.919 293.079 245.449C292.515 243.737 291.576 242.146 290.217 240.964C289.775 240.577 287.797 238.71 287.367 239.991L287.356 239.98Z" fill="#312A3C"/>
<path d="M298.835 241.129C298.051 243.207 296.924 245.107 295.797 247.007C294.847 248.587 297.332 250.034 298.272 248.454C299.564 246.267 300.172 243.858 300.47 241.361C300.592 240.367 299.144 240.334 298.846 241.14L298.835 241.129Z" fill="#312A3C"/>
<path d="M321.119 220.712C320.799 221.651 322.058 222.778 322.489 223.563C323.141 224.778 323.771 225.971 324.323 227.242C324.942 228.678 327.328 227.65 326.842 226.181C326.279 224.469 325.34 222.878 323.981 221.695C323.539 221.309 321.561 219.442 321.13 220.723L321.119 220.712Z" fill="#312A3C"/>
<path d="M332.587 221.872C331.803 223.949 330.676 225.85 329.549 227.75C328.599 229.33 331.085 230.777 332.024 229.197C333.317 227.01 333.924 224.601 334.223 222.104C334.344 221.11 332.897 221.077 332.599 221.883L332.587 221.872Z" fill="#312A3C"/>
<path d="M260.862 210.68C260.541 211.619 261.801 212.746 262.232 213.531C262.883 214.746 263.513 215.939 264.066 217.21C264.684 218.646 267.071 217.619 266.585 216.149C266.021 214.437 265.082 212.846 263.723 211.664C263.281 211.277 261.304 209.41 260.873 210.691L260.862 210.68Z" fill="#312A3C"/>
<path d="M272.341 211.829C271.557 213.906 270.43 215.807 269.303 217.707C268.353 219.287 270.839 220.734 271.778 219.154C273.07 216.967 273.678 214.558 273.976 212.061C274.098 211.067 272.65 211.034 272.352 211.84L272.341 211.829Z" fill="#312A3C"/>
<path d="M265.38 178.563C265.06 179.502 266.32 180.629 266.75 181.413C267.402 182.629 268.032 183.822 268.584 185.092C269.192 186.529 271.59 185.501 271.103 184.032C270.54 182.319 269.601 180.728 268.242 179.546C267.8 179.159 265.822 177.292 265.392 178.574L265.38 178.563Z" fill="#312A3C"/>
<path d="M276.849 179.712C276.064 181.789 274.937 183.689 273.81 185.59C272.86 187.169 275.346 188.617 276.285 187.037C277.578 184.849 278.186 182.441 278.484 179.944C278.605 178.949 277.158 178.916 276.86 179.723L276.849 179.712Z" fill="#312A3C"/>
<path d="M195.345 153.726C195.025 154.665 196.284 155.792 196.715 156.577C197.367 157.792 197.997 158.985 198.549 160.256C199.157 161.692 201.554 160.665 201.068 159.195C200.505 157.483 199.566 155.892 198.207 154.709C197.765 154.323 195.787 152.456 195.356 153.737L195.345 153.726Z" fill="#312A3C"/>
<path d="M206.825 154.875C206.04 156.952 204.913 158.853 203.786 160.753C202.836 162.333 205.322 163.78 206.261 162.2C207.554 160.013 208.161 157.604 208.46 155.107C208.581 154.113 207.134 154.08 206.836 154.886L206.825 154.875Z" fill="#312A3C"/>
<path d="M298.967 194.97C298.647 195.909 299.906 197.036 300.337 197.82C300.989 199.035 301.619 200.229 302.171 201.499C302.79 202.935 305.177 201.908 304.69 200.438C304.127 198.726 303.188 197.135 301.829 195.953C301.387 195.566 299.409 193.699 298.978 194.981L298.967 194.97Z" fill="#312A3C"/>
<path d="M310.436 196.119C309.651 198.196 308.524 200.096 307.397 201.996C306.447 203.576 308.933 205.024 309.872 203.444C311.165 201.256 311.772 198.847 312.071 196.351C312.192 195.356 310.745 195.323 310.447 196.13L310.436 196.119Z" fill="#312A3C"/>
<path d="M298.967 159.339C298.647 160.278 299.906 161.405 300.337 162.189C300.989 163.405 301.619 164.598 302.171 165.868C302.79 167.305 305.177 166.277 304.69 164.808C304.127 163.095 303.188 161.504 301.829 160.322C301.387 159.935 299.409 158.068 298.978 159.35L298.967 159.339Z" fill="#312A3C"/>
<path d="M310.436 160.488C309.651 162.565 308.524 164.465 307.397 166.365C306.447 167.945 308.933 169.393 309.872 167.813C311.165 165.625 311.772 163.217 312.071 160.72C312.192 159.725 310.745 159.692 310.447 160.499L310.436 160.488Z" fill="#312A3C"/>
<path d="M327.052 177.602C326.732 178.541 327.991 179.668 328.411 180.452C329.063 181.667 329.693 182.861 330.245 184.131C330.864 185.567 333.25 184.54 332.764 183.071C332.201 181.358 331.262 179.767 329.903 178.585C329.461 178.198 327.483 176.331 327.052 177.613V177.602Z" fill="#312A3C"/>
<path d="M338.52 178.751C337.736 180.828 336.609 182.728 335.482 184.628C334.532 186.208 337.018 187.656 337.957 186.076C339.25 183.888 339.857 181.48 340.155 178.983C340.277 177.988 338.83 177.955 338.531 178.762L338.52 178.751Z" fill="#312A3C"/>
<path d="M181.457 155.505C178.143 168.763 176.872 182.618 176.541 196.251C176.209 209.962 176.309 223.883 178.154 237.495C178.22 237.97 179.005 237.859 178.994 237.384C178.209 210.216 175.966 182.43 181.977 155.66C182.054 155.317 181.535 155.173 181.457 155.516V155.505Z" fill="#312A3C"/>
<path d="M348.906 157.98C350.331 171.724 350.408 185.512 349.668 199.3C348.928 213.067 346.552 226.965 346.707 240.754C346.707 241.472 347.889 241.693 348 240.931C350.088 227.286 350.662 213.089 351.347 199.3C352.032 185.424 351.414 171.647 349.513 157.891C349.469 157.549 348.861 157.626 348.906 157.969V157.98Z" fill="#312A3C"/>
<path d="M205.278 215.895L199.842 214.945C200.306 212.293 200.77 209.542 201.245 206.725C205.896 179.038 209.144 148.39 228.844 133.077C232.589 130.171 237.296 129.564 237.296 129.564C236.953 131.851 235.296 135.828 235.296 135.828C218.193 147.76 211.166 180.96 206.681 207.631C206.206 210.47 205.742 213.232 205.278 215.895Z" fill="#312A3C"/>
<path d="M321.959 215.895L327.395 214.945C326.931 212.293 326.467 209.542 325.992 206.725C321.34 179.038 318.092 148.39 298.393 133.077C294.648 130.171 289.941 129.564 289.941 129.564C290.284 131.851 291.941 135.828 291.941 135.828C309.044 147.76 316.07 180.96 320.556 207.631C321.031 210.47 321.495 213.232 321.959 215.895Z" fill="#312A3C"/>
<path d="M346.055 405.716C345.912 405.396 357.977 279.478 357.568 275.887L326.876 212.514L200.682 212.437L170.122 276.694C169.757 280.008 181.866 405.418 181.723 405.716C211.089 406.39 316.689 406.39 346.055 405.716Z" fill="#312A3C"/>
<path d="M263.569 312.778C282.735 312.778 298.271 297.241 298.271 278.075C298.271 258.909 282.735 243.372 263.569 243.372C244.403 243.372 228.866 258.909 228.866 278.075C228.866 297.241 244.403 312.778 263.569 312.778Z" fill="#EAE0D2"/>
<path d="M263.569 294.846C291.93 294.846 314.921 287.338 314.921 278.075C314.921 268.812 291.93 261.304 263.569 261.304C235.208 261.304 212.216 268.812 212.216 278.075C212.216 287.338 235.208 294.846 263.569 294.846Z" fill="#84C318"/>
<path d="M226.28 54.3687C218.038 54.5786 210.006 48.8556 207.498 41.0113C206.736 38.6027 206.471 35.8959 207.554 33.6199C208.647 31.344 211.409 29.7641 213.774 30.6479C212.967 23.9969 215.862 17.0254 221.132 12.8933C226.402 8.77226 233.882 7.64534 240.135 10.0318C243.206 4.43028 249.206 0.552324 255.57 0.0551494C261.933 -0.442025 268.463 2.45263 272.363 7.51276C275.854 2.44159 282.693 -0.0663874 288.637 1.56876C294.581 3.19287 299.199 8.82751 299.619 14.9704C304.569 15.2687 309.209 18.6605 310.988 23.2787C312.778 27.908 311.618 33.5315 308.16 37.0781C313.209 36.5588 318.39 39.7849 320.169 44.5357C321.948 49.2864 320.136 55.12 315.993 58.0478C312.932 60.2022 309.054 60.7435 305.331 61.1523C284.163 63.4835 262.751 63.594 241.56 61.4948C236.876 61.0308 231.352 59.8265 229.639 55.4514C228.91 53.5953 228.269 50.8442 226.303 51.1315" fill="#312A3C"/>
<path d="M215.994 44.7677C211.873 43.2762 207.355 46.668 205.697 50.7227C204.007 54.8548 204.405 59.7713 206.714 63.583C209.023 67.3946 213.21 70.0131 217.652 70.4329C215.221 73.0845 213.078 76.1228 212.194 79.603C211.31 83.0832 211.862 87.0827 214.271 89.7343C217.353 93.1151 222.458 93.5571 227.032 93.4355C229.981 93.3582 233.274 92.9715 235.174 90.7066C236.301 89.3697 236.732 87.591 237.019 85.8564C239.384 71.2726 232.5 55.595 220.148 47.4745" fill="#312A3C"/>
<path d="M307.861 52.8219C310.811 53.9599 313.816 55.131 316.28 57.1308C318.733 59.1305 320.6 62.1135 320.445 65.2844C320.291 68.4442 317.606 71.5157 314.435 71.372C319.164 72.8967 320.81 79.4704 318.357 83.7793C315.893 88.0992 310.623 90.1542 305.651 90.1984C304.083 90.2094 302.481 90.0437 301.033 89.4581C299.696 88.9168 298.525 88.0218 297.421 87.0938C290.339 81.1608 284.825 72.6868 284.615 63.4504" fill="#312A3C"/>
<path d="M216.746 67.4388C216.746 96.5953 224.237 113.687 263.569 113.687C302.901 113.687 310.391 96.5843 310.391 67.4388C310.391 7.05978 216.735 -0.696129 216.735 67.4388H216.746Z" fill="#B8625C"/>
<path d="M239.981 110.925C253.935 117.51 270.187 117.123 284.77 112.847C285.864 112.527 285.389 110.803 284.295 111.135C269.17 115.786 255.161 114.538 240.036 110.759C239.947 110.737 239.87 110.881 239.97 110.925H239.981Z" fill="#312A3C"/>
<path d="M250.896 76.631C250.896 79.1611 249.67 81.2161 248.145 81.2161C246.62 81.2161 245.394 79.1611 245.394 76.631C245.394 74.101 246.62 72.046 248.145 72.046C249.67 72.046 250.896 74.101 250.896 76.631Z" fill="#312A3C"/>
<path d="M280.671 76.631C280.671 79.1611 279.445 81.2161 277.92 81.2161C276.396 81.2161 275.169 79.1611 275.169 76.631C275.169 74.101 276.396 72.046 277.92 72.046C279.445 72.046 280.671 74.101 280.671 76.631Z" fill="#312A3C"/>
<path d="M274.595 65.1408C276.164 64.5221 277.81 64.2901 279.478 64.6215C280.936 64.9088 282.019 65.8147 283.389 66.2456C283.886 66.4003 284.406 65.7816 284.085 65.3397C282.052 62.4229 276.948 62.7654 274.109 64.0139C273.468 64.2901 273.932 65.4059 274.584 65.1518L274.595 65.1408Z" fill="#312A3C"/>
<path d="M253.017 64.0028C250.178 62.7544 245.074 62.4119 243.041 65.3286C242.731 65.7705 243.24 66.4003 243.737 66.2346C245.107 65.8037 246.178 64.8977 247.648 64.6105C249.316 64.2901 250.962 64.511 252.531 65.1297C253.183 65.3838 253.658 64.279 253.006 63.9918L253.017 64.0028Z" fill="#312A3C"/>
<path d="M256.796 97.3135C259.635 100.727 266.861 101.545 268.662 96.518C268.883 95.8882 268.054 95.5347 267.623 95.9103C266.165 97.203 265.248 98.5619 263.215 98.9818C260.95 99.4568 258.751 98.5398 257.171 96.9268C256.928 96.6727 256.586 97.0483 256.796 97.3024V97.3135Z" fill="#312A3C"/>
<path d="M263.546 67.9802C263.48 71.3831 263.038 74.8522 262.165 78.1557C261.679 80.0229 261.005 81.8679 260.177 83.6136C259.812 84.3649 258.519 86.0221 258.431 86.906C258.188 89.3808 261.281 90.0989 263.237 90.8281C263.469 90.9165 263.635 90.5298 263.403 90.4193C262.596 90.0216 261.447 89.6128 260.806 88.972C258.829 86.9833 259.812 86.4751 260.674 84.7626C261.48 83.1827 262.154 81.5365 262.685 79.8461C263.922 75.9018 264.121 72.0902 263.624 67.9912C263.624 67.936 263.535 67.936 263.535 67.9912L263.546 67.9802Z" fill="#312A3C"/>
<path d="M216.028 76.4874C214.79 76.2885 216.16 78.3877 217.353 78.0121C220.016 77.1724 221.695 74.4214 222.093 71.6593C222.491 68.8972 221.85 66.102 221.198 63.3951C228.446 64.8093 235.782 57.0092 233.937 49.861C236.069 53.1865 240.588 54.7443 244.311 53.4517C248.035 52.159 250.609 48.1264 250.222 44.2042C256.387 48.049 265.469 46.0272 269.413 39.9285C270.01 46.9221 278.893 51.706 285.058 48.3473C282.748 54.6338 289.908 62.0583 296.272 59.9702C296.946 64.4889 297.774 69.3612 301.045 72.5542C304.315 75.7472 310.877 75.7803 312.634 71.5598C313.507 69.4496 315.595 58.335 314.91 56.1585C310.27 41.4753 297.476 24.7371 283.875 17.5004C270.275 10.2638 253.294 9.24735 239.329 15.7327C221.916 23.8201 217.475 40.3705 212.205 55.7718C210.813 59.8265 216.028 76.4874 216.028 76.4874Z" fill="#312A3C"/>
<path d="M309.187 54.3355C313.816 52.844 318.07 55.8823 319.197 60.2132C321.981 70.9964 311.761 78.907 304.447 84.7294C303.243 80.2328 302.094 56.6225 309.187 54.3355Z" fill="#B8625C"/>
<path d="M307.287 71.6261C307.828 68.9966 308.48 66.2787 310.049 64.058C311.695 61.7158 313.86 61.0971 316.412 60.169C316.888 59.9923 316.943 59.2962 316.412 59.1415C313.871 58.4234 311.385 60.2132 309.828 62.1356C307.695 64.7651 307.044 68.168 306.591 71.4383C306.535 71.8802 307.176 72.0902 307.276 71.6261H307.287Z" fill="#312A3C"/>
<path d="M310.944 63.4173C311.982 63.9476 312.811 64.8093 313.231 65.9142C313.407 66.3672 313.507 66.8422 313.529 67.3284C313.551 67.8587 313.441 68.168 313.717 68.632C313.883 68.9193 314.324 68.9966 314.556 68.7425C315.363 67.8366 314.678 66.1351 314.148 65.2181C313.485 64.0691 312.457 63.2405 311.22 62.7765C310.844 62.6328 310.59 63.2405 310.944 63.4283V63.4173Z" fill="#312A3C"/>
<path d="M217.95 54.3355C213.321 52.844 209.067 55.8823 207.94 60.2132C205.156 70.9964 215.376 78.907 222.689 84.7294C223.894 80.2328 225.043 56.6225 217.95 54.3355Z" fill="#B8625C"/>
<path d="M220.535 71.4383C220.093 68.1791 219.441 64.7651 217.298 62.1356C215.74 60.2243 213.265 58.4234 210.713 59.1415C210.183 59.2962 210.238 59.9923 210.713 60.169C213.288 61.0971 215.409 61.6827 217.077 64.058C218.646 66.2788 219.298 69.0077 219.839 71.6261C219.939 72.0791 220.579 71.8803 220.524 71.4383H220.535Z" fill="#312A3C"/>
<path d="M215.917 62.7654C214.679 63.2294 213.663 64.0581 212.989 65.2071C212.448 66.1351 211.763 67.8255 212.58 68.7315C212.812 68.9856 213.254 68.9083 213.42 68.621C213.663 68.2012 213.597 67.9471 213.597 67.4609C213.597 66.9306 213.707 66.4003 213.895 65.9031C214.315 64.7983 215.144 63.9476 216.182 63.4062C216.536 63.2294 216.293 62.6107 215.906 62.7544L215.917 62.7654Z" fill="#312A3C"/>
<path d="M514.874 197.511C516.63 224.148 491.573 330.356 476.602 326.798C451.799 320.898 444.352 283.135 437.613 244.378C443.833 237.793 448.761 232.28 457.721 230.512C457.721 230.512 465.676 260.574 467.377 267.325C467.377 267.325 491.816 196.152 495.296 189.357C500.588 179.038 513.703 179.8 514.874 197.511Z" fill="#874C4C"/>
<path d="M467.299 267.292C472.636 270.794 476.492 279.688 479.652 285.08C483.231 291.2 485.33 297.443 486.932 304.304C487.275 305.762 489.683 305.475 489.573 303.95C489.054 296.404 485.54 289.223 481.541 282.903C478.182 277.578 473.409 269.557 467.454 267.027C467.277 266.949 467.123 267.181 467.299 267.292Z" fill="#312A3C"/>
<path d="M496.434 184.109C486.811 198.759 476.536 213.928 470.769 230.49C470.415 231.506 470.062 232.556 470.117 233.628C470.194 235.097 471.001 236.412 471.796 237.638C480.845 251.559 491.838 264.231 504.345 275.147C518.884 253.249 522.387 226.015 524.331 199.798C524.663 195.257 524.95 190.583 523.569 186.241C522.188 181.899 518.73 177.911 514.222 177.259L496.423 184.098L496.434 184.109Z" fill="#FFFAE6"/>
<path d="M645.51 200.847C644.99 205.576 669.131 329.781 684.433 328.102C709.778 325.307 715.534 292.913 726.781 252.332C721.423 245.029 721.113 247.692 712.451 244.831C712.451 244.831 698.984 270.883 696.453 277.379C696.453 277.379 674.489 200.56 671.86 193.39C667.883 182.496 647.432 183.192 645.51 200.847Z" fill="#874C4C"/>
<path d="M695.846 276.904C688.145 284.682 680.621 297.244 682.19 308.657C682.29 309.397 683.416 309.298 683.593 308.657C684.952 303.608 685.206 298.481 687.04 293.521C689.206 287.687 692.443 282.251 696.431 277.489C696.774 277.092 696.232 276.517 695.846 276.904Z" fill="#312A3C"/>
<path d="M668.269 184.109C677.892 198.759 688.167 213.928 693.934 230.49C694.288 231.506 694.641 232.556 694.586 233.628C694.509 235.097 693.702 236.412 692.907 237.638C683.858 251.559 672.865 264.231 660.358 275.147C645.819 253.249 642.316 226.015 640.372 199.798C640.04 195.257 639.753 190.583 641.134 186.241C642.515 181.899 645.973 177.911 650.481 177.259L668.28 184.098L668.269 184.109Z" fill="#FFFAE6"/>
<path d="M614.508 167.415C606.387 157.67 606.133 133.983 605.868 116.681C595.968 116.747 569.265 116.747 559.365 116.681C559.1 133.983 558.846 157.67 550.726 167.415C542.064 177.812 495.639 189.445 497.185 190.904C508.62 201.444 544.627 249.758 581.617 249.758C618.606 249.758 656.602 201.444 668.048 190.904C669.594 189.445 623.18 177.812 614.508 167.415Z" fill="#874C4C"/>
<path d="M670.434 188.031C671.462 178.309 628.771 164.62 617.259 165.227C604.155 195.478 561.288 195.577 548.041 165.382L547.975 165.227C536.462 164.62 493.772 178.309 494.799 188.031C497.318 212.039 508.466 281.887 505.836 337.471C504.267 370.56 486.513 398.59 487.01 408.898C487.01 439.226 678.212 439.226 678.212 408.898C678.687 398.866 661.043 372.03 659.529 340.089C656.889 284.096 667.871 212.415 670.423 188.02L670.434 188.031Z" fill="#FFFAE6"/>
<path d="M500.323 180.861C496.578 195.953 497.506 212.47 498.666 227.838C499.859 243.693 501.472 259.591 503.804 275.313C503.903 275.954 504.942 275.788 504.919 275.158C504.544 259.613 501.947 244.135 500.699 228.634C499.439 213.011 497.639 196.527 501.019 181.049C501.119 180.596 500.434 180.397 500.323 180.861Z" fill="#312A3C"/>
<path d="M667.749 183.358C669.263 198.483 669.263 213.708 668.246 228.866C667.208 244.356 663.661 259.403 662.103 274.783C662.004 275.799 663.551 275.932 663.838 275.015C668.313 260.453 669.561 244.013 670.5 228.866C671.439 213.608 670.71 198.383 668.578 183.247C668.511 182.794 667.716 182.894 667.76 183.358H667.749Z" fill="#312A3C"/>
<path d="M534.009 37.1443C528.397 45.7731 522.597 55.2083 513.106 59.1857C473.774 75.6919 500.411 88.6295 476.978 117.167C472.205 122.979 466.637 128.249 463.134 134.9C455.787 148.854 459.367 167.05 469.752 178.916C480.149 190.782 496.235 196.682 512.012 197.013C518.387 197.146 524.872 196.428 530.728 193.931C538.838 190.484 545.234 183.888 550.328 176.707C559.421 163.891 565.121 147.384 560.525 132.348C558.813 126.757 555.73 121.41 555.819 115.554C555.907 109.544 559.421 104.064 563.674 99.8104C567.928 95.5568 572.999 92.2092 577.396 88.0992C589.991 76.3217 597.117 56.5673 594.112 39.3761C591.538 24.5824 572.546 15.335 558.548 17.0916C547.234 18.5169 539.799 28.2173 533.998 37.1333L534.009 37.1443Z" fill="#312A3C"/>
<path d="M640.637 102.318C635.356 130.635 624.97 145.893 586.765 138.767C548.56 131.641 544.373 113.665 549.665 85.3481C560.603 26.6926 652.989 36.1279 640.637 102.318Z" fill="#874C4C"/>
<path d="M610.177 140.358C595.427 144.225 579.705 140.899 566.315 134.104C565.309 133.596 566.083 132.005 567.077 132.524C580.932 139.783 594.764 141.12 610.132 140.181C610.232 140.181 610.265 140.325 610.165 140.347L610.177 140.358Z" fill="#312A3C"/>
<path d="M616.971 98.5398C616.507 101.004 617.336 103.213 618.816 103.489C620.297 103.766 621.855 101.998 622.319 99.5342C622.783 97.0704 621.954 94.8608 620.473 94.5845C618.993 94.3083 617.435 96.0761 616.971 98.5398Z" fill="#312A3C"/>
<path d="M588.047 93.1483C587.583 95.612 588.411 97.8217 589.892 98.0979C591.372 98.3741 592.93 96.6064 593.394 94.1426C593.858 91.6788 593.03 89.4692 591.549 89.193C590.069 88.9168 588.511 90.6845 588.047 93.1483Z" fill="#312A3C"/>
<path d="M596.035 83.0832C594.62 82.1994 593.063 81.6801 591.383 81.6912C589.914 81.7022 588.698 82.3872 587.295 82.564C586.787 82.6303 586.4 81.9342 586.776 81.5475C589.273 79.0838 594.178 80.3433 596.697 82.0668C597.261 82.4535 596.62 83.4478 596.023 83.0832H596.035Z" fill="#312A3C"/>
<path d="M617.192 85.8895C620.175 85.1935 625.191 85.7901 626.639 88.9831C626.859 89.4692 626.252 89.9884 625.788 89.7454C624.539 89.0714 623.655 87.9998 622.285 87.4584C620.717 86.8397 619.081 86.7623 617.446 87.0827C616.772 87.2153 616.507 86.0553 617.192 85.8895Z" fill="#312A3C"/>
<path d="M607.492 117.565C604.123 120.371 596.952 119.852 596.113 114.637C596.013 113.985 596.886 113.798 597.228 114.24C598.411 115.753 599.051 117.245 600.952 118.029C603.073 118.902 605.371 118.416 607.194 117.134C607.481 116.935 607.746 117.355 607.492 117.565Z" fill="#312A3C"/>
<path d="M606.254 87.8561C605.702 91.1706 605.503 94.6287 605.746 97.9874C605.879 99.8877 606.199 101.81 606.685 103.644C606.895 104.44 607.856 106.274 607.779 107.158C607.558 109.599 604.431 109.743 602.398 110.096C602.155 110.141 602.067 109.743 602.31 109.677C603.172 109.433 604.354 109.257 605.094 108.737C607.381 107.158 606.519 106.495 605.989 104.672C605.492 102.992 605.138 101.269 604.929 99.5231C604.442 95.4684 604.94 91.723 606.166 87.834C606.177 87.7788 606.265 87.7898 606.254 87.8451V87.8561Z" fill="#312A3C"/>
<path d="M555.333 72.1675C551.112 69.8805 546.417 72.057 544.549 76.0565C539.887 86.0221 548.383 95.5568 554.427 102.55C556.415 98.3962 561.807 75.6698 555.333 72.1675Z" fill="#874C4C"/>
<path d="M554.051 89.3145C553.996 86.6629 553.863 83.9119 552.736 81.4591C551.554 78.8849 549.566 77.8905 547.256 76.5316C546.826 76.2775 546.903 75.5814 547.444 75.5372C550.041 75.2942 552.14 77.4928 553.3 79.6362C554.891 82.5861 554.913 86 554.758 89.2593C554.736 89.6902 554.073 89.7785 554.062 89.3145H554.051Z" fill="#312A3C"/>
<path d="M551.996 80.6858C550.88 81.0172 549.93 81.6912 549.322 82.6966C549.068 83.1054 548.88 83.5473 548.781 84.0224C548.67 84.5306 548.715 84.851 548.361 85.2487C548.151 85.4918 547.709 85.4918 547.532 85.2045C546.903 84.177 547.886 82.6524 548.571 81.8569C549.422 80.8625 550.571 80.2438 551.852 80.0118C552.239 79.9455 552.383 80.5753 551.996 80.6858Z" fill="#312A3C"/>
<path d="M587.991 59.3404C594.145 65.0082 602.907 66.8312 611.259 67.1626C631.323 67.9692 637.245 95.7999 631.08 111.466C628.506 118.018 629.787 125.929 634.306 131.331C635.19 125.365 640.615 121.333 645.421 117.698C661.297 105.666 658.811 76.8962 651.243 59.8818C646.128 48.3805 633.853 36.0174 621.998 31.7638C605.636 25.8972 564.094 37.3322 587.98 59.3294L587.991 59.3404Z" fill="#312A3C"/>
<path d="M574.811 73.6038C570.402 78.9843 564.005 83.492 557.078 82.9507C556.183 82.8844 555.255 82.7187 554.493 82.2325C553.742 81.7464 553.2 80.9951 552.758 80.2107C550.46 76.0897 550.593 71.0406 551.432 66.4003C552.813 58.7659 556.128 51.242 561.995 46.1708C567.839 41.1217 580.512 36.6803 583.926 46.436C586.898 54.9432 579.948 67.3394 574.811 73.6038Z" fill="#312A3C"/>
<path d="M828.624 343.779H0V469.918H828.624V343.779Z" fill="#EAE0D2"/>
<path d="M409.959 191.025C407.76 190.296 403.65 188.241 401.153 188.97C399.684 189.401 399.64 189.766 399.905 191.368C400.391 194.34 402.601 195.014 404.888 196.406C407.484 197.986 412.467 200.77 411.495 204.383C411.031 206.128 409.407 207.299 407.705 207.576C404.402 208.095 400.623 205.907 397.828 204.327C398.292 210.039 402.115 215.972 404.711 221.021C406.446 224.38 428.962 229.529 431.238 229.805C433.68 230.103 437.602 244.389 440.574 255.514C444.397 253.238 460.295 240.301 460.295 240.301C458.616 232.158 454.119 214.448 450.672 212.094C446.728 209.41 431.835 198.803 427.371 196.947C425.46 196.152 412.798 191.975 409.948 191.036L409.959 191.025Z" fill="#874C4C"/>
<path d="M415.848 206.04C417.858 206.515 419.946 207.344 422.013 206.725C423.924 206.162 425.592 205.178 427.636 204.78C430.232 204.283 433.227 204.206 435.138 206.305C435.635 206.846 434.994 207.554 434.387 207.156C430.708 204.692 426.377 206.758 422.587 207.929C421.968 208.117 421.206 208.504 420.543 208.393C418.985 208.139 417.45 206.603 415.792 206.239C415.671 206.206 415.704 206.007 415.825 206.04H415.848Z" fill="#312A3C"/>
<path d="M400.38 174.663C404.821 173.591 416.665 181.336 419.637 193.688C422.609 206.04 417.748 213.155 410.08 215C402.413 216.845 394.845 212.713 391.873 200.372C388.901 188.02 395.928 175.734 400.38 174.674V174.663Z" fill="#F5FBEF"/>
<path d="M395.397 203.311C394.778 200.527 395.11 197.489 394.568 194.671C394.171 192.572 393.707 190.186 392.237 188.882C388.68 185.722 388.127 198.538 388.636 201.212C390.591 211.498 400.115 216.193 401.164 215.188C402.247 214.138 396.557 206.548 395.397 203.311Z" fill="#874C4C"/>
<path d="M421.239 216.37C419.483 216.481 416.92 213.133 416.201 211.343C415.262 209.001 415.737 206.526 416.124 204.107C416.665 200.737 418.057 193.589 415.804 192.672C411.981 191.103 404.7 210.747 409.771 217.729C411.185 219.685 413.594 222.071 416.091 221.552C418.411 221.066 421.549 218.878 421.228 216.37H421.239Z" fill="#874C4C"/>
<path d="M410.478 201.985C410.799 197.676 414.643 189.258 412.434 187.667C409.108 185.269 404.357 197.19 402.28 202.759C400.214 208.294 399.872 209.995 402.932 215.022C404.048 216.845 408.357 222.778 411.064 222.723C412.688 222.69 414.367 219.928 414.666 218.668C415.185 216.414 413.594 214.503 412.809 212.547C411.064 208.216 410.732 204.449 410.478 201.985Z" fill="#874C4C"/>
<path d="M401.507 207.2C399.916 205.311 399.132 204.582 399.927 202.118C400.778 199.499 401.86 196.947 402.645 194.296C403.009 193.08 404.733 188.981 402.932 188.396C399.673 187.346 396.171 195.146 395.22 197.102C392.514 202.681 389.663 208.791 394.348 213.862C396.436 216.127 404.689 221.486 410.953 224.38C416.975 227.164 406.368 205.996 401.518 207.2H401.507Z" fill="#874C4C"/>
<path d="M412.489 195.809C410.677 198.859 407.738 203.565 408.92 207.211C410.147 210.956 412.986 213.928 414.743 217.376C415.008 217.895 414.378 218.602 413.892 218.105C411.262 215.431 408.025 210.249 407.55 206.416C407.086 202.725 409.959 198.383 411.804 195.478C412.058 195.08 412.732 195.389 412.478 195.809H412.489Z" fill="#312A3C"/>
<path d="M401.452 205.786C401.187 207.233 400.734 208.625 401.231 210.084C401.606 211.189 402.369 212.128 403.098 213C404.6 214.812 406.512 216.448 407.661 218.502C407.97 219.044 407.318 219.663 406.81 219.232C404.667 217.442 402.523 214.525 401.142 212.094C399.861 209.841 400.369 208.084 401.076 205.709C401.142 205.477 401.496 205.543 401.441 205.786H401.452Z" fill="#312A3C"/>
<path d="M395.298 197.643C393.685 201.422 392.459 205.731 392.569 209.885C392.591 210.492 391.696 210.548 391.63 209.94C391.166 205.697 393.155 201.212 395.121 197.555C395.176 197.444 395.342 197.522 395.287 197.632L395.298 197.643Z" fill="#312A3C"/>
<path d="M730.956 165.504L667.34 233.639L720.173 240.621L778.818 173.735L730.956 165.504Z" fill="#F59D56"/>
<path d="M773.327 172.796L804.019 157.748L735.685 233.473L720.174 240.621L773.327 172.796Z" fill="#F59D56"/>
<path d="M773.327 172.796C773.327 172.796 771.548 158.72 795.291 154.356C801.102 157.748 801.942 160.046 801.942 160.046L773.327 172.796Z" fill="#F5FBEF"/>
<path d="M773.327 172.796C773.327 172.796 752.158 159.195 728.891 160.167L730.946 165.504L773.316 172.796H773.327Z" fill="#F5FBEF"/>
<path d="M728.89 160.167L662.976 230.932L667.34 233.639L730.956 165.504L728.89 160.167Z" fill="#E8E8EA"/>
<path d="M734.713 213.243C734.713 213.243 732.526 223.905 732.283 228.512C722.593 236.412 722.836 238.445 722.836 238.445L731.078 245.14C731.078 245.14 740.768 233.119 740.768 230.932C740.768 228.744 741.254 209.122 734.713 213.243Z" fill="#874C4C"/>
<path d="M732.282 246.355L729.134 255.647C729.134 255.647 722.593 262.674 721.135 273.335C719.676 283.997 699.082 273.335 699.082 273.335V244.632L732.282 246.355Z" fill="#874C4C"/>
<path d="M722.714 256.619C722.714 256.619 696.905 239.903 691.094 242.08C685.282 244.256 690 250.808 719.079 264.254C727.443 267.524 722.714 256.619 722.714 256.619Z" fill="#874C4C"/>
<path d="M730.956 239.649C730.956 239.649 705.147 222.933 699.336 225.109C693.524 227.286 698.242 233.838 727.321 247.283C735.685 250.554 730.956 239.649 730.956 239.649Z" fill="#874C4C"/>
<path d="M724.416 248.377C724.416 248.377 698.607 231.661 692.795 233.838C686.984 236.014 691.701 242.566 720.781 256.012C729.144 259.282 724.416 248.377 724.416 248.377Z" fill="#874C4C"/>
<path d="M692.596 240.091C697.104 243.814 702.054 246.687 707.368 249.095C712.616 251.471 717.941 254.409 723.399 256.21C723.819 256.354 723.973 255.779 723.675 255.547C719.178 252.089 713.157 250.311 708.009 248.001C702.716 245.637 697.557 243.173 692.85 239.759C692.662 239.627 692.419 239.936 692.596 240.08V240.091Z" fill="#312A3C"/>
<path d="M710.461 239.417C714.736 241.969 718.979 244.577 723.376 246.93C724.139 247.339 724.824 246.178 724.061 245.77C719.664 243.405 715.123 241.306 710.627 239.152C710.45 239.063 710.295 239.317 710.472 239.417H710.461Z" fill="#312A3C"/>
<path d="M724.15 236.224C726.393 237.936 728.503 239.572 731 240.92C731.839 241.372 732.425 240.069 731.519 239.693C728.967 238.621 726.757 237.229 724.415 235.782C724.128 235.605 723.896 236.036 724.15 236.224Z" fill="#312A3C"/>
<path d="M699.004 254.056C701.678 255.757 704.363 257.437 707.092 259.05C709.357 260.387 712.03 262.386 714.715 262.663C715.102 262.707 715.356 262.11 715.046 261.867C712.826 260.121 709.743 259.193 707.224 257.945C704.517 256.608 701.833 255.205 699.17 253.791C698.993 253.691 698.85 253.956 699.015 254.056H699.004Z" fill="#312A3C"/>
<path d="M709.323 259.381C705.213 260.762 697.922 263.9 700.021 269.568C700.231 270.142 701.015 269.91 700.916 269.325C700.153 264.408 705.777 261.624 709.555 259.956C709.876 259.812 709.644 259.282 709.312 259.392L709.323 259.381Z" fill="#312A3C"/>
<path d="M430.233 431.647H95.1152L121.841 356.905H403.507L430.233 431.647Z" fill="#92AD94"/>
<path d="M160.057 395.077L187.346 392.381V381.951L160.057 379.255C155.384 378.791 151.329 382.471 151.329 387.166C151.329 391.862 155.384 395.53 160.057 395.077Z" fill="#F59D56"/>
<path d="M367.71 395.077L340.421 392.381V381.951L367.71 379.255C372.383 378.791 376.438 382.471 376.438 387.166C376.438 391.862 372.383 395.53 367.71 395.077Z" fill="#F59D56"/>
<path d="M348.718 370.351H179.06V403.993H348.718V370.351Z" fill="#F59D56"/>
<path d="M181.988 378.836C189.711 368.616 202.737 376.759 211.465 380.559C218.558 383.653 226.037 385.796 233.694 386.967C248.477 389.21 266.066 388.514 279.456 381.2C280.086 380.857 279.644 379.907 278.981 380.062C269.015 382.393 259.602 385.078 249.283 385.443C239.472 385.785 229.683 384.636 220.27 381.819C209.244 378.526 190.683 365.058 181.115 378.305C180.717 378.847 181.612 379.355 182.01 378.825L181.988 378.836Z" fill="#312A3C"/>
<path d="M240.864 376.571C241.052 380.128 246.3 380.88 249.062 381.023C254.078 381.288 258.663 379.432 262.243 375.952C262.851 375.366 262.353 374.438 261.591 374.383C255.724 373.963 249.018 373.289 243.317 375.002C242.787 375.157 242.941 375.864 243.439 375.919C249.405 376.571 255.57 375.764 261.591 376.228L260.939 374.659C258.542 376.968 255.57 378.626 252.299 379.322C249.626 379.885 242.024 380.405 241.571 376.571C241.516 376.118 240.82 376.096 240.842 376.571H240.864Z" fill="#312A3C"/>
<path d="M273.91 374.659C286.251 374.693 295.487 383.354 306.602 387.354C315.894 390.702 327.881 392.094 337.073 387.763C337.626 387.498 337.361 386.558 336.764 386.603C331.096 387.011 325.583 388.105 319.871 387.718C313.109 387.254 306.911 385.31 300.78 382.526C292.096 378.582 283.787 373.566 273.921 374.041C273.523 374.063 273.523 374.659 273.921 374.659H273.91Z" fill="#312A3C"/>
<path d="M305.541 377.742C311.861 377.455 318.081 376.372 324.423 376.549C329.737 376.692 335.946 379.587 341.018 378.04C341.482 377.896 341.437 377.3 341.018 377.145C330.234 372.925 316.435 374.704 305.53 377.653C305.475 377.664 305.486 377.753 305.541 377.753V377.742Z" fill="#312A3C"/>
<path d="M217.398 393.232C233.727 405.904 254.675 400.49 273.214 397.11C286.174 394.745 298.846 394.425 311.872 396.336C322.556 397.905 333.306 400.446 344.111 398.678C345.094 398.513 344.851 396.933 343.879 396.944C322.6 397.386 302.227 390.735 280.86 393.707C260.067 396.59 237.152 405.539 217.829 392.657C217.486 392.436 217.067 392.977 217.387 393.232H217.398Z" fill="#312A3C"/>
<path d="M210.493 388.116C208.084 382.349 190.771 388.238 189.877 393.43C188.65 400.479 208.239 396.966 209.786 391.431C210.029 390.547 208.714 389.939 208.272 390.79C206.869 393.475 202.759 394.436 200.041 395.066C198.638 395.397 197.168 395.64 195.71 395.519C193.931 395.894 193.058 395.298 193.103 393.751C192.329 392.425 192.815 391.541 194.539 391.099C196.506 389.785 198.693 388.79 200.98 388.16C202.947 387.619 208.67 386.094 210.117 388.26C210.239 388.437 210.592 388.326 210.493 388.105V388.116Z" fill="#312A3C"/>
<path d="M191.898 399.032C188.131 401.551 186.374 374.637 180.43 372.085C182.585 385.211 187.976 401.363 184.595 403.042C179.093 405.782 172.829 376.891 170.056 378.438C165.946 380.736 180.132 401.927 176.011 402.855C169.271 404.379 162.245 386.26 157.571 379.476C154.212 381.587 168.266 395.64 163.703 397.264C153.848 400.789 134.292 352.496 130.657 341.117C130.657 341.117 158.831 330.753 159.449 331.67C167.095 343.116 182.187 352.872 188.12 364.506C196.34 380.614 193.986 397.651 191.909 399.043L191.898 399.032Z" fill="#B8625C"/>
<path d="M137.043 221.916C117.587 259.436 107.71 272.65 113.422 302.072C118.316 327.273 124.724 356.761 131.287 356.916C136.778 357.037 176.011 336.587 176.011 336.587C176.011 336.587 164.2 312.612 156.676 287.786C155.549 284.052 160.576 272.264 166.885 260.773L137.054 221.927L137.043 221.916Z" fill="#84C318"/>
<path d="M132.889 250.344C132.569 251.283 133.828 252.41 134.259 253.194C134.911 254.409 135.541 255.603 136.093 256.873C136.712 258.31 139.098 257.282 138.612 255.813C138.049 254.1 137.109 252.509 135.751 251.327C135.309 250.94 133.331 249.073 132.9 250.355L132.889 250.344Z" fill="#312A3C"/>
<path d="M144.368 251.493C143.584 253.57 142.457 255.47 141.33 257.37C140.38 258.95 142.866 260.398 143.805 258.818C145.097 256.63 145.705 254.222 146.003 251.725C146.125 250.73 144.678 250.697 144.379 251.504L144.368 251.493Z" fill="#312A3C"/>
<path d="M141.618 289.079C141.297 290.018 142.557 291.145 142.988 291.93C143.639 293.145 144.269 294.338 144.822 295.609C145.44 297.045 147.827 296.017 147.341 294.548C146.777 292.836 145.838 291.245 144.479 290.062C144.037 289.676 142.059 287.809 141.629 289.09L141.618 289.079Z" fill="#312A3C"/>
<path d="M153.085 290.228C152.301 292.305 151.174 294.206 150.047 296.106C149.097 297.686 151.583 299.133 152.522 297.553C153.815 295.366 154.422 292.957 154.721 290.46C154.842 289.466 153.395 289.433 153.097 290.239L153.085 290.228Z" fill="#312A3C"/>
<path d="M116.792 283.654C116.471 284.594 117.731 285.72 118.162 286.505C118.814 287.72 119.443 288.913 119.996 290.184C120.615 291.62 123.001 290.593 122.515 289.123C121.951 287.411 121.012 285.82 119.653 284.638C119.211 284.251 117.234 282.384 116.803 283.665L116.792 283.654Z" fill="#312A3C"/>
<path d="M128.26 284.803C127.476 286.881 126.349 288.781 125.222 290.681C124.272 292.261 126.757 293.708 127.697 292.128C128.989 289.941 129.597 287.532 129.895 285.035C130.017 284.041 128.569 284.008 128.271 284.814L128.26 284.803Z" fill="#312A3C"/>
<path d="M127.962 313.662C127.641 314.601 128.901 315.728 129.332 316.512C129.984 317.727 130.613 318.921 131.166 320.191C131.784 321.627 134.171 320.6 133.685 319.131C133.121 317.418 132.182 315.827 130.823 314.645C130.381 314.258 128.404 312.391 127.973 313.673L127.962 313.662Z" fill="#312A3C"/>
<path d="M139.43 314.811C138.645 316.888 137.518 318.788 136.391 320.688C135.441 322.268 137.927 323.716 138.866 322.136C140.159 319.948 140.767 317.54 141.065 315.043C141.186 314.048 139.739 314.015 139.441 314.822L139.43 314.811Z" fill="#312A3C"/>
<path d="M152.058 326.312C151.738 327.251 152.997 328.378 153.428 329.162C154.08 330.378 154.71 331.571 155.262 332.841C155.881 334.278 158.267 333.25 157.781 331.781C157.217 330.068 156.278 328.477 154.919 327.295C154.478 326.909 152.5 325.041 152.069 326.323L152.058 326.312Z" fill="#312A3C"/>
<path d="M163.526 327.461C162.742 329.538 161.615 331.438 160.488 333.339C159.538 334.919 162.024 336.366 162.963 334.786C164.255 332.598 164.863 330.19 165.161 327.693C165.283 326.699 163.836 326.666 163.537 327.472L163.526 327.461Z" fill="#312A3C"/>
<path d="M156.831 287.775C156.577 283.776 153.251 279.799 150.423 277.191C147.782 274.761 142.987 270.374 139.231 270.463C138.667 270.474 138.115 271.181 138.513 271.711C139.54 273.048 140.833 273.501 142.291 274.341C144.412 275.567 146.423 276.959 148.312 278.528C151.66 281.312 153.792 284.638 156.566 287.886C156.654 287.985 156.842 287.908 156.831 287.775Z" fill="#312A3C"/>
<path d="M333.659 399.032C337.427 401.551 339.183 374.637 345.127 372.085C342.973 385.211 337.581 401.363 340.962 403.042C346.464 405.782 352.729 376.891 355.502 378.438C359.612 380.736 345.426 401.927 349.547 402.855C356.286 404.379 363.313 386.26 367.986 379.476C371.345 381.587 357.292 395.64 361.855 397.264C371.71 400.789 391.265 352.496 394.9 341.117C394.9 341.117 366.727 330.753 366.108 331.67C358.463 343.116 343.371 352.872 337.438 364.506C329.218 380.614 331.571 397.651 333.648 399.043L333.659 399.032Z" fill="#B8625C"/>
<path d="M388.514 221.916C407.97 259.436 417.848 272.65 412.136 302.072C407.241 327.273 400.833 356.761 394.27 356.916C388.779 357.037 349.547 336.587 349.547 336.587C349.547 336.587 361.358 312.612 368.881 287.786C370.008 284.052 364.981 272.264 358.684 260.773L388.514 221.927V221.916Z" fill="#84C318"/>
<path d="M368.704 260.243C368.384 261.182 369.644 262.309 370.074 263.093C370.726 264.309 371.356 265.502 371.908 266.773C372.516 268.209 374.914 267.181 374.427 265.712C373.864 263.999 372.925 262.408 371.566 261.226C371.124 260.84 369.146 258.972 368.715 260.254L368.704 260.243Z" fill="#312A3C"/>
<path d="M380.173 261.392C379.388 263.469 378.262 265.369 377.135 267.27C376.184 268.85 378.67 270.297 379.609 268.717C380.902 266.53 381.51 264.121 381.808 261.624C381.93 260.63 380.482 260.597 380.184 261.403L380.173 261.392Z" fill="#312A3C"/>
<path d="M394.535 272.507C394.215 273.446 395.475 274.573 395.905 275.357C396.557 276.572 397.187 277.766 397.739 279.036C398.358 280.472 400.745 279.445 400.258 277.976C399.695 276.263 398.756 274.672 397.397 273.49C396.955 273.103 394.977 271.236 394.547 272.518L394.535 272.507Z" fill="#312A3C"/>
<path d="M406.004 273.656C405.219 275.733 404.092 277.633 402.965 279.533C402.015 281.113 404.501 282.561 405.44 280.981C406.733 278.793 407.341 276.385 407.639 273.888C407.76 272.893 406.313 272.86 406.015 273.667L406.004 273.656Z" fill="#312A3C"/>
<path d="M373.003 289.322C372.682 290.261 373.942 291.388 374.373 292.173C375.024 293.388 375.654 294.581 376.207 295.852C376.814 297.288 379.212 296.261 378.726 294.791C378.162 293.079 377.223 291.488 375.864 290.305C375.422 289.919 373.444 288.052 373.014 289.333L373.003 289.322Z" fill="#312A3C"/>
<path d="M384.471 290.471C383.686 292.548 382.559 294.449 381.432 296.349C380.482 297.929 382.968 299.376 383.907 297.796C385.2 295.609 385.808 293.2 386.106 290.703C386.227 289.709 384.78 289.676 384.482 290.482L384.471 290.471Z" fill="#312A3C"/>
<path d="M390.79 313.927C390.47 314.866 391.729 315.993 392.16 316.777C392.812 317.993 393.442 319.186 393.994 320.456C394.602 321.893 396.999 320.865 396.513 319.396C395.95 317.683 395.011 316.092 393.652 314.91C393.21 314.523 391.232 312.656 390.801 313.938L390.79 313.927Z" fill="#312A3C"/>
<path d="M402.258 315.076C401.474 317.153 400.347 319.053 399.22 320.954C398.27 322.533 400.756 323.981 401.695 322.401C402.987 320.213 403.595 317.805 403.893 315.308C404.015 314.313 402.567 314.28 402.269 315.087L402.258 315.076Z" fill="#312A3C"/>
<path d="M364.97 322.898C364.65 323.837 365.909 324.964 366.34 325.748C366.992 326.964 367.622 328.157 368.174 329.428C368.782 330.864 371.179 329.836 370.693 328.367C370.13 326.654 369.191 325.063 367.832 323.881C367.39 323.495 365.412 321.627 364.981 322.909L364.97 322.898Z" fill="#312A3C"/>
<path d="M376.45 324.047C375.665 326.124 374.538 328.024 373.411 329.925C372.461 331.505 374.947 332.952 375.886 331.372C377.179 329.185 377.786 326.776 378.085 324.279C378.206 323.285 376.759 323.252 376.461 324.058L376.45 324.047Z" fill="#312A3C"/>
<path d="M366.837 292.173C368.218 287.742 370.152 283.489 372.859 279.71C375.643 275.832 379.278 273.302 382.648 270.032C383.609 269.104 382.393 267.667 381.267 268.242C372.991 272.485 367.533 283.157 365.931 291.93C365.821 292.515 366.65 292.758 366.826 292.173H366.837Z" fill="#312A3C"/>
<path d="M380.405 238.644C380.084 239.583 381.344 240.71 381.775 241.494C382.427 242.709 383.056 243.903 383.609 245.173C384.217 246.609 386.614 245.582 386.128 244.112C385.564 242.4 384.625 240.809 383.266 239.627C382.824 239.24 380.847 237.373 380.416 238.655L380.405 238.644Z" fill="#312A3C"/>
<path d="M391.873 239.793C391.088 241.87 389.961 243.77 388.835 245.67C387.884 247.25 390.37 248.698 391.309 247.118C392.602 244.93 393.21 242.522 393.508 240.025C393.63 239.03 392.182 238.997 391.884 239.804L391.873 239.793Z" fill="#312A3C"/>
<path d="M808.572 298.802V410.08C808.572 414.378 791.966 417.858 771.483 417.858C750.988 417.858 734.382 414.378 734.382 410.08V298.802H808.572Z" fill="#E8E8EA"/>
<path d="M743.32 323.55C742.679 332.411 742.458 341.26 742.37 350.154C742.293 358.186 741.431 366.937 743.254 374.803C743.398 375.422 744.436 375.466 744.558 374.803C745.906 366.826 744.712 358.208 744.525 350.154C744.326 341.282 744.248 332.422 743.95 323.55C743.939 323.152 743.353 323.152 743.331 323.55H743.32Z" fill="#312A3C"/>
<path d="M745 384.139C744.359 388.039 743.928 392.204 744.215 396.148C744.304 397.342 745.994 397.353 746.082 396.148C746.37 392.204 745.939 388.039 745.298 384.139C745.276 383.995 745.022 383.995 745 384.139Z" fill="#312A3C"/>
<path d="M799.965 325.793C798.695 328.433 797.27 330.974 795.623 333.394C793.988 335.78 791.9 337.99 790.552 340.542C790.11 341.371 791.094 342.001 791.768 341.481C796.308 337.968 798.85 331.35 800.717 326.102C800.871 325.66 800.164 325.362 799.954 325.782L799.965 325.793Z" fill="#312A3C"/>
<path d="M800.186 338.609C799.137 340.896 797.888 343.094 796.596 345.249C795.414 347.215 793.657 348.928 792.795 351.038C792.541 351.668 793.403 352.264 793.933 351.911C795.878 350.651 797.126 348.199 798.253 346.21C799.546 343.923 800.374 341.503 801.037 338.951C801.17 338.454 800.407 338.1 800.186 338.587V338.609Z" fill="#312A3C"/>
<path d="M801.39 350.574C800.65 352.607 799.744 354.551 798.617 356.396C797.601 358.065 796.186 359.534 795.38 361.313C795.137 361.854 795.689 362.672 796.297 362.23C799.623 359.81 801.379 354.673 802.484 350.872C802.694 350.154 801.633 349.889 801.39 350.574Z" fill="#312A3C"/>
<path d="M799.7 367.29C799.148 369.036 798.352 370.616 797.347 372.14C796.342 373.665 794.994 374.792 793.845 376.173C793.303 376.825 793.977 377.863 794.784 377.388C798.109 375.444 799.954 371.157 800.606 367.533C800.706 366.948 799.888 366.705 799.711 367.29H799.7Z" fill="#312A3C"/>
<path d="M799.943 383.233C798.882 384.669 797.833 386.094 796.883 387.619C796.054 388.945 794.872 390.315 794.529 391.862C794.364 392.58 795.192 393.055 795.745 392.569C796.927 391.519 797.557 389.829 798.308 388.459C799.17 386.901 799.91 385.288 800.661 383.664C800.882 383.178 800.263 382.813 799.943 383.244V383.233Z" fill="#312A3C"/>
<path d="M799.734 392.834C799.369 394.867 798.684 396.811 797.568 398.557C796.53 400.181 795.027 401.341 794.088 403.009C793.867 403.407 794.243 404.026 794.729 403.849C798.64 402.38 800.33 396.745 800.64 392.955C800.684 392.436 799.822 392.315 799.723 392.834H799.734Z" fill="#312A3C"/>
<path d="M810.561 298.525V310.115C800.551 319.506 742.393 319.506 732.383 310.115V298.525H810.561Z" fill="#874C4C"/>
<path d="M810.56 298.525C810.56 303.055 793.06 306.723 771.472 306.723C749.883 306.723 732.383 303.055 732.383 298.525C732.383 293.996 749.883 290.328 771.472 290.328C793.06 290.328 810.56 293.996 810.56 298.525Z" fill="#AD6E6E"/>
<path d="M779.448 319.429V430.707C779.448 435.005 762.842 438.485 742.359 438.485C721.864 438.485 705.259 435.005 705.259 430.707V319.429H779.448Z" fill="#F5FBEF"/>
<path d="M714.197 344.177C713.556 353.038 713.335 361.888 713.247 370.781C713.169 378.814 712.307 387.564 714.13 395.43C714.274 396.049 715.313 396.093 715.434 395.43C716.782 387.453 715.589 378.836 715.401 370.781C715.202 361.91 715.125 353.049 714.826 344.177C714.815 343.779 714.23 343.779 714.208 344.177H714.197Z" fill="#312A3C"/>
<path d="M715.876 404.766C715.235 408.666 714.804 412.831 715.091 416.776C715.18 417.969 716.87 417.98 716.959 416.776C717.246 412.831 716.815 408.666 716.174 404.766C716.152 404.622 715.898 404.622 715.876 404.766Z" fill="#312A3C"/>
<path d="M770.852 346.42C769.582 349.06 768.156 351.602 766.51 354.021C764.875 356.408 762.787 358.617 761.439 361.169C760.997 361.998 761.98 362.628 762.654 362.108C767.195 358.595 769.736 351.977 771.603 346.729C771.758 346.287 771.051 345.989 770.841 346.409L770.852 346.42Z" fill="#312A3C"/>
<path d="M771.073 359.236C770.024 361.523 768.775 363.721 767.482 365.876C766.3 367.843 764.544 369.555 763.682 371.665C763.428 372.295 764.289 372.892 764.82 372.538C766.764 371.279 768.013 368.826 769.14 366.837C770.432 364.55 771.261 362.131 771.924 359.578C772.056 359.081 771.294 358.728 771.073 359.214V359.236Z" fill="#312A3C"/>
<path d="M772.278 371.201C771.537 373.234 770.631 375.179 769.505 377.024C768.488 378.692 767.074 380.161 766.267 381.94C766.024 382.482 766.577 383.299 767.184 382.857C770.51 380.438 772.267 375.3 773.371 371.5C773.581 370.781 772.521 370.516 772.278 371.201Z" fill="#312A3C"/>
<path d="M770.576 387.928C770.024 389.674 769.228 391.254 768.223 392.779C767.217 394.303 765.869 395.43 764.72 396.811C764.179 397.463 764.853 398.502 765.66 398.027C768.985 396.082 770.83 391.795 771.482 388.171C771.582 387.586 770.764 387.343 770.587 387.928H770.576Z" fill="#312A3C"/>
<path d="M770.819 403.871C769.759 405.307 768.709 406.733 767.759 408.257C766.93 409.583 765.748 410.953 765.406 412.5C765.24 413.218 766.068 413.693 766.621 413.207C767.803 412.157 768.433 410.467 769.184 409.097C770.046 407.539 770.786 405.926 771.537 404.302C771.758 403.816 771.14 403.451 770.819 403.882V403.871Z" fill="#312A3C"/>
<path d="M770.62 413.461C770.256 415.505 769.571 417.438 768.455 419.184C767.416 420.808 765.914 421.968 764.975 423.637C764.754 424.034 765.129 424.653 765.616 424.476C769.527 423.007 771.217 417.372 771.526 413.583C771.571 413.063 770.709 412.942 770.609 413.461H770.62Z" fill="#312A3C"/>
<path d="M781.448 319.164V330.753C771.438 340.144 713.269 340.144 703.27 330.753V319.164H781.448Z" fill="#874C4C"/>
<path d="M742.359 327.362C763.947 327.362 781.448 323.691 781.448 319.164C781.448 314.636 763.947 310.966 742.359 310.966C720.771 310.966 703.27 314.636 703.27 319.164C703.27 323.691 720.771 327.362 742.359 327.362Z" fill="#AD6E6E"/>
<path d="M443.8 311.673C443.8 317.716 448.473 386.835 524.618 386.835C600.763 386.835 605.437 317.705 605.437 311.673C605.437 305.64 569.253 300.735 524.618 300.735C479.983 300.735 443.8 305.629 443.8 311.673Z" fill="#AD6E6E"/>
<path d="M524.607 321.859C566.142 321.859 599.813 317.299 599.813 311.673C599.813 306.047 566.142 301.486 524.607 301.486C483.072 301.486 449.401 306.047 449.401 311.673C449.401 317.299 483.072 321.859 524.607 321.859Z" fill="#874C4C"/>
<path d="M453.08 325.207C457.179 341.846 466.327 359.059 480.778 368.914C481.32 369.29 481.905 368.472 481.463 368.019C469.034 355.303 458.803 342.398 453.677 325.041C453.566 324.655 452.981 324.82 453.08 325.207Z" fill="#312A3C"/>
<path d="M486.27 372.074C488.766 374.008 492.236 376.283 495.561 375.908C496.025 375.853 496.323 375.201 495.826 374.947C494.512 374.273 493.02 373.93 491.617 373.51C489.893 372.991 488.258 372.251 486.7 371.356C486.225 371.08 485.872 371.754 486.281 372.074H486.27Z" fill="#312A3C"/>
<path d="M595.416 320.688C593.626 322.633 591.693 324.445 589.748 326.224C587.958 327.859 585.55 329.118 584.191 331.151C583.782 331.759 584.456 332.565 585.13 332.366C587.539 331.659 589.439 329.361 591.118 327.594C593.008 325.616 594.51 323.406 595.902 321.064C596.079 320.766 595.659 320.423 595.416 320.688Z" fill="#312A3C"/>
<path d="M593.946 328.853C592.687 331.041 591.206 333.062 589.439 334.874C588.069 336.266 586.113 337.371 585.428 339.261C585.329 339.526 585.594 339.879 585.881 339.846C588.124 339.647 589.637 337.526 590.93 335.891C592.521 333.891 593.803 331.715 594.841 329.383C595.106 328.787 594.289 328.267 593.946 328.864V328.853Z" fill="#312A3C"/>
<path d="M591.682 338.244C590.742 339.99 589.671 341.636 588.389 343.15C587.207 344.553 585.704 345.646 584.533 347.039C584.025 347.635 584.666 348.618 585.417 348.177C588.643 346.254 591.096 342.111 592.665 338.819C592.974 338.167 592.035 337.592 591.682 338.244Z" fill="#312A3C"/>
<path d="M587.781 349.922C586.467 351.193 585.152 352.463 583.848 353.723C582.655 354.883 581.252 355.955 580.445 357.435C580.202 357.888 580.699 358.396 581.152 358.142C582.622 357.325 583.682 355.91 584.82 354.706C586.08 353.38 587.328 352.055 588.588 350.729C589.096 350.198 588.312 349.414 587.781 349.922Z" fill="#312A3C"/>
<path d="M656.435 267.314H644.315V282.98H656.435V267.314Z" fill="#AB693A"/>
<path d="M668.5 310.491C662.07 305.011 658.556 296.835 658.556 288.372V272.871H654.999V288.372C654.999 298.083 659.075 307.132 666.191 313.198C671.637 317.838 674.764 324.599 674.764 331.748V433.525C672.764 434.939 664.18 437.314 650.38 437.314C636.581 437.314 628.008 434.95 625.997 433.525V331.748C625.997 324.599 629.123 317.838 634.57 313.198C641.685 307.132 645.762 298.083 645.762 288.372V272.871H642.205V288.372C642.205 296.824 638.691 305 632.261 310.491C626.251 315.617 622.439 323.241 622.439 331.759V434.276C622.439 437.922 634.946 440.872 650.38 440.872C665.815 440.872 678.322 437.922 678.322 434.276V331.759C678.322 323.241 674.51 315.617 668.5 310.491Z" fill="#F5FBEF"/>
<path opacity="0.3" d="M674.753 331.759V433.536C672.753 434.95 664.18 437.314 650.38 437.314C636.581 437.314 628.007 434.95 625.997 433.536V331.759C625.997 324.611 629.123 317.86 634.57 313.209C641.674 307.143 645.762 298.095 645.762 288.383V272.882H654.998V288.383C654.998 298.095 659.075 307.143 666.19 313.209C671.637 317.849 674.753 324.611 674.753 331.759Z" fill="#F5FBEF"/>
<path d="M674.753 365.268V433.536C672.753 434.95 664.18 437.314 650.38 437.314C636.581 437.314 628.007 434.95 625.997 433.536V365.268H674.753Z" fill="#92AD94"/>
<path d="M658.777 275.147H641.973C640.713 275.147 639.697 274.131 639.697 272.871C639.697 271.612 640.713 270.595 641.973 270.595H658.777C660.037 270.595 661.053 271.612 661.053 272.871C661.053 274.131 660.037 275.147 658.777 275.147Z" fill="#F5FBEF"/>
<path d="M631.113 324.644C630.317 335.405 629.72 346.144 629.599 356.938C629.488 366.815 628.538 377.543 630.483 387.265C630.648 388.072 631.72 387.774 631.809 387.089C633.057 376.946 631.654 366.086 631.632 355.866C631.61 345.459 631.632 335.051 631.853 324.655C631.853 324.18 631.157 324.191 631.124 324.655L631.113 324.644Z" fill="#312A3C"/>
<path d="M630.151 397.22C629.743 404.799 628.649 413.229 630.207 420.709C630.361 421.46 631.345 421.184 631.422 420.543C632.372 412.964 631.135 404.865 631.079 397.22C631.079 396.612 630.185 396.623 630.151 397.22Z" fill="#312A3C"/>
<path d="M672.742 328.621C671.671 330.311 670.632 331.991 669.616 333.714C668.699 335.272 667.395 336.719 666.831 338.454C666.566 339.261 667.583 339.647 668.135 339.205C669.616 338.012 670.466 335.968 671.295 334.278C672.179 332.466 672.676 330.731 673.041 328.743C673.074 328.577 672.853 328.466 672.753 328.621H672.742Z" fill="#312A3C"/>
<path d="M672.588 336.377C671.494 338.244 670.412 340.1 669.318 341.967C668.478 343.393 666.954 345.061 667.163 346.773C667.219 347.215 667.605 347.458 668.025 347.271C669.583 346.53 670.18 344.376 670.942 342.918C671.936 340.995 672.942 339.084 673.936 337.161C674.4 336.278 673.107 335.504 672.599 336.377H672.588Z" fill="#312A3C"/>
<path d="M671.781 349.337C670.036 352.938 667.483 356.054 665.649 359.578C665.307 360.23 666.091 360.772 666.622 360.33C669.837 357.678 671.384 353.513 672.345 349.58C672.422 349.248 671.936 349.016 671.781 349.337Z" fill="#312A3C"/>
<path d="M671.262 387.42C669.969 389.663 668.666 391.906 667.373 394.149C666.533 395.596 664.898 397.176 665.716 398.866C665.815 399.065 666.047 399.109 666.246 399.076C668.036 398.833 668.599 396.237 669.318 394.811C670.411 392.613 671.516 390.414 672.61 388.205C673.052 387.321 671.77 386.547 671.273 387.42H671.262Z" fill="#312A3C"/>
<path d="M670.6 397.463C669.473 399.076 668.313 400.678 667.307 402.369C666.368 403.948 665.573 404.987 665.606 406.843C665.606 407.152 665.959 407.362 666.224 407.197C667.804 406.235 668.246 405.064 669.086 403.407C669.981 401.639 670.721 399.805 671.495 397.982C671.749 397.375 670.986 396.9 670.6 397.463Z" fill="#312A3C"/>
<path d="M670.334 407.616C669.605 409.815 668.644 411.914 667.384 413.859C666.456 415.295 664.887 416.555 664.677 418.3C664.633 418.643 665.042 418.886 665.329 418.797C667.174 418.267 668.135 415.947 668.953 414.367C670.014 412.312 670.787 410.135 671.328 407.893C671.483 407.241 670.544 406.987 670.334 407.616Z" fill="#312A3C"/>
<path d="M220.326 407.34C218.591 406.191 218.569 403.507 219.022 401.474C220.304 395.695 226.745 392.889 232.401 391.155C245.682 387.089 259.602 384.039 273.391 385.641C287.19 387.243 300.945 394.16 307.95 406.147C308.381 406.887 308.801 407.694 308.79 408.556C308.778 409.716 307.994 410.721 307.132 411.506C303.011 415.284 296.968 415.903 291.377 416.223C281.644 416.776 271.888 417.008 262.144 416.919C247.803 416.787 229.275 413.251 220.326 407.34Z" fill="#F5FBEF"/>
<path d="M235.793 403.529C235.937 403.562 236.092 403.606 236.246 403.606C236.489 403.606 236.732 403.507 236.898 403.341C237.053 403.186 237.174 402.921 237.163 402.689C237.141 402.181 236.755 401.772 236.235 401.761C236.081 401.761 235.926 401.794 235.782 401.838C235.418 401.927 235.119 402.313 235.13 402.689C235.153 403.076 235.396 403.44 235.782 403.54L235.793 403.529Z" fill="#312A3C"/>
<path d="M249.007 398.082C249.416 398.082 249.847 397.905 250.145 397.607C250.3 397.463 250.41 397.286 250.477 397.087C250.576 396.9 250.62 396.69 250.62 396.469C250.598 396.049 250.465 395.618 250.145 395.331C249.836 395.043 249.449 394.856 249.007 394.856C248.598 394.856 248.167 395.032 247.869 395.331C247.714 395.474 247.604 395.651 247.538 395.85C247.438 396.038 247.394 396.248 247.394 396.469C247.416 396.889 247.549 397.319 247.869 397.607C248.178 397.894 248.565 398.082 249.007 398.082Z" fill="#312A3C"/>
<path d="M264.762 403.009L265.171 402.744C265.635 402.435 265.635 401.794 265.171 401.496L264.762 401.231C264.453 401.032 264.022 401.054 263.712 401.231C263.392 401.418 263.204 401.761 263.204 402.125C263.204 402.49 263.403 402.833 263.712 403.02C264.022 403.197 264.453 403.219 264.762 403.02V403.009Z" fill="#312A3C"/>
<path d="M275.148 390.812C275.313 391.088 275.479 391.375 275.645 391.652C275.844 391.983 276.341 391.983 276.54 391.652C276.705 391.375 276.871 391.088 277.037 390.812C277.457 390.105 276.926 389.177 276.098 389.177C275.269 389.177 274.739 390.105 275.159 390.812H275.148Z" fill="#312A3C"/>
<path d="M288.14 398.347C288.317 398.314 288.494 398.281 288.682 398.248C288.958 398.192 289.19 397.872 289.179 397.596C289.168 397.319 288.98 396.999 288.682 396.944C288.505 396.911 288.328 396.878 288.14 396.844C287.875 396.789 287.577 396.833 287.389 397.043C287.245 397.198 287.157 397.386 287.157 397.596C287.157 397.795 287.245 398.004 287.389 398.148C287.599 398.358 287.864 398.402 288.14 398.347Z" fill="#312A3C"/>
<path d="M287.765 408.114L287.886 408.423C288.461 409.859 290.814 409.23 290.229 407.771L290.107 407.462C289.698 406.434 288.417 406.434 288.008 407.462L287.886 407.771C287.312 409.23 289.665 409.859 290.229 408.423L290.35 408.114C291.201 405.959 286.892 405.948 287.754 408.114H287.765Z" fill="#312A3C"/>
<path d="M271.015 406.28C272.01 406.28 272.021 404.722 271.015 404.722C270.01 404.722 270.01 406.28 271.015 406.28Z" fill="#312A3C"/>
<path d="M256.907 395.198C258.177 395.198 258.177 393.232 256.907 393.232C255.636 393.232 255.636 395.198 256.907 395.198Z" fill="#312A3C"/>
<path d="M237.163 395.231L236.644 395.276C236.478 395.276 236.324 395.309 236.18 395.375C236.036 395.419 235.904 395.508 235.793 395.618C235.583 395.828 235.429 396.17 235.44 396.458C235.451 396.767 235.55 397.087 235.793 397.297L236.036 397.485C236.224 397.596 236.423 397.651 236.644 397.651C236.821 397.662 236.987 397.684 237.163 397.695C237.462 397.728 237.837 397.54 238.047 397.331C238.268 397.11 238.423 396.756 238.412 396.447C238.401 396.126 238.29 395.795 238.047 395.563C237.815 395.353 237.495 395.165 237.163 395.198V395.231Z" fill="#312A3C"/>
<path d="M246.367 405.76L246.521 406.28C246.621 406.622 246.952 406.909 247.317 406.887C247.681 406.876 248.013 406.644 248.112 406.28L248.267 405.76C248.444 405.142 247.947 404.512 247.317 404.512C246.687 404.512 246.19 405.142 246.367 405.76Z" fill="#312A3C"/>
<path d="M226.446 403.606C227.651 403.606 227.651 401.739 226.446 401.739C225.242 401.739 225.242 403.606 226.446 403.606Z" fill="#312A3C"/>
<path d="M63.3511 263.414H51.2532V276.064H63.3511V263.414Z" fill="#E89666"/>
<path opacity="0.3" d="M86.0552 384.205C79.5035 393.198 69.8252 397.761 57.2964 397.761C44.7676 397.761 35.0893 393.198 28.5377 384.205C19.6659 372.03 18.9809 355.137 21.3342 345.956C21.4667 345.448 21.5993 344.961 21.754 344.497C23.6653 338.553 32.7029 328.124 39.9727 319.727C48.8334 309.485 53.1091 304.414 53.2085 300.923V271.048H61.3953V300.923C61.4837 304.403 65.7594 309.485 74.6202 319.727C81.89 328.113 90.9275 338.553 92.8389 344.497C92.9935 344.961 93.1261 345.448 93.2587 345.956C95.612 355.137 94.927 372.03 86.0552 384.205Z" fill="#F5FBEF"/>
<path d="M86.0552 384.205C79.5035 393.198 69.8252 397.761 57.2964 397.761C44.7676 397.761 35.0893 393.198 28.5377 384.205C19.6659 372.03 18.9809 355.137 21.3342 345.956H93.2587C95.612 355.137 94.927 372.03 86.0552 384.205Z" fill="#E1B64E"/>
<path d="M38.6802 399.198C38.6802 401.352 47.0107 403.098 57.2856 403.098C67.5605 403.098 75.891 401.352 75.891 399.198C75.891 397.043 38.6692 397.043 38.6692 399.198H38.6802Z" fill="#F5FBEF"/>
<path d="M64.0801 270.01H50.5017C49.4853 270.01 48.6677 269.192 48.6677 268.176C48.6677 267.159 49.4853 266.342 50.5017 266.342H64.0801C65.0966 266.342 65.9141 267.159 65.9141 268.176C65.9141 269.192 65.0966 270.01 64.0801 270.01Z" fill="#F5FBEF"/>
<path d="M95.5791 343.603C91.7122 331.571 64.4339 306.524 64.2571 300.823L64.2792 268.176H50.3362L50.3583 300.823C50.1816 306.524 22.9033 331.571 19.0364 343.603C13.7774 359.943 19.0364 400.623 57.3188 400.623C95.6012 400.623 100.86 359.943 95.6012 343.603H95.5791ZM85.2821 382.868C78.9072 391.619 69.483 396.06 57.2967 396.06C45.1104 396.06 35.6862 391.619 29.3113 382.868C20.1964 370.362 19.9644 352.74 22.7044 344.221C24.5605 338.443 33.366 328.279 40.437 320.114C49.0657 310.148 53.2199 305.21 53.3303 301.818V271.048H61.2962V301.818C61.3846 305.21 65.5387 310.159 74.1675 320.114C81.2384 328.279 90.0439 338.443 91.9 344.221C94.64 352.74 94.408 370.362 85.2931 382.868H85.2821Z" fill="#F5FBEF"/>
<path d="M67.6378 308.679L64.1907 306.314C76.5538 288.295 74.9739 283.754 74.2005 282.793C72.7642 281.014 67.3505 282.152 64.1355 283.478L62.5334 279.622C63.6383 279.158 73.4713 275.28 77.4376 280.174C81.0504 284.627 77.9238 293.686 67.6267 308.69L67.6378 308.679Z" fill="#F5FBEF"/>
<path d="M47.3311 317.672C39.0338 327.406 30.5156 339.371 27.7204 352.066C27.4994 353.049 28.9246 353.767 29.4218 352.784C35.4321 340.918 40.1387 329.428 48.5685 318.91C49.2646 318.037 48.0714 316.788 47.3201 317.661L47.3311 317.672Z" fill="#252527"/>
<path d="M27.7202 360.418C28.4162 366.064 30.4823 373.256 34.5702 377.432C35.4982 378.372 36.7467 377.178 36.2826 376.118C35.1778 373.588 33.399 371.345 32.1948 368.837C30.869 366.086 29.7531 363.169 28.7366 360.285C28.5599 359.777 27.6429 359.81 27.7202 360.418Z" fill="#252527"/>
<path d="M76.8078 330.433C76.7968 332.587 76.4874 334.896 75.935 336.985C75.4157 338.973 74.2446 340.619 73.6148 342.542C73.3055 343.503 74.576 344.155 75.261 343.503C78.5203 340.332 78.6971 334.399 77.4155 330.356C77.316 330.024 76.8078 330.079 76.8078 330.433Z" fill="#252527"/>
<path d="M81.857 339.493C81.9896 341.769 81.6802 343.989 80.7632 346.088C80.1003 347.624 78.5425 349.038 78.5425 350.751C78.5425 351.182 78.9402 351.425 79.3269 351.347C81.3377 350.939 82.2437 348.166 82.785 346.42C83.5142 344.089 83.6137 341.702 83.2822 339.305C83.1717 338.498 81.8128 338.686 81.857 339.493Z" fill="#252527"/>
<path d="M86.8728 347.337C86 349.767 85.0057 352.132 83.8345 354.43C82.8844 356.297 81.6912 358.01 81.0614 360.02C80.8515 360.705 81.7796 361.258 82.2767 360.727C85.3592 357.424 86.7181 351.878 87.8672 347.602C88.0439 346.95 87.0938 346.707 86.8728 347.326V347.337Z" fill="#252527"/>
<path d="M86.652 359.114C86.1327 361.291 85.3151 363.357 84.1108 365.235C83.1496 366.738 81.3267 368.019 80.9731 369.798C80.8958 370.163 81.183 370.439 81.5476 370.373C83.4811 370.019 84.6522 367.644 85.5029 366.042C86.6078 363.954 87.3038 361.711 87.6573 359.38C87.7568 358.739 86.8177 358.44 86.663 359.103L86.652 359.114Z" fill="#252527"/>
<path d="M474.404 413.096C475.785 408.732 488.523 402.578 500.632 406.401C512.741 410.224 516.332 418.057 513.957 425.581C511.581 433.105 504.146 437.458 492.037 433.635C479.928 429.813 473.023 417.461 474.404 413.096Z" fill="#F5FBEF"/>
<path d="M483.264 412.29C486.612 411.384 490.015 411.207 493.451 411.649C495.882 411.958 498.169 413.284 500.61 412.875C500.986 412.809 501.207 412.268 500.986 411.958C499.262 409.572 495.793 409.451 493.031 409.351C489.507 409.23 486.181 410.202 483.032 411.726C482.712 411.881 482.944 412.389 483.276 412.29H483.264Z" fill="#312A3C"/>
<path d="M504.047 415.516C505.041 416.267 506.057 416.974 506.974 417.814C507.77 418.532 508.554 419.681 509.593 419.991C510.156 420.156 510.908 419.681 510.841 419.04C510.687 417.693 509.306 416.621 508.179 415.98C506.952 415.284 505.649 414.831 504.234 414.853C503.848 414.853 503.781 415.317 504.047 415.527V415.516Z" fill="#312A3C"/>
<path d="M560.238 407.55C561.862 411.826 555.686 424.554 543.809 429.072C531.932 433.591 524.265 429.669 521.459 422.3C518.652 414.93 521.79 406.898 533.656 402.391C545.533 397.872 558.603 403.286 560.227 407.561L560.238 407.55Z" fill="#F5FBEF"/>
<path d="M556.228 407.208C550.549 404.048 539.666 403.286 534.684 408.18C534.242 408.611 534.717 409.218 535.236 409.13C538.771 408.567 541.777 406.832 545.445 406.578C549.035 406.324 552.46 407.086 555.952 407.871C556.338 407.959 556.603 407.418 556.228 407.208Z" fill="#312A3C"/>
<path d="M531.502 410.876C530.154 411.55 528.894 412.334 527.712 413.262C526.718 414.036 525.37 414.975 524.961 416.201C524.773 416.764 525.458 417.251 525.955 416.963C526.994 416.345 527.679 415.063 528.541 414.201C529.557 413.185 530.673 412.301 531.877 411.505C532.264 411.251 531.932 410.666 531.513 410.876H531.502Z" fill="#312A3C"/>
</svg>
