<svg width="539" height="539" viewBox="0 0 539 539" fill="none" xmlns="http://www.w3.org/2000/svg">
<path d="M156.281 144.914C156.281 144.914 158.346 183.422 143.153 211.031C184.415 259.038 209.002 259.213 231.418 223.622C230.205 199.981 234.627 170.878 234.627 170.878L156.281 144.914Z" fill="#993114"/>
<path d="M236.529 192.827L161.8 163.526C161.8 163.526 166.258 209.934 199.958 217.963C210.355 220.436 223.985 212.408 236.529 192.827Z" fill="#5C0606"/>
<path d="M215.42 222.432L211.044 244.521L229.831 243.179L215.42 222.432Z" fill="#C2BB30"/>
<path d="M194.299 223.634L196.318 250.904L174.683 244.521L194.299 223.634Z" fill="#C2BB30"/>
<path d="M287.453 545.093H96.4419L81.0271 220.075L131.041 209.071H131.052L135.93 207.997L138.322 207.472L143.468 210.448L187.799 236.015L190.553 237.613C190.553 237.613 190.658 237.718 190.891 237.893C192.934 239.527 204.007 247.439 219.212 238.862C219.399 238.769 219.609 238.64 219.807 238.523C220.298 238.255 220.776 237.94 221.266 237.613C223.682 236.061 226.19 234.066 228.769 231.58C228.921 231.44 229.049 231.312 229.201 231.16C230.146 229.62 230.496 227.379 230.531 224.999C230.531 224.497 230.531 223.995 230.52 223.482C230.286 218.103 228.746 212.513 228.746 212.513C228.746 212.513 229.621 212.711 231.208 213.108C231.64 213.202 232.13 213.33 232.667 213.447L237.498 214.613C237.836 214.695 238.198 214.777 238.571 214.87H238.583L239.89 215.197C242.399 215.792 293.661 245.49 294.968 247.229C297.033 249.982 287.453 545.082 287.453 545.082V545.093Z" fill="#F5FBEF"/>
<path d="M186.096 240.647L174.403 270.392L162.547 300.078L162.652 299.448C164.193 319.892 165.535 340.359 166.923 360.815L168.989 391.505L170.914 422.206L172.839 452.908L174.613 483.621C175.815 504.088 176.9 524.568 177.892 545.058L176.609 545.14C174.94 524.696 173.365 504.252 171.894 483.796L169.677 453.118L167.6 422.428L165.523 391.738L163.586 361.037C162.314 340.57 160.984 320.114 159.863 299.634L159.84 299.296L159.957 299.004L172.349 269.54L184.905 240.145L186.096 240.636V240.647Z" fill="#00241E"/>
<path d="M225.817 236.26L246.086 267.486L266.204 298.806L266.437 299.179L266.414 299.646C265.387 320.125 264.162 340.581 262.995 361.049L261.209 391.75L259.284 422.44L257.359 453.129L255.293 483.807C253.928 504.263 252.458 524.708 250.882 545.152L249.599 545.07C250.485 524.591 251.477 504.112 252.574 483.644L254.196 452.943L255.97 422.241L257.744 391.54L259.657 360.85C260.941 340.394 262.19 319.927 263.625 299.483L263.835 300.323L244.208 268.7L224.732 236.971L225.817 236.283V236.26Z" fill="#00241E"/>
<path d="M172.513 307.709C175.129 307.709 177.25 305.588 177.25 302.972C177.25 300.355 175.129 298.234 172.513 298.234C169.896 298.234 167.775 300.355 167.775 302.972C167.775 305.588 169.896 307.709 172.513 307.709Z" fill="#00241E"/>
<path d="M175.897 354.211C178.513 354.211 180.634 352.09 180.634 349.473C180.634 346.856 178.513 344.735 175.897 344.735C173.28 344.735 171.159 346.856 171.159 349.473C171.159 352.09 173.28 354.211 175.897 354.211Z" fill="#00241E"/>
<path d="M184.018 395.974C184.018 398.588 181.895 400.712 179.281 400.712C176.667 400.712 174.543 398.588 174.543 395.974C174.543 393.36 176.667 391.237 179.281 391.237C181.895 391.237 184.018 393.36 184.018 395.974Z" fill="#00241E"/>
<path d="M182.676 447.225C185.293 447.225 187.414 445.104 187.414 442.487C187.414 439.871 185.293 437.75 182.676 437.75C180.06 437.75 177.939 439.871 177.939 442.487C177.939 445.104 180.06 447.225 182.676 447.225Z" fill="#00241E"/>
<path d="M186.061 493.726C188.677 493.726 190.798 491.605 190.798 488.988C190.798 486.372 188.677 484.251 186.061 484.251C183.444 484.251 181.323 486.372 181.323 488.988C181.323 491.605 183.444 493.726 186.061 493.726Z" fill="#00241E"/>
<path d="M257.184 307.709C259.8 307.709 261.921 305.588 261.921 302.972C261.921 300.355 259.8 298.234 257.184 298.234C254.567 298.234 252.446 300.355 252.446 302.972C252.446 305.588 254.567 307.709 257.184 307.709Z" fill="#00241E"/>
<path d="M253.8 354.211C256.416 354.211 258.537 352.09 258.537 349.473C258.537 346.856 256.416 344.735 253.8 344.735C251.183 344.735 249.062 346.856 249.062 349.473C249.062 352.09 251.183 354.211 253.8 354.211Z" fill="#00241E"/>
<path d="M250.404 400.712C253.02 400.712 255.142 398.591 255.142 395.974C255.142 393.358 253.02 391.237 250.404 391.237C247.787 391.237 245.666 393.358 245.666 395.974C245.666 398.591 247.787 400.712 250.404 400.712Z" fill="#00241E"/>
<path d="M242.294 442.487C242.294 445.101 244.418 447.225 247.031 447.225C249.645 447.225 251.769 445.101 251.769 442.487C251.769 439.873 249.645 437.75 247.031 437.75C244.418 437.75 242.294 439.873 242.294 442.487Z" fill="#00241E"/>
<path d="M243.636 493.726C246.252 493.726 248.373 491.605 248.373 488.988C248.373 486.372 246.252 484.251 243.636 484.251C241.019 484.251 238.898 486.372 238.898 488.988C238.898 491.605 241.019 493.726 243.636 493.726Z" fill="#00241E"/>
<path d="M148.451 192.174L194.299 223.634L181.533 247.975L135.335 207.472L148.451 192.174Z" fill="#F5FBEF"/>
<path d="M135.755 206.982C139.909 210.016 143.912 213.202 147.868 216.457C151.835 219.701 155.709 223.039 159.583 226.399C163.423 229.795 167.238 233.202 170.972 236.703C174.718 240.204 178.406 243.751 181.953 247.474L181.101 248.442C176.947 245.408 172.945 242.223 168.989 238.967C165.021 235.723 161.147 232.386 157.273 229.025C153.434 225.629 149.618 222.222 145.884 218.721C142.138 215.22 138.451 211.673 134.903 207.951L135.755 206.982Z" fill="#00241E"/>
<path d="M232.678 205.978L215.42 222.432L225.269 247.975L242.796 221.277L232.678 205.978Z" fill="#F5FBEF"/>
<path d="M243.344 221.638C242.189 224.065 240.893 226.399 239.587 228.721C238.256 231.032 236.879 233.307 235.467 235.571C234.044 237.812 232.597 240.052 231.091 242.246C229.598 244.451 228.058 246.622 226.471 248.769L224.93 250.858L223.973 248.606C222.526 245.175 221.103 241.732 219.854 238.197L221.021 237.637C222.993 240.822 224.79 244.078 226.564 247.357L224.067 247.194C225.409 244.883 226.786 242.619 228.221 240.367C229.644 238.115 231.115 235.898 232.608 233.704C234.114 231.51 235.666 229.34 237.253 227.204C238.863 225.081 240.497 222.969 242.259 220.938L243.332 221.65L243.344 221.638Z" fill="#00241E"/>
<path d="M149.49 94.9588C149.49 94.9588 144.367 98.8796 145.814 123.198C147.553 152.534 168.23 159.034 168.23 159.034L176.177 81.1893L149.49 94.9588Z" fill="#00241E"/>
<path d="M267.312 126.395C266.029 133.385 258.876 139.173 258.385 147.411C256.997 170.89 242.947 207.472 206.867 208.347C175.838 209.106 154.892 160.037 154.892 126.395C154.892 92.7534 161.976 46.0421 217.719 54.8289C262.225 61.842 278.176 67.1631 267.301 126.395H267.312Z" fill="#993114"/>
<path d="M215.373 114.691C213.063 113.384 210.694 112.404 208.243 111.739C205.793 111.097 203.284 110.735 200.764 110.747C198.255 110.712 195.734 111.05 193.295 111.692C190.857 112.346 188.499 113.349 186.201 114.68L185.372 113.688C187.204 111.541 189.666 109.895 192.339 108.833C195.011 107.748 197.905 107.246 200.787 107.235C203.669 107.27 206.551 107.795 209.212 108.88C211.873 109.942 214.335 111.552 216.202 113.688L215.385 114.68L215.373 114.691Z" fill="#00241E"/>
<path d="M186.737 126.337C187.531 124.155 189.2 122.253 191.358 121.168C193.517 120.036 196.084 119.861 198.453 120.304C200.845 120.747 203.086 121.833 205.058 123.233C207.007 124.668 208.652 126.43 210.146 128.309L207.252 130.281C206.131 128.507 204.86 126.815 203.319 125.392C201.767 124.015 199.97 122.895 197.986 122.288C196.026 121.693 193.844 121.599 191.883 122.369C189.935 123.093 188.243 124.61 187.274 126.57L186.737 126.337Z" fill="#00241E"/>
<path d="M239.738 122.241C241.804 121.786 244.009 121.903 246.11 122.474C248.222 123.023 250.205 124.073 251.921 125.462C253.613 126.874 255.013 128.612 255.97 130.561C256.938 132.487 257.522 134.575 257.615 136.676L256.367 137.014C255.398 135.264 254.476 133.618 253.379 132.125C252.283 130.643 251.081 129.301 249.68 128.181C248.315 127.025 246.763 126.104 245.106 125.333C243.437 124.575 241.652 124.026 239.727 123.548V122.253L239.738 122.241Z" fill="#00241E"/>
<path d="M251.734 144.902C251.734 142.93 250.964 141.063 249.68 139.71C248.42 138.321 246.635 137.551 244.826 137.248C243.006 136.944 241.127 137.143 239.342 137.633C237.545 138.169 235.864 139.021 234.266 140.013L232.55 136.956C234.522 136.046 236.576 135.299 238.746 134.925C240.917 134.599 243.169 134.634 245.293 135.252C247.405 135.871 249.4 137.072 250.684 138.858C251.991 140.62 252.551 142.849 252.306 144.926L251.722 144.891L251.734 144.902Z" fill="#00241E"/>
<path d="M226.12 132.883C225.619 134.435 225.292 136.081 225.082 137.703C224.872 139.336 224.802 140.97 224.907 142.592C225.012 144.202 225.292 145.801 225.794 147.295C226.284 148.788 227.019 150.177 227.952 151.39L228.244 151.776L228.139 152.324C228.011 153.001 227.719 153.701 227.276 154.273C226.832 154.845 226.272 155.288 225.7 155.626C224.545 156.28 223.355 156.548 222.2 156.712C221.044 156.863 219.913 156.898 218.792 156.863C217.66 156.828 216.598 156.735 215.42 156.548L216.155 153.129C217.042 153.351 218.057 153.538 219.026 153.654C219.994 153.771 220.974 153.829 221.908 153.783C222.83 153.736 223.752 153.596 224.452 153.269C225.164 152.942 225.607 152.499 225.805 151.822L225.992 152.756C225.024 151.215 224.335 149.547 223.927 147.82C223.518 146.104 223.378 144.342 223.413 142.627C223.46 140.9 223.682 139.196 224.055 137.539C224.428 135.882 224.907 134.26 225.572 132.685L226.109 132.895L226.12 132.883Z" fill="#00241E"/>
<path d="M202.444 115.321C204.043 115.788 205.583 116.383 207.1 117.142C208.594 117.912 210.087 118.834 211.324 120.304L209.387 121.611C208.745 120.397 207.602 119.265 206.365 118.297C205.116 117.317 203.739 116.442 202.304 115.695L202.444 115.333V115.321Z" fill="#00241E"/>
<path d="M243.671 130.048C241.967 129.698 240.182 129.721 238.525 130.083C236.856 130.409 235.316 131.133 233.997 132.066L232.819 130.048C234.592 129.219 236.494 128.752 238.373 128.729C240.252 128.682 242.096 128.998 243.799 129.686L243.671 130.048Z" fill="#00241E"/>
<path d="M229.399 171.73C229.399 171.73 229.388 171.776 229.388 171.788C228.291 175.802 217.392 183.177 207.135 180.4C196.889 177.611 191.195 165.743 192.292 161.718C192.502 160.947 193.995 160.691 196.283 160.796C196.434 160.796 196.586 160.807 196.738 160.819C205.478 161.426 224.3 166.817 228.548 170.329C229.178 170.843 229.469 171.31 229.399 171.718V171.73Z" fill="#00241E"/>
<path d="M228.548 170.329C227.591 171.531 226.517 172.558 225.07 173.445C210.811 172.138 196.283 164.997 196.283 164.997V160.796C196.434 160.796 196.586 160.807 196.738 160.819C205.478 161.426 224.3 166.817 228.548 170.329Z" fill="#F5FBEF"/>
<path d="M172.478 120.958C172.478 120.958 176.165 105.123 178.581 98.1095C185.769 90.4662 197.846 88.9142 203.576 89.276C210.215 89.6844 235.257 121.681 268.596 108.997C268.596 108.997 265.865 69.2985 218.057 69.1118C170.249 68.9251 161.24 86.102 163.598 98.833C164.088 101.494 162.874 119.23 164.321 120.958C165.955 122.895 172.478 120.958 172.478 120.958Z" fill="#00241E"/>
<path d="M118.497 108.868C110.818 103.477 107.014 93.1384 109.371 84.0599C111.729 74.9813 120.084 67.7932 129.407 66.813C125.836 59.3098 126.455 49.9628 130.971 42.9964C135.498 36.0183 143.772 31.6541 152.08 31.8525C154.764 23.0656 161.439 15.5741 169.864 11.8867C178.289 8.21089 188.313 8.40928 196.586 12.4118C196.528 8.95773 198.768 5.77207 201.662 3.88168C204.556 2.00296 208.033 1.22112 211.441 0.73102C231.36 -2.16291 252.388 3.63661 268.001 16.3326C274.897 21.9337 281.187 30.3821 279.04 39.0173C296.053 44.6067 291.969 68.7151 289.367 74.3279C286.17 81.2243 277.138 84.725 269.903 87.0705C264.488 88.8209 258.584 87.1055 253.344 84.8884C242.737 80.4191 233.005 73.9078 222.071 70.2904C206.551 65.1443 189.036 66.2996 174.333 73.441C162.547 79.1589 152.115 88.9025 146.094 100.607C143.783 105.088 143.632 109.697 138.754 111.926C132.651 114.715 123.689 112.521 118.473 108.868H118.497Z" fill="#F5FBEF"/>
<path d="M243.741 85.3435C256.763 89.0309 268.479 106.57 268.397 120.106C274.197 113.244 276.402 91.2014 277.091 82.2395C277.091 82.2395 274.734 76.79 267.231 69.6836C250.345 53.7086 226.587 45.2602 203.412 46.9872C180.238 48.7143 157.996 60.5934 143.667 78.8905C139.991 83.5931 136.712 88.9726 136.374 94.9355C135.895 103.092 140.889 110.432 145.662 117.06C141.578 111.401 185.967 68.9834 243.752 85.3435H243.741Z" fill="#F5FBEF"/>
<path d="M145.359 104.936C145.149 101.435 144.974 97.9461 144.88 94.4337C144.834 92.6833 144.787 90.9213 144.775 89.1593C144.775 88.2724 144.775 87.3973 144.799 86.4987L144.834 85.8103C144.845 85.5769 144.834 85.3785 144.915 85.0284C144.974 84.69 145.055 84.4683 145.149 84.2116C145.23 83.9549 145.335 83.7449 145.429 83.5231C147.074 80.0924 149.42 77.3852 151.882 74.7597C154.391 72.1925 157.144 69.882 160.062 67.8049C165.896 63.639 172.443 60.5467 179.234 58.3529C182.63 57.2327 186.119 56.4159 189.62 55.7857C193.132 55.1206 196.679 54.7589 200.227 54.5138C207.333 54.1404 214.486 54.4555 221.464 55.459C223.215 55.704 224.965 55.8674 226.715 56.1825L231.932 57.1393C233.67 57.4194 235.397 57.8512 237.113 58.2712C238.828 58.7263 240.567 59.0531 242.247 59.6015C249.062 61.5036 255.701 64.1875 261.898 67.6765C263.438 68.575 264.92 69.5553 266.402 70.5355C267.837 71.5973 269.296 72.6242 270.626 73.8145C273.322 76.16 275.842 78.6921 277.663 81.9361L276.519 82.5313C275.656 81.1777 274.5 79.8357 273.287 78.6571C272.703 78.0387 272.073 77.4669 271.42 76.9068L270.463 76.0549L269.448 75.2731C268.117 74.1879 266.67 73.266 265.247 72.3091C263.777 71.4223 262.295 70.5471 260.766 69.7536C257.709 68.1783 254.558 66.7897 251.326 65.5994L246.436 63.9191L241.454 62.5071C234.756 60.8618 227.964 59.4848 221.056 58.808C214.183 57.8862 207.298 57.6061 200.437 58.0029C186.761 58.7847 173.143 62.6238 161.765 70.2787C158.93 72.1808 156.269 74.3396 153.807 76.6967C151.403 79.0539 149.046 81.6794 147.564 84.5267C147.482 84.7017 147.377 84.8767 147.331 85.0401C147.261 85.2035 147.191 85.3785 147.179 85.4835C147.144 85.5652 147.121 85.7986 147.097 86.0087L147.039 86.6271C146.969 87.479 146.922 88.3425 146.887 89.206C146.817 90.933 146.771 92.6834 146.747 94.4221L146.642 104.901L145.359 104.936Z" fill="#00241E"/>
<path d="M150.248 78.7621C148.848 78.5287 147.553 78.0853 146.281 77.5952C145.02 77.0935 143.795 76.5217 142.605 75.8799C141.415 75.2381 140.271 74.5263 139.163 73.7444C138.066 72.9509 136.98 72.0991 136.024 71.0489L136.642 69.917C138.042 70.1504 139.338 70.5938 140.609 71.0839C141.87 71.5857 143.095 72.1574 144.285 72.7992C145.475 73.441 146.619 74.1528 147.728 74.9347C148.825 75.7282 149.91 76.58 150.867 77.6302L150.248 78.7621Z" fill="#00241E"/>
<path d="M163.002 67.6065C161.696 66.1129 160.575 64.5142 159.525 62.8689C158.463 61.2352 157.518 59.5548 156.596 57.8512C155.709 56.1241 154.846 54.3971 154.099 52.6001C153.34 50.8147 152.64 48.9943 152.139 47.0573L153.282 46.4505C154.589 47.9441 155.709 49.5428 156.759 51.1881C157.821 52.8218 158.767 54.5021 159.688 56.2058C160.575 57.9328 161.439 59.6599 162.186 61.4569C162.944 63.2423 163.644 65.0626 164.146 66.9997L163.002 67.6065Z" fill="#00241E"/>
<path d="M166.503 64.5142C165.908 63.394 165.558 62.2504 165.243 61.1068C164.951 59.9516 164.741 58.7964 164.613 57.6295C164.484 56.4625 164.426 55.284 164.461 54.0937C164.508 52.9035 164.601 51.7132 164.928 50.488L166.211 50.3479C166.807 51.4682 167.157 52.6117 167.472 53.7553C167.763 54.9105 167.973 56.0658 168.102 57.2327C168.23 58.3996 168.289 59.5782 168.254 60.7684C168.207 61.9587 168.113 63.1489 167.787 64.3742L166.503 64.5142Z" fill="#00241E"/>
<path d="M192.362 56.2408C191.417 54.3621 190.681 52.425 190.028 50.4763C189.363 48.5276 188.814 46.5555 188.289 44.5601C187.811 42.5647 187.356 40.5576 187.029 38.5272C186.691 36.4968 186.422 34.4547 186.364 32.3425L187.612 32.0275C188.558 33.9062 189.293 35.8433 189.946 37.792C190.611 39.7408 191.16 41.7128 191.685 43.7083C192.163 45.7037 192.619 47.7107 192.945 49.7411C193.284 51.7716 193.552 53.8136 193.61 55.9257L192.362 56.2408Z" fill="#00241E"/>
<path d="M197.111 54.7238C196.761 53.6269 196.633 52.5651 196.563 51.5032C196.504 50.4413 196.539 49.3911 196.644 48.3408C196.749 47.2906 196.936 46.2521 197.205 45.2252C197.485 44.1983 197.823 43.1714 198.383 42.1796L199.667 42.3079C200.017 43.4048 200.145 44.4667 200.215 45.5286C200.274 46.5905 200.239 47.6407 200.134 48.6909C200.028 49.7411 199.842 50.7797 199.573 51.8066C199.293 52.8334 198.955 53.8603 198.395 54.8522L197.111 54.7238Z" fill="#00241E"/>
<path d="M220.263 56.8126C220.636 54.5721 221.208 52.425 221.85 50.2896C222.48 48.1542 223.238 46.0654 224.008 43.9883C224.825 41.9229 225.665 39.8691 226.634 37.862C227.579 35.855 228.606 33.8712 229.831 31.9575L231.033 32.4242C230.66 34.653 230.088 36.8118 229.446 38.9472C228.816 41.0827 228.058 43.1714 227.288 45.2485C226.471 47.314 225.63 49.3677 224.662 51.3748C223.717 53.3819 222.69 55.3656 221.465 57.2794L220.263 56.8126Z" fill="#00241E"/>
<path d="M241.92 61.0252C241.897 59.6715 242.084 58.3879 242.329 57.1277C242.585 55.8674 242.924 54.6422 243.332 53.4403C243.741 52.2383 244.231 51.0598 244.791 49.9045C245.363 48.761 245.993 47.629 246.845 46.5672L248.07 46.9873C248.093 48.3409 247.907 49.6245 247.662 50.8847C247.405 52.145 247.066 53.3702 246.658 54.5722C246.25 55.7741 245.759 56.9526 245.199 58.1079C244.628 59.2515 243.997 60.3833 243.146 61.4452L241.92 61.0252Z" fill="#00241E"/>
<path d="M246.903 62.4254C247.37 60.6867 248.023 59.0531 248.747 57.4661C249.459 55.8674 250.275 54.3388 251.127 52.8101C252.014 51.3165 252.913 49.8228 253.928 48.3992C254.931 46.9639 256.005 45.5753 257.265 44.2917L258.385 44.9335C257.919 46.6722 257.265 48.3059 256.542 49.8928C255.83 51.4915 255.013 53.0201 254.161 54.5488C253.274 56.0424 252.376 57.5361 251.361 58.9597C250.357 60.395 249.284 61.7836 248.023 63.0672L246.903 62.4254Z" fill="#00241E"/>
<path d="M263.823 70.1153C264.103 68.9134 264.57 67.8399 265.083 66.7897C265.609 65.7511 266.204 64.7709 266.869 63.8257C267.522 62.8805 268.246 61.982 269.039 61.1418C269.844 60.3016 270.685 59.4965 271.723 58.8197L272.785 59.5548C272.505 60.7568 272.038 61.8303 271.525 62.8805C271 63.9191 270.405 64.8993 269.739 65.8445C269.086 66.7897 268.363 67.6882 267.569 68.5284C266.764 69.3685 265.924 70.1737 264.885 70.8505L263.823 70.1153Z" fill="#00241E"/>
<path d="M269.389 73.8378C270.136 72.6125 271.023 71.5623 271.957 70.5588C272.89 69.5669 273.882 68.6334 274.932 67.7699C275.971 66.8947 277.068 66.0895 278.211 65.3427C279.366 64.6075 280.557 63.9074 281.887 63.394L282.716 64.3858C281.969 65.6111 281.082 66.6613 280.148 67.6649C279.215 68.6567 278.223 69.5902 277.173 70.4538C276.134 71.3289 275.037 72.1341 273.894 72.8809C272.738 73.6161 271.548 74.3162 270.218 74.8297L269.389 73.8378Z" fill="#00241E"/>
<path d="M145.616 95.5773C144.075 95.6006 142.593 95.4139 141.135 95.1455C139.676 94.9005 138.252 94.5271 136.829 94.1303C135.429 93.6869 134.028 93.2318 132.663 92.6367C131.298 92.0649 129.956 91.4114 128.672 90.5596L129.034 89.3227C130.574 89.2993 132.056 89.486 133.515 89.7544C134.973 89.9995 136.397 90.3729 137.821 90.7696C139.221 91.2131 140.621 91.6681 141.987 92.2633C143.352 92.8351 144.694 93.4885 145.977 94.3404L145.616 95.5773Z" fill="#00241E"/>
<path d="M145.884 99.043C144.974 99.6264 144.04 99.9882 143.095 100.292C142.15 100.583 141.193 100.793 140.224 100.922C139.256 101.05 138.276 101.108 137.295 101.073C136.303 101.027 135.312 100.933 134.273 100.607L134.098 99.323C135.008 98.7396 135.942 98.3779 136.887 98.0745C137.832 97.7827 138.789 97.5727 139.758 97.4443C140.726 97.316 141.706 97.2576 142.686 97.2926C143.678 97.3393 144.67 97.4326 145.709 97.7594L145.884 99.043Z" fill="#00241E"/>
<path d="M168.219 120.176C168.219 120.176 172.373 89.7194 153.06 97.3743C133.76 105.029 150.131 141.542 158.907 143.899C167.682 146.256 168.207 120.176 168.207 120.176H168.219Z" fill="#993114"/>
<path d="M165.651 111.867C164.286 110.817 162.991 109.697 161.532 108.88C160.109 108.028 158.592 107.316 157.098 107.083C156.725 107.001 156.363 107.048 156.001 107.013C155.663 107.083 155.289 107.06 154.986 107.2C154.332 107.375 153.761 107.736 153.305 108.25C152.337 109.23 151.835 110.77 151.602 112.311C151.135 115.461 151.754 118.834 152.85 121.949C153.971 125.1 155.651 128.052 157.763 130.748L157.133 131.343C155.814 130.164 154.659 128.811 153.586 127.375C152.559 125.917 151.672 124.342 150.972 122.685C149.571 119.382 148.766 115.718 149.28 111.972C149.443 111.039 149.641 110.105 150.038 109.195C150.412 108.297 150.925 107.398 151.683 106.675C153.142 105.123 155.581 104.621 157.448 105.111C161.287 106.056 163.924 108.682 166.258 111.261L165.651 111.867Z" fill="#00241E"/>
<path d="M153.387 107.41C155.021 107.76 156.421 108.798 157.53 109.965C158.65 111.144 159.513 112.521 160.225 113.944C160.902 115.38 161.439 116.885 161.73 118.449C162.034 120.001 162.151 121.611 161.882 123.186L161.019 123.21C160.669 121.751 160.26 120.351 159.782 118.974C159.292 117.609 158.755 116.255 158.113 114.96C157.495 113.653 156.783 112.416 155.978 111.249C155.161 110.094 154.239 109.043 153.06 108.203L153.387 107.41Z" fill="#00241E"/>
<path d="M288.048 441.904C288.048 441.904 239.808 420.981 234.627 422.16C229.446 423.327 218.606 433.584 275.049 457.844C331.492 482.104 288.048 441.904 288.048 441.904Z" fill="#00241E"/>
<path d="M193.389 414.855C193.389 414.855 213.938 409.627 224.79 410.841C235.642 412.043 252.668 412.544 257.09 418.986C261.513 425.415 271.56 432.744 262.318 435.556C253.076 438.368 247.662 431.74 235.596 432.148C240.648 436.279 254.955 447.493 254.955 447.493C252.913 463.375 252.656 479.315 244.032 478.778C235.456 478.253 191.603 483.201 184.135 458.684C180.471 425.719 193.377 414.867 193.377 414.867L193.389 414.855Z" fill="#993114"/>
<path d="M81.0272 220.075C81.0272 220.075 -4.33207 391.458 0.172191 413.198C4.67645 434.949 94.3766 467.506 135.335 457.377C161.567 462.441 185.734 463.363 185.734 463.363C185.734 463.363 180.669 439.43 196.318 413.198C172.384 409.51 144.997 406.29 144.997 406.29C144.997 406.29 101.331 389.708 72.5671 387.409C72.5671 387.409 121.064 316.613 135.323 305.574C149.595 294.523 111.624 204.601 81.0155 220.075H81.0272Z" fill="#F5FBEF"/>
<path d="M172.991 455.755C170.482 455.323 168.627 453.958 168.849 452.709C169.059 451.461 171.264 450.784 173.773 451.216C176.282 451.647 178.137 453.013 177.916 454.261C177.705 455.51 175.5 456.187 172.991 455.755Z" fill="#00241E"/>
<path d="M150.937 453.351C148.428 452.919 146.573 451.554 146.794 450.306C147.016 449.057 149.21 448.38 151.719 448.812C154.227 449.244 156.083 450.609 155.861 451.857C155.651 453.106 153.446 453.783 150.937 453.351Z" fill="#00241E"/>
<path d="M138.089 308.281C132.534 311.432 127.587 315.458 123.001 319.845C120.714 322.051 118.497 324.338 116.396 326.73C114.261 329.087 112.207 331.538 110.235 334.047C106.232 339.018 102.51 344.234 98.8925 349.52C97.0955 352.18 95.3218 354.852 93.6064 357.56C91.8444 360.244 90.1757 363.009 88.5071 365.74L87.3518 365.168C89.9307 359.182 92.9763 353.441 96.3603 347.886C99.7327 342.332 103.432 336.964 107.493 331.853C111.577 326.765 115.999 321.911 120.97 317.616C125.895 313.299 131.438 309.565 137.529 307.114L138.077 308.281H138.089Z" fill="#00241E"/>
<path d="M90.2341 389.416C99.3009 390.898 108.169 393.045 116.991 395.368C125.825 397.69 134.565 400.292 143.282 402.987L149.781 405.065C151.882 405.741 154.041 406.243 156.223 406.687C160.587 407.573 165.068 408.063 169.56 408.46C174.065 408.834 178.604 409.079 183.167 409.417C185.442 409.615 187.741 409.814 190.04 410.176C191.183 410.362 192.338 410.572 193.494 410.911C194.626 411.284 195.839 411.681 196.796 412.766L195.828 413.618C195.209 413.011 194.124 412.696 193.085 412.486C192.023 412.264 190.927 412.136 189.818 412.043C187.589 411.868 185.325 411.821 183.062 411.798C178.522 411.716 173.948 411.704 169.374 411.471C164.788 411.261 160.179 410.817 155.593 410.012C153.305 409.604 151.018 409.055 148.766 408.355L142.243 406.325C133.561 403.594 124.868 400.922 116.174 398.261L103.105 394.364C98.7525 393.057 94.3649 391.832 89.989 390.677L90.2341 389.405V389.416Z" fill="#00241E"/>
<path d="M185.652 464.005C181.416 463.772 177.204 463.398 172.98 463.083C168.767 462.733 164.554 462.325 160.342 461.916C156.129 461.485 151.929 461.064 147.728 460.574C143.527 460.096 139.326 459.629 135.125 459.092H135.557C131.916 459.442 128.509 459.512 125.008 459.524C121.531 459.547 118.053 459.489 114.587 459.349C111.122 459.232 107.656 459.034 104.202 458.789C100.748 458.509 97.2939 458.264 93.8516 457.89L93.9099 456.607C97.3756 456.537 100.83 456.572 104.284 456.525L114.634 456.443C118.077 456.408 121.519 456.338 124.961 456.245C128.369 456.117 131.881 456 135.125 455.662L135.358 455.638L135.557 455.662C139.758 456.128 143.959 456.653 148.159 457.179C152.36 457.692 156.549 458.264 160.739 458.836C164.928 459.419 169.117 460.014 173.295 460.668C177.472 461.344 181.661 461.975 185.827 462.733L185.675 464.017L185.652 464.005Z" fill="#00241E"/>
<path d="M153.796 408.495C152.955 408.915 152.045 409.627 151.275 410.362C150.482 411.086 149.77 411.914 149.105 412.766L148.124 414.073C147.809 414.517 147.541 415.007 147.249 415.462C146.642 416.372 146.152 417.352 145.651 418.332C145.114 419.277 144.729 420.339 144.262 421.331C143.783 422.323 143.422 423.373 143.06 424.424C142.231 426.477 141.671 428.648 141.03 430.783C140.481 432.954 139.909 435.124 139.454 437.318C139.034 439.523 138.509 441.717 138.159 443.958L137.599 447.307C137.4 448.427 137.179 449.535 137.05 450.667C136.724 452.919 136.409 455.172 135.989 457.424L134.705 457.354C134.635 455.055 134.67 452.756 134.693 450.446C134.74 448.147 134.985 445.848 135.172 443.537C135.242 442.382 135.405 441.239 135.603 440.095L136.14 436.664C136.292 435.509 136.619 434.389 136.864 433.257C137.132 432.125 137.365 430.982 137.669 429.861C138.976 425.38 140.598 420.946 143.037 416.874C143.667 415.87 144.25 414.843 145.02 413.91C145.394 413.443 145.732 412.953 146.129 412.509L147.354 411.191C147.751 410.747 148.253 410.374 148.684 409.977C149.116 409.569 149.618 409.219 150.12 408.88C151.135 408.192 152.15 407.608 153.469 407.27L153.819 408.507L153.796 408.495Z" fill="#00241E"/>
<g opacity="0.8">
<path d="M304.7 452.721C276.834 434.272 259.377 401.085 259.973 367.677C260.568 334.268 279.191 301.723 307.687 284.278C302.915 292.563 300.873 302.668 303.358 311.91C305.844 321.152 313.254 329.216 322.589 331.293C331.924 333.381 342.683 328.62 346.405 319.81C350.385 310.417 346.184 299.833 343.78 289.914C337.502 264.055 344.153 236.038 358.6 213.68C373.034 191.322 394.692 174.297 418.369 162.138C411.729 191.906 430.889 220.693 437.436 250.484C442.185 272.119 440.096 295.212 431.52 315.644C441.508 302.015 451.637 288.234 464.59 277.393C477.554 266.553 493.844 258.769 510.741 259.271C501.289 266.086 498.477 279.073 499.235 290.708C499.994 302.342 503.529 313.707 503.716 325.365C503.903 337.022 499.69 349.905 489.34 355.273C509.796 351.072 528.14 337.512 538.14 319.18C540.462 345.972 521.85 431.682 481.837 446.513C456.62 455.86 304.7 452.721 304.7 452.721Z" fill="#FFE066"/>
<path d="M332.566 241.452C332.834 292.668 348.891 300.743 341.924 310.673C334.27 321.584 311.9 297.394 332.566 241.452Z" fill="#FFE066"/>
<path d="M265.095 427.469C258.759 417.095 247.65 409.837 243.262 398.495C240.182 390.548 241.407 381.073 246.39 374.153C248.187 381.4 252.143 387.923 256.367 394.084C260.591 400.245 265.154 406.231 268.386 412.964C271.618 419.698 273.474 427.387 271.887 434.681C269.343 433.619 266.379 429.581 265.084 427.469H265.095Z" fill="#FFE066"/>
<path d="M507.52 344.654C511.721 336.695 509.586 327.022 510.473 318.072C511.733 305.352 519.761 293.497 531.104 287.592C528.455 294.418 527.731 301.793 526.926 309.075C526.121 316.345 525.176 323.731 522.153 330.394C519.131 337.057 507.474 345.261 507.929 345.494L507.52 344.665V344.654Z" fill="#FFE066"/>
<path d="M348.074 471.578C364.982 475.919 430.644 467.424 447.109 461.636C496.983 444.098 468.686 350.442 478.943 334.898C451.917 337.991 429.034 387.654 419.419 384.224C424.565 335.529 400.223 319.962 394.984 294.558C338.237 335.178 350.291 385.122 350.291 385.122C340.104 384.702 325.308 374.025 320.71 364.923C307.244 382.707 303.101 407.177 309.951 428.403C316.813 449.629 348.062 471.567 348.062 471.567L348.074 471.578Z" fill="#E9792A"/>
</g>
<path d="M263.893 442.686L521.99 418.787L504.638 456.805C500.169 466.596 491.58 473.048 481.825 473.959L312.542 489.63C302.553 490.552 292.739 485.546 286.578 476.386L263.893 442.686Z" fill="#00241E"/>
<path d="M521.99 418.799C522.398 423.198 464.952 432.125 393.677 438.718C322.402 445.311 264.302 447.096 263.893 442.686C263.485 438.286 320.932 429.359 392.207 422.766C463.481 416.173 521.582 414.388 521.99 418.799Z" fill="#993114"/>
<path d="M312.752 395.554L314.771 399.51C317.361 404.563 330.139 403.197 343.313 396.453C356.488 389.708 365.064 380.139 362.474 375.087L360.455 371.131L312.752 395.554Z" fill="#E9792A"/>
<path d="M360.455 371.131C363.046 376.184 354.457 385.752 341.294 392.497C328.12 399.242 315.342 400.607 312.752 395.554C310.161 390.502 318.75 380.933 331.912 374.188C345.087 367.443 357.864 366.078 360.455 371.131Z" fill="#FFA435"/>
<path d="M346.662 378.202C347.747 380.338 344.142 384.364 338.587 387.211C333.033 390.058 327.653 390.63 326.556 388.506C325.471 386.371 329.077 382.345 334.631 379.498C340.186 376.65 345.565 376.079 346.662 378.202Z" fill="#FFE066"/>
<path d="M352.917 374.993C354.691 378.447 348.821 384.994 339.813 389.603C330.804 394.212 322.076 395.146 320.302 391.692C318.528 388.238 324.398 381.691 333.406 377.082C342.415 372.473 351.143 371.539 352.917 374.993Z" stroke="#FFE066" stroke-width="0.75" stroke-miterlimit="10"/>
<path d="M457.507 335.739L454.881 337.442C451.532 339.624 453.423 348.481 459.129 357.221C464.823 365.961 472.163 371.271 475.512 369.089L478.138 367.385L457.507 335.75V335.739Z" fill="#E9792A"/>
<path d="M478.138 367.385C474.789 369.567 467.449 364.258 461.754 355.518C456.06 346.777 454.158 337.932 457.507 335.739C460.856 333.556 468.195 338.866 473.89 347.606C479.584 356.346 481.487 365.191 478.138 367.385Z" fill="#FFA435"/>
<path d="M472.163 358.236C470.751 359.158 467.659 356.918 465.255 353.242C462.851 349.555 462.058 345.832 463.47 344.91C464.882 343.989 467.974 346.229 470.378 349.905C472.782 353.592 473.575 357.315 472.163 358.236Z" fill="#FFE066"/>
<path d="M474.87 362.379C472.583 363.873 467.565 360.244 463.668 354.269C459.77 348.294 458.475 342.238 460.762 340.745C463.049 339.251 468.067 342.88 471.965 348.855C475.862 354.829 477.157 360.885 474.87 362.379Z" stroke="#FFE066" stroke-width="0.75" stroke-miterlimit="10"/>
<path d="M419.535 316.45L421.554 313.742C424.133 310.277 418.905 302.015 409.873 295.282C400.842 288.549 391.425 285.912 388.846 289.377L386.827 292.084L419.535 316.45Z" fill="#E9792A"/>
<path d="M419.531 316.411C422.115 312.943 416.885 304.676 407.85 297.947C398.815 291.218 389.398 288.574 386.814 292.042C384.231 295.51 389.461 303.776 398.496 310.506C407.53 317.235 416.948 319.879 419.531 316.411Z" fill="#FFA435"/>
<path d="M396.291 299.133C397.376 297.674 401.343 298.783 405.159 301.618C408.975 304.454 411.169 307.943 410.084 309.401C408.998 310.86 405.031 309.751 401.215 306.916C397.411 304.08 395.205 300.591 396.291 299.133Z" fill="#FFE066"/>
<path d="M391.996 295.935C393.758 293.566 400.2 295.375 406.373 299.973C412.546 304.57 416.128 310.218 414.354 312.587C412.581 314.956 406.151 313.147 399.978 308.55C393.805 303.952 390.223 298.304 391.996 295.935Z" stroke="#FFE066" stroke-width="0.75" stroke-miterlimit="10"/>
<path d="M328.797 336.205L332.776 336.287C337.864 336.392 342.205 325.727 342.473 312.47C342.741 299.214 338.832 288.385 333.744 288.28L329.765 288.199L328.797 336.205Z" fill="#E9792A"/>
<path d="M329.765 288.199C334.853 288.304 338.762 299.133 338.494 312.389C338.225 325.645 333.884 336.31 328.797 336.205C323.709 336.1 319.8 325.271 320.068 312.015C320.337 298.759 324.677 288.094 329.765 288.199Z" fill="#FFA435"/>
<path d="M329.485 302.085C331.632 302.132 333.278 306.694 333.161 312.284C333.044 317.873 331.212 322.366 329.077 322.319C326.93 322.272 325.284 317.71 325.401 312.12C325.518 306.531 327.35 302.038 329.485 302.085Z" fill="#FFE066"/>
<path d="M329.614 295.795C333.091 295.865 335.763 303.275 335.576 312.33C335.39 321.386 332.426 328.69 328.948 328.609C325.471 328.539 322.799 321.129 322.986 312.074C323.172 303.007 326.136 295.714 329.614 295.795Z" stroke="#FFE066" stroke-width="0.75" stroke-miterlimit="10"/>
<path d="M409.593 408.168L408.905 412.089C408.03 417.107 417.913 423.012 430.971 425.299C444.029 427.586 455.336 425.369 456.211 420.351L456.9 416.43L409.593 408.168Z" fill="#E9792A"/>
<path d="M456.888 416.43C456.013 421.448 444.717 423.653 431.648 421.378C418.59 419.091 408.707 413.186 409.582 408.168C410.457 403.151 421.753 400.945 434.822 403.221C447.88 405.508 457.763 411.412 456.888 416.43Z" fill="#FFA435"/>
<path d="M443.212 414.038C442.839 416.15 438.078 417.084 432.57 416.127C427.062 415.17 422.896 412.673 423.27 410.561C423.643 408.449 428.404 407.515 433.912 408.472C439.42 409.429 443.585 411.926 443.212 414.038Z" fill="#FFE066"/>
<path d="M449.408 415.123C448.813 418.554 441.088 420.059 432.15 418.507C423.223 416.944 416.466 412.906 417.062 409.475C417.657 406.045 425.382 404.539 434.32 406.091C443.247 407.655 450.003 411.693 449.408 415.123Z" stroke="#FFE066" stroke-width="0.75" stroke-miterlimit="10"/>
<path d="M421.624 337.827L424.612 362.974L413.713 364.269C399.838 365.926 387.224 355.996 385.578 342.11L421.624 337.816V337.827Z" fill="#993114"/>
<path d="M421.624 337.827L424.226 359.707L416.618 360.617C403.841 362.134 392.137 353.861 389.079 341.713L421.624 337.839V337.827Z" fill="#FF5D3D"/>
<path d="M464.076 310.417L479.806 294.897L486.539 301.711C495.104 310.393 495.011 324.396 486.341 332.961L464.088 310.417H464.076Z" fill="#818A20"/>
<path d="M464.076 310.417L477.753 296.916L482.455 301.677C490.344 309.67 490.904 322.156 484.171 330.768L464.076 310.417Z" fill="#C2BB30"/>
<path d="M361.82 320.125C364.096 318.702 369.288 320.837 384.155 335.925C374.866 340.464 366.966 345.19 361.132 356.358C354.737 353.289 343.43 349.135 341.936 347.151C340.069 344.677 352.742 325.808 361.82 320.125Z" fill="#818A20"/>
<path d="M363.139 322.681C365.193 321.397 384.155 335.914 384.155 335.914L384.365 337.699C375.543 342.005 368.028 346.509 362.485 357.116C356.406 354.199 345.659 350.255 344.247 348.376C342.473 346.019 354.515 328.095 363.139 322.693V322.681Z" fill="#C2BB30"/>
<path d="M354.504 419.884C355.507 421.635 353.745 425.497 341.925 436.256C338.774 429.114 335.448 423.012 327.198 418.286C329.707 413.548 333.173 405.146 334.713 404.084C336.639 402.754 350.49 412.871 354.504 419.884Z" fill="#993114"/>
<path d="M352.532 420.806C353.442 422.393 341.925 436.256 341.925 436.256L340.571 436.361C337.584 429.57 334.421 423.782 326.58 419.277C328.96 414.773 332.263 406.792 333.721 405.776C335.553 404.504 348.716 414.131 352.532 420.794V420.806Z" fill="#FF5D3D"/>
<path d="M462.151 300.941C462.933 307.558 455.476 306.729 446.514 307.791C437.553 308.853 430.493 311.42 429.711 304.804C428.929 298.187 435.545 291.956 444.507 290.894C453.469 289.832 461.369 294.325 462.163 300.941H462.151Z" fill="#F5FBEF"/>
<path d="M450.925 299.541C448.23 299.506 447.763 301.933 445.499 302.552C444.169 302.913 442.582 301.245 441.217 301.035C439.875 300.836 438.813 301.151 437.938 302.19C437.062 303.217 436.747 304.71 437.156 306.006C437.599 305.037 438.848 304.559 439.863 304.85C444.927 306.309 441.963 316.706 443.912 319.764C447.716 325.738 454.239 322.564 452.361 314.711C451.777 312.295 450.015 306.566 449.852 306.087C449.42 304.419 450.342 303.625 450.704 303.252C451.999 301.91 453.341 302.272 454.613 303.625C454.706 301.817 453.247 299.576 450.925 299.541Z" fill="#F5CAA6"/>
<path d="M318.901 434.039C314.992 439.442 310.068 433.77 302.763 428.484C295.447 423.198 288.515 420.304 292.424 414.902C296.333 409.499 305.424 409.405 312.729 414.692C320.045 419.978 322.811 428.636 318.901 434.039Z" fill="#F5FBEF"/>
<path d="M311.585 425.404C309.624 423.548 307.629 425.019 305.552 423.945C304.327 423.303 304.292 421.004 303.428 419.931C302.576 418.881 301.584 418.391 300.243 418.554C298.901 418.717 297.664 419.604 297.08 420.829C298.06 420.409 299.297 420.911 299.857 421.821C302.6 426.326 293.381 431.962 292.739 435.532C291.491 442.511 298.445 444.588 302.378 437.54C303.592 435.369 306.17 429.955 306.369 429.488C307.186 427.959 308.399 428.006 308.924 427.983C310.791 427.866 311.527 429.044 311.55 430.912C312.833 429.651 313.289 427.002 311.597 425.404H311.585Z" fill="#F5CAA6"/>
<path d="M293.451 329.414C299.776 329.309 298.259 336.275 298.399 344.84C298.539 353.406 300.266 360.314 293.941 360.419C287.617 360.524 282.377 353.662 282.249 345.097C282.109 336.532 287.127 329.507 293.451 329.414Z" fill="#F5FBEF"/>
<path d="M291.047 339.881C290.756 342.425 292.996 343.102 293.369 345.295C293.58 346.591 291.853 347.921 291.526 349.193C291.211 350.442 291.409 351.468 292.296 352.402C293.183 353.335 294.56 353.767 295.82 353.51C294.945 352.997 294.618 351.772 294.992 350.838C296.859 346.194 306.392 349.998 309.461 348.458C315.471 345.447 313.114 338.971 305.517 339.998C303.172 340.313 297.594 341.421 297.127 341.538C295.505 341.783 294.851 340.838 294.525 340.453C293.381 339.099 293.848 337.874 295.26 336.8C293.568 336.544 291.304 337.699 291.047 339.893V339.881Z" fill="#F5CAA6"/>
<path d="M390.561 383.115C392.51 378.156 397.458 381.575 404.179 384.212C410.9 386.861 416.852 387.724 414.903 392.684C412.954 397.643 405.918 399.533 399.196 396.884C392.475 394.236 388.613 388.074 390.561 383.115Z" fill="#F5FBEF"/>
<path d="M397.948 388.366C399.838 389.416 401.087 387.876 402.919 388.296C404.004 388.541 404.482 390.326 405.369 390.992C406.244 391.633 407.108 391.82 408.111 391.423C409.115 391.027 409.908 390.093 410.107 389.031C409.43 389.545 408.368 389.416 407.761 388.821C404.739 385.869 410.772 379.661 410.55 376.779C410.13 371.119 404.331 370.886 402.685 377.14C402.184 379.066 401.262 383.768 401.192 384.177C400.865 385.519 399.908 385.729 399.511 385.857C398.088 386.312 397.283 385.554 396.897 384.107C396.151 385.344 396.326 387.479 397.948 388.378V388.366Z" fill="#F5CAA6"/>
<path d="M414.343 266.669C415.241 267.008 416.14 267.334 417.038 267.673C416.758 262.737 418.8 257.719 422.441 254.382C422.639 257.357 422.849 260.333 423.048 263.309C423.818 262.842 424.588 262.375 425.358 261.908C426.245 265.141 425.942 268.7 424.507 271.734C425.487 271.489 426.479 271.244 427.459 270.998C427.727 272.901 426.759 274.744 425.813 276.425C425.008 277.872 424.11 279.4 422.604 280.089C416.502 282.878 414.226 270.03 414.343 266.669Z" fill="#818A20"/>
<path d="M411.916 285.865C408.135 283.461 405.603 278.432 404.984 275.526C405.999 276.063 407.003 276.6 408.018 277.148C406.069 273.997 406.279 268.21 406.454 264.51C408.356 267.661 410.247 270.823 412.149 273.974C412.161 273.239 412.452 272.504 412.942 271.944C415.591 274.067 420.341 275.794 422.021 278.735C422.406 279.424 422.464 282.423 422.464 282.423C422.324 286.448 418.205 289.856 411.927 285.853L411.916 285.865Z" fill="#818A20"/>
<path d="M431.998 271.745C431.753 272.585 431.508 273.437 431.251 274.277C433.923 272.247 437.529 271.477 440.797 272.235C438.346 274.709 436.806 277.323 433.923 279.26C435.102 279.902 437.494 281.337 437.494 281.337C437.494 281.337 435.487 282.901 431.648 283.333C431.823 284.395 433.562 285.363 433.737 286.425C433.83 286.962 423.631 292.225 420.236 281.314C419.71 279.634 429.606 272.784 431.998 271.745Z" fill="#818A20"/>
<path d="M420.562 259.376C419.617 265.339 419.979 271.524 420.597 277.498C421.274 283.916 422.359 290.369 424.238 296.554C425.02 299.121 425.919 301.723 427.331 304.01C427.622 304.489 428.381 304.045 428.089 303.567C426.455 300.906 425.487 297.837 424.647 294.838C423.585 291.023 422.815 287.125 422.208 283.216C421.029 275.538 420.166 267.334 421.391 259.609C421.484 259.061 420.632 258.816 420.551 259.376H420.562Z" fill="#00241E"/>
<path d="M408.917 275.071C410.06 278.28 412.942 280.976 416.163 281.991C417.913 282.551 419.78 282.633 421.601 282.399C422.149 282.329 422.161 281.454 421.601 281.524C418.789 281.874 415.965 281.419 413.619 279.75C412.172 278.723 411.005 277.311 410.177 275.748C409.99 275.386 409.85 275.106 409.757 274.826C409.57 274.301 408.718 274.523 408.917 275.059V275.071Z" fill="#00241E"/>
<path d="M435.359 274.067C434.157 275.526 432.768 276.856 431.345 278.093C428.579 280.485 425.37 282.598 421.764 283.403C421.216 283.519 421.449 284.371 421.998 284.243C425.65 283.438 428.894 281.326 431.718 278.933C433.247 277.638 434.717 276.238 435.989 274.686C436.339 274.254 435.732 273.636 435.37 274.067H435.359Z" fill="#00241E"/>
<path d="M426.619 276.973C426.397 277.638 426.21 278.315 426.07 279.004C425.849 280.007 425.592 281.232 425.942 282.236C426.129 282.761 426.969 282.539 426.782 282.002C426.642 281.582 426.654 281.151 426.689 280.672C426.735 280.147 426.829 279.634 426.945 279.12C427.085 278.478 427.261 277.837 427.471 277.206C427.646 276.67 426.805 276.436 426.63 276.973H426.619Z" fill="#00241E"/>
<path d="M414.915 275.911C415.276 276.705 415.58 277.475 415.895 278.338C416.128 278.98 416.362 279.634 416.525 280.31C416.595 280.567 416.677 280.917 416.7 281.127C416.712 281.244 416.723 281.372 416.723 281.489C416.723 281.536 416.723 281.594 416.723 281.641C416.723 281.722 416.735 281.571 416.723 281.699C416.607 282.248 417.447 282.481 417.563 281.932C417.762 281.022 417.377 279.96 417.097 279.109C416.77 278.093 416.373 277.113 415.965 276.133C415.871 275.911 415.778 275.701 415.685 275.479C415.591 275.258 415.276 275.211 415.09 275.328C414.868 275.456 414.833 275.713 414.938 275.923L414.915 275.911Z" fill="#00241E"/>
<path d="M424.145 266.879C423.305 268.548 422.406 270.217 421.321 271.734C421.169 271.944 421.029 272.13 420.854 272.329C420.784 272.41 420.702 272.492 420.621 272.574C420.586 272.609 420.551 272.644 420.516 272.667C420.481 272.702 420.539 272.656 420.539 272.656C420.516 272.679 420.492 272.691 420.457 272.714C419.991 273.017 420.422 273.776 420.901 273.472C421.286 273.227 421.578 272.854 421.846 272.504C422.208 272.037 422.534 271.535 422.838 271.034C423.445 270.053 424.005 269.038 424.553 268.011C424.67 267.789 424.787 267.556 424.903 267.334C425.16 266.833 424.401 266.389 424.145 266.891V266.879Z" fill="#00241E"/>
<path d="M410.469 281.944C410.947 282.107 411.472 282.154 411.974 282.189C413.129 282.247 414.296 282.049 415.358 281.606C415.58 281.512 415.731 281.314 415.661 281.069C415.603 280.859 415.346 280.672 415.125 280.765C414.121 281.186 413.059 281.372 411.974 281.314C411.531 281.291 411.145 281.256 410.702 281.104C410.165 280.929 409.932 281.769 410.469 281.944Z" fill="#00241E"/>
<path d="M430.633 284.43C429.804 284.395 428.976 284.313 428.159 284.196C426.922 284.033 425.487 283.846 424.413 283.169C423.935 282.866 423.491 283.624 423.97 283.928C425.125 284.651 426.619 284.873 427.949 285.048C428.836 285.165 429.734 285.27 430.633 285.305C431.193 285.328 431.193 284.453 430.633 284.43Z" fill="#00241E"/>
<path d="M491.324 376.639C492.035 377.596 492.747 378.552 493.459 379.521C496.516 374.165 502.048 370.302 508.127 369.275C506.318 372.519 504.51 375.775 502.713 379.019C503.833 379.054 504.953 379.089 506.073 379.124C504.813 383.115 502.071 386.627 498.512 388.821C499.714 389.23 500.904 389.638 502.106 390.046C501.091 392.229 498.827 393.489 496.703 394.609C494.883 395.578 492.899 396.569 490.857 396.266C482.572 395.041 488.92 380.058 491.312 376.627L491.324 376.639Z" fill="#818A20"/>
<path d="M475.757 395.076C473.435 390 474.193 383.022 475.512 379.556C476.2 380.805 476.901 382.053 477.589 383.302C477.682 378.692 481.837 372.764 484.532 369.019C484.38 373.605 484.217 378.202 484.065 382.788C484.579 382.018 485.372 381.446 486.271 381.213C487.613 385.227 491.405 390.256 491.16 394.481C491.102 395.461 489.118 398.635 489.118 398.635C486.248 402.754 479.62 403.524 475.757 395.076Z" fill="#818A20"/>
<path d="M506.342 393.921L503.845 396.068C508.022 395.753 512.305 397.386 515.222 400.397C510.986 401.319 507.602 403.022 503.261 403.081C504.055 404.563 505.583 407.667 505.583 407.667C505.583 407.667 502.421 407.935 498.103 405.788C497.567 407.013 498.722 409.207 498.197 410.432C497.928 411.051 483.692 409.639 487.531 395.928C488.126 393.816 503.121 393.36 506.33 393.897L506.342 393.921Z" fill="#818A20"/>
<path d="M502.829 373.336C497.812 378.891 494.019 385.6 490.635 392.252C486.959 399.463 483.715 407.002 481.475 414.797C480.565 417.959 479.771 421.25 479.701 424.564C479.69 425.124 480.565 425.124 480.576 424.564C480.716 418.122 483.214 411.588 485.536 405.671C488.535 398.028 492.175 390.572 496.47 383.582C498.547 380.209 500.787 376.907 503.436 373.966C503.81 373.546 503.191 372.928 502.818 373.348L502.829 373.336Z" fill="#00241E"/>
<path d="M480.04 381.796C479.059 385.904 480.273 390.63 482.922 393.851C484.369 395.613 486.271 396.955 488.313 397.946C488.815 398.191 489.258 397.433 488.756 397.188C485.559 395.636 482.864 393.197 481.557 389.825C480.763 387.759 480.495 385.495 480.693 383.29C480.728 382.858 480.786 382.438 480.88 382.018C481.008 381.47 480.168 381.236 480.04 381.785V381.796Z" fill="#00241E"/>
<path d="M508.279 398.752C506.05 399.463 503.716 399.907 501.406 400.233C496.855 400.864 492.035 400.899 487.671 399.277C487.146 399.078 486.913 399.93 487.438 400.117C491.825 401.75 496.668 401.727 501.254 401.132C503.693 400.805 506.155 400.35 508.512 399.603C509.049 399.428 508.815 398.588 508.279 398.763V398.752Z" fill="#00241E"/>
<path d="M497.216 395.834C495.921 396.861 494.649 398.04 493.692 399.393C493.389 399.825 493.109 400.303 492.981 400.817C492.852 401.365 493.692 401.599 493.821 401.05C493.914 400.654 494.112 400.315 494.369 399.942C494.661 399.522 494.988 399.137 495.338 398.752C495.968 398.063 496.656 397.433 497.368 396.826C497.52 396.698 497.672 396.569 497.823 396.441C498.01 396.289 497.975 395.974 497.823 395.823C497.637 395.636 497.391 395.671 497.205 395.823L497.216 395.834Z" fill="#00241E"/>
<path d="M485.769 386.592C485.594 387.701 485.384 388.798 485.139 389.895C484.941 390.758 484.731 391.61 484.451 392.439C484.264 392.987 484.031 393.675 483.657 394.049C483.26 394.446 483.879 395.064 484.276 394.667C484.626 394.317 484.836 393.839 485.022 393.384C485.279 392.765 485.466 392.123 485.641 391.47C485.979 390.221 486.236 388.949 486.458 387.678C486.504 387.386 486.563 387.106 486.598 386.814C486.679 386.266 485.839 386.021 485.758 386.581L485.769 386.592Z" fill="#00241E"/>
<path d="M501.441 383.617C499.445 384.784 497.392 385.927 495.245 386.756C494.719 386.966 494.089 387.211 493.576 387.211C493.016 387.211 493.016 388.086 493.576 388.086C494.101 388.086 494.626 387.911 495.128 387.736C495.84 387.479 496.54 387.164 497.228 386.849C498.524 386.231 499.796 385.554 501.056 384.854C501.336 384.702 501.616 384.539 501.896 384.375C502.386 384.095 501.943 383.337 501.452 383.617H501.441Z" fill="#00241E"/>
<path d="M477.006 389.93C477.391 390.408 477.904 390.817 478.394 391.178C479.549 392.018 480.903 392.59 482.303 392.847C482.537 392.894 482.77 392.789 482.84 392.544C482.899 392.334 482.77 392.042 482.537 392.007C481.195 391.762 479.935 391.237 478.838 390.431C478.418 390.128 477.963 389.743 477.624 389.323C477.472 389.136 477.157 389.171 477.006 389.323C476.819 389.51 476.854 389.755 477.006 389.941V389.93Z" fill="#00241E"/>
<path d="M496.236 406.348C494.614 405.193 493.004 403.874 491.662 402.357C491.23 401.867 490.822 401.342 490.542 400.747C490.308 400.234 489.55 400.677 489.783 401.19C490.32 402.369 491.335 403.349 492.269 404.224C493.191 405.076 494.159 405.881 495.163 406.64C495.373 406.803 495.583 406.955 495.793 407.107C496.248 407.433 496.691 406.675 496.236 406.348Z" fill="#00241E"/>
<path d="M366.441 408.11C367.2 407.853 367.958 407.597 368.717 407.352C365.951 404.294 364.633 399.977 365.239 395.904C366.931 397.725 368.623 399.545 370.315 401.365C370.572 400.665 370.829 399.953 371.086 399.253C373.361 400.887 375.03 403.349 375.683 406.068C376.197 405.391 376.698 404.714 377.212 404.038C378.39 405.135 378.717 406.838 378.997 408.414C379.231 409.767 379.452 411.237 378.834 412.474C376.337 417.48 368.122 410.351 366.441 408.11Z" fill="#818A20"/>
<path d="M374.936 421.821C371.225 422.241 366.943 420.316 365.018 418.764C365.951 418.577 366.896 418.402 367.83 418.216C364.912 417.2 362.007 413.338 360.187 410.841C363.069 411.891 365.963 412.941 368.845 413.991C368.46 413.501 368.262 412.883 368.297 412.264C371.132 412.241 375.111 410.876 377.748 411.903C378.355 412.136 379.966 414.061 379.966 414.061C381.984 416.745 381.109 421.109 374.936 421.821Z" fill="#818A20"/>
<path d="M380.537 402.136C380.818 402.812 381.098 403.489 381.389 404.166C382.054 401.447 383.98 399.055 386.5 397.83C386.209 400.712 386.594 403.221 385.73 405.986C386.839 405.788 389.126 405.461 389.126 405.461C389.126 405.461 388.647 407.527 386.384 409.826C387.06 410.421 388.682 410.141 389.359 410.736C389.698 411.039 385.847 419.803 377.924 414.516C376.71 413.7 379.522 404.073 380.526 402.147L380.537 402.136Z" fill="#818A20"/>
<path d="M366.605 400.199C369.919 405.951 374.843 410.899 379.732 415.322C384.015 419.207 388.928 423.607 394.482 425.567C395.019 425.754 395.24 424.914 394.715 424.727C392.253 423.863 390.013 422.358 387.901 420.853C385.147 418.892 382.556 416.722 380.071 414.446C375.345 410.129 370.584 405.333 367.375 399.755C367.095 399.265 366.336 399.708 366.616 400.199H366.605Z" fill="#00241E"/>
<path d="M367.316 416.489C368.518 417.224 369.989 417.609 371.377 417.749C374.481 418.064 377.34 416.734 379.475 414.528C379.872 414.12 379.254 413.501 378.857 413.91C376.838 415.998 374.189 417.2 371.249 416.862C370.059 416.722 368.787 416.36 367.748 415.73C367.27 415.438 366.826 416.197 367.305 416.489H367.316Z" fill="#00241E"/>
<path d="M383.875 401.914C383.875 403.466 383.665 405.041 383.385 406.57C382.848 409.522 381.914 412.579 380.012 414.96C379.662 415.392 380.281 416.022 380.631 415.578C382.591 413.105 383.618 410.024 384.202 406.955C384.517 405.298 384.738 403.594 384.75 401.914C384.75 401.354 383.875 401.354 383.875 401.914Z" fill="#00241E"/>
<path d="M379.709 408.32C380.106 409.382 380.584 410.467 381.261 411.366C381.494 411.681 381.763 411.984 382.101 412.194C382.579 412.498 383.023 411.739 382.544 411.436C382.509 411.413 382.474 411.389 382.439 411.366C382.533 411.436 382.416 411.354 382.404 411.331C382.334 411.272 382.264 411.202 382.206 411.132C382.136 411.062 382.078 410.981 382.008 410.899C382.066 410.969 381.961 410.841 381.961 410.829C381.926 410.782 381.903 410.736 381.868 410.689C381.611 410.316 381.389 409.907 381.179 409.499C381.086 409.312 380.993 409.114 380.911 408.927C380.876 408.845 380.829 408.752 380.794 408.67L380.747 408.554C380.712 408.484 380.782 408.635 380.736 408.519C380.677 408.367 380.607 408.215 380.561 408.063C380.479 407.842 380.269 407.69 380.024 407.76C379.814 407.818 379.639 408.075 379.721 408.297L379.709 408.32Z" fill="#00241E"/>
<path d="M371.564 413.84C372.007 414.061 372.439 414.295 372.871 414.54C373.279 414.762 373.676 414.995 374.061 415.252C374.248 415.368 374.446 415.497 374.633 415.625C374.726 415.683 374.808 415.753 374.901 415.812C374.948 415.847 374.983 415.87 375.03 415.905L375.088 415.94C375.205 416.022 375.053 415.917 375.123 415.963C375.286 416.092 375.438 416.22 375.59 416.372C375.625 416.407 375.648 416.43 375.683 416.465C375.695 416.489 375.776 416.57 375.741 416.524C375.706 416.477 375.765 416.559 375.776 416.582C375.8 416.617 375.811 416.64 375.835 416.675C376.091 417.177 376.838 416.734 376.593 416.232C376.442 415.928 376.173 415.683 375.916 415.473C375.555 415.17 375.17 414.902 374.773 414.645C374.049 414.178 373.291 413.746 372.532 413.35C372.369 413.256 372.194 413.175 372.019 413.081C371.517 412.824 371.074 413.583 371.576 413.84H371.564Z" fill="#00241E"/>
<path d="M372.836 403.162C373.011 403.979 373.163 404.796 373.291 405.625C373.384 406.243 373.478 406.862 373.524 407.492C373.548 407.76 373.559 408.028 373.548 408.309C373.548 408.577 373.548 408.624 373.478 408.845C373.303 409.382 374.155 409.615 374.318 409.079C374.47 408.6 374.435 408.052 374.4 407.562C374.353 406.885 374.26 406.208 374.155 405.531C374.014 404.668 373.863 403.804 373.676 402.941C373.559 402.392 372.708 402.626 372.836 403.174V403.162Z" fill="#00241E"/>
<path d="M371.914 420.129C372.778 419.803 373.571 419.172 374.178 418.472C374.505 418.099 374.785 417.69 375.018 417.259C375.135 417.049 375.065 416.78 374.866 416.664C374.668 416.547 374.376 416.617 374.271 416.815C374.178 417.002 374.061 417.177 373.956 417.352C373.898 417.434 373.851 417.504 373.793 417.585L373.758 417.632C373.758 417.632 373.793 417.585 373.758 417.644C373.723 417.679 373.699 417.714 373.664 417.76C373.443 418.029 373.209 418.262 372.941 418.496C372.883 418.542 372.824 418.589 372.778 418.636C372.743 418.659 372.684 418.706 372.754 418.659C372.731 418.682 372.696 418.706 372.673 418.729C372.568 418.799 372.462 418.881 372.357 418.951C372.194 419.056 372.031 419.149 371.856 419.231C371.797 419.254 371.739 419.289 371.681 419.312C371.622 419.336 371.809 419.266 371.716 419.301C371.494 419.382 371.342 419.592 371.412 419.838C371.471 420.048 371.727 420.223 371.949 420.141L371.914 420.129Z" fill="#00241E"/>
<path d="M386.325 410.969C385.765 411.389 385.182 411.774 384.587 412.136C384.085 412.439 383.56 412.743 383.023 412.988C382.79 413.093 382.545 413.198 382.3 413.28C382.183 413.315 382.078 413.35 381.961 413.385C381.903 413.396 381.844 413.42 381.774 413.431C381.763 413.431 381.588 413.455 381.669 413.455C381.436 413.478 381.238 413.641 381.238 413.898C381.238 414.108 381.436 414.365 381.669 414.341C382.836 414.201 383.933 413.571 384.913 412.976C385.544 412.591 386.162 412.194 386.757 411.751C386.944 411.611 387.037 411.378 386.909 411.156C386.804 410.969 386.5 410.852 386.314 411.004L386.325 410.969Z" fill="#00241E"/>
<path d="M382.79 306.227C380.923 303.263 377.889 300.148 374.26 297.441C370.631 294.733 366.78 292.715 363.396 291.781C357.853 290.217 355.472 292.085 354.527 293.333C353.839 294.267 353.535 295.305 353.5 296.425C353.465 300.965 358.448 306.823 364.108 311.035C369.23 314.839 375.462 317.745 379.814 317.266H379.907C381.529 317.056 382.895 316.403 383.828 315.143C384.75 313.894 385.859 311.082 382.766 306.216L382.79 306.227ZM380.024 312.307C379.464 313.077 374.085 312.505 366.978 307.208C360.852 302.657 358.471 298.339 358.285 296.729C358.25 296.46 358.285 296.262 358.366 296.157C358.413 296.099 358.6 296.005 359.031 295.947C359.172 295.935 359.335 295.924 359.51 295.924H359.545C360.012 295.924 360.607 295.982 361.377 296.169C361.424 296.169 361.459 296.192 361.47 296.192C361.505 296.204 361.517 296.192 361.517 296.192C361.692 296.239 361.902 296.285 362.112 296.344C364.889 297.137 368.285 298.899 371.424 301.245C374.551 303.579 377.224 306.309 378.776 308.748C380.234 311.058 380.106 312.167 380.024 312.295V312.307Z" fill="#F5FBEF"/>
<path d="M380.024 312.307C380.351 314.221 380.152 315.948 379.826 317.266C375.473 317.733 369.242 314.828 364.119 311.035C358.448 306.823 353.477 300.965 353.512 296.425C355.624 295.807 357.911 295.807 359.498 295.935C359.323 295.935 359.16 295.935 359.02 295.959C358.6 296.005 358.401 296.11 358.355 296.169C358.273 296.274 358.25 296.472 358.273 296.741C358.46 298.351 360.852 302.668 366.966 307.219C374.073 312.517 379.452 313.089 380.012 312.319L380.024 312.307Z" fill="#F5CAA6"/>
<path d="M444.087 392.287C446.724 388.238 448.907 382.66 450.202 376.545C451.509 370.442 451.824 364.456 451.065 359.683C449.84 351.842 446.129 349.916 444.029 349.461C442.465 349.135 440.983 349.345 439.56 349.951C433.842 352.519 429.373 362.122 427.33 371.644C425.498 380.244 425.44 389.72 428.532 394.912L428.602 395.029C429.781 396.955 431.38 398.285 433.503 398.728C435.592 399.172 439.758 398.938 444.076 392.275L444.087 392.287ZM434.869 392.322C433.573 392.054 431.216 384.982 433.772 373.045C435.954 362.764 440.003 357.291 441.917 356.124C442.232 355.926 442.489 355.844 442.675 355.891C442.769 355.914 443.002 356.101 443.317 356.603C443.422 356.766 443.515 356.965 443.62 357.186L443.644 357.221C443.9 357.805 444.169 358.587 444.391 359.66C444.402 359.73 444.414 359.777 444.426 359.8C444.426 359.847 444.437 359.87 444.437 359.87C444.484 360.127 444.531 360.407 444.589 360.699C445.196 364.631 444.927 369.906 443.795 375.192C442.664 380.443 440.773 385.367 438.614 388.716C436.561 391.867 435.09 392.357 434.892 392.322H434.869Z" fill="#F5FBEF"/>
<path d="M434.869 392.322C432.663 393.827 430.376 394.574 428.532 394.936C425.44 389.743 425.51 380.268 427.33 371.668C429.361 362.146 433.842 352.542 439.56 349.975C441.555 352.274 442.862 355.144 443.609 357.198C443.504 356.976 443.41 356.778 443.305 356.614C443.002 356.113 442.757 355.926 442.664 355.903C442.489 355.856 442.22 355.938 441.905 356.136C440.003 357.303 435.954 362.764 433.76 373.056C431.205 385.005 433.573 392.077 434.857 392.334L434.869 392.322Z" fill="#F5CAA6"/>
<path d="M529.143 316.45C527.568 311.887 524.499 306.729 520.485 301.957C516.471 297.184 511.931 293.251 507.707 290.918C500.764 287.067 496.972 288.817 495.315 290.194C494.101 291.221 493.354 292.528 492.957 294.022C491.475 300.113 496.306 309.542 502.573 316.998C508.244 323.719 515.677 329.589 521.675 330.336H521.803C524.044 330.604 526.074 330.149 527.731 328.76C529.365 327.383 531.734 323.953 529.132 316.45H529.143ZM523.507 323.743C522.504 324.595 515.479 322.121 507.614 312.774C500.834 304.734 499.002 298.176 499.259 295.959C499.305 295.585 499.399 295.34 499.539 295.224C499.609 295.165 499.912 295.084 500.496 295.154C500.694 295.177 500.904 295.224 501.137 295.27H501.184C501.803 295.434 502.584 295.702 503.565 296.18C503.623 296.215 503.67 296.239 503.693 296.239C503.74 296.262 503.751 296.274 503.751 296.274C503.985 296.39 504.23 296.53 504.498 296.67C507.975 298.608 511.966 302.062 515.444 306.204C518.898 310.323 521.617 314.839 522.935 318.597C524.161 322.156 523.647 323.614 523.495 323.754L523.507 323.743Z" fill="#F5FBEF"/>
<path d="M523.519 323.743C523.344 326.415 522.539 328.679 521.687 330.347C515.689 329.601 508.256 323.731 502.584 317.01C496.318 309.553 491.487 300.124 492.969 294.033C496.003 293.87 499.072 294.593 501.161 295.27C500.927 295.223 500.706 295.177 500.519 295.153C499.936 295.083 499.632 295.153 499.562 295.223C499.422 295.34 499.317 295.597 499.282 295.959C499.025 298.176 500.857 304.734 507.637 312.774C515.502 322.132 522.527 324.606 523.53 323.743H523.519Z" fill="#F5CAA6"/>
<path d="M304 359.193C300.091 361.049 295.808 364.293 291.957 368.342C288.107 372.391 285.049 376.814 283.392 380.805C280.65 387.363 282.587 390.572 283.976 391.902C285.014 392.882 286.251 393.419 287.617 393.617C293.183 394.341 301.094 389.101 307.116 382.788C312.542 377.082 317.034 369.871 317.104 364.456V364.339C317.104 362.321 316.509 360.559 315.097 359.217C313.709 357.898 310.418 356.124 304 359.193ZM311.048 363.488C311.912 364.293 310.406 370.804 302.856 378.716C296.368 385.542 290.721 387.818 288.713 387.818C288.375 387.818 288.142 387.759 288.025 387.643C287.967 387.584 287.873 387.328 287.873 386.802C287.873 386.627 287.897 386.429 287.908 386.219V386.184C287.99 385.612 288.142 384.889 288.48 383.967C288.503 383.908 288.515 383.874 288.515 383.85C288.538 383.815 288.538 383.792 288.538 383.792C288.62 383.582 288.713 383.337 288.819 383.092C290.195 379.801 292.879 375.904 296.217 372.403C299.542 368.925 303.288 366.043 306.509 364.503C309.554 363.056 310.908 363.371 311.036 363.499L311.048 363.488Z" fill="#F5FBEF"/>
<path d="M311.048 363.488C313.44 363.371 315.541 363.873 317.104 364.468C317.034 369.882 312.542 377.082 307.116 382.8C301.094 389.113 293.183 394.352 287.617 393.629C287.173 390.945 287.512 388.144 287.908 386.219C287.885 386.429 287.873 386.627 287.873 386.802C287.873 387.328 287.967 387.584 288.025 387.643C288.142 387.759 288.375 387.818 288.713 387.818C290.709 387.818 296.368 385.542 302.856 378.716C310.406 370.792 311.912 364.293 311.048 363.488Z" fill="#F5CAA6"/>
<path d="M380.887 264.184C381.436 266.062 378.88 269.306 365.274 276.74C363.944 269.295 362.205 262.772 355.519 256.424C358.961 252.538 364.166 245.408 365.858 244.755C367.981 243.938 378.717 256.657 380.887 264.184Z" fill="#993114"/>
<path d="M378.81 264.604C379.3 266.308 365.274 276.74 365.274 276.74L363.979 276.53C362.719 269.446 361.062 263.262 354.702 257.229C357.969 253.53 362.917 246.762 364.527 246.143C366.546 245.373 376.745 257.451 378.81 264.604Z" fill="#FF5D3D"/>
<path d="M503.016 362.904C501.464 363.838 497.987 362.344 488.115 352.005C494.428 349.041 499.819 345.937 503.868 338.469C508.15 340.605 515.735 343.533 516.716 344.887C517.941 346.579 509.189 359.17 503.004 362.904H503.016Z" fill="#993114"/>
<path d="M502.153 361.154C500.752 361.994 488.115 351.994 488.115 351.994L487.986 350.792C493.984 347.979 499.107 345.027 502.958 337.932C507.03 339.963 514.242 342.74 515.175 344.035C516.342 345.646 508.022 357.606 502.153 361.154Z" fill="#FF5D3D"/>
<path d="M359.743 263.589C359.825 264.277 359.335 264.907 358.635 264.989C357.946 265.071 357.316 264.581 357.234 263.88C357.153 263.192 357.643 262.562 358.343 262.48C359.043 262.398 359.662 262.888 359.743 263.589Z" fill="#F5FBEF"/>
<path d="M422.651 332.6C422.733 333.288 422.243 333.918 421.543 334C420.842 334.081 420.224 333.591 420.142 332.891C420.061 332.203 420.551 331.573 421.251 331.491C421.939 331.409 422.569 331.899 422.651 332.6Z" fill="#F5FBEF"/>
<path d="M414.576 379.848C414.669 380.618 414.121 381.306 413.351 381.4C412.581 381.493 411.892 380.945 411.799 380.174C411.705 379.404 412.254 378.716 413.024 378.622C413.794 378.529 414.483 379.078 414.576 379.848Z" fill="#F5FBEF"/>
<path d="M431.578 372.123C431.671 372.893 431.111 373.605 430.341 373.698C429.571 373.791 428.859 373.231 428.766 372.461C428.672 371.691 429.232 370.979 430.003 370.886C430.773 370.792 431.485 371.353 431.578 372.123Z" fill="#F5FBEF"/>
<path d="M456.375 389.428C456.445 390.035 456.013 390.595 455.395 390.665C454.788 390.735 454.228 390.303 454.158 389.685C454.088 389.078 454.519 388.518 455.138 388.448C455.745 388.378 456.305 388.809 456.375 389.428Z" fill="#F5FBEF"/>
<path d="M457.845 375.833C457.962 376.802 457.273 377.677 456.305 377.794C455.336 377.911 454.461 377.222 454.344 376.254C454.228 375.285 454.916 374.41 455.885 374.293C456.853 374.176 457.728 374.865 457.845 375.833Z" fill="#F5FBEF"/>
<path d="M410.317 407.002C410.399 407.713 409.897 408.355 409.185 408.437C408.473 408.519 407.831 408.017 407.75 407.305C407.668 406.593 408.17 405.951 408.882 405.87C409.594 405.788 410.235 406.29 410.317 407.002Z" fill="#F5FBEF"/>
<path d="M483.47 346.182C483.599 347.279 482.817 348.283 481.72 348.411C480.623 348.539 479.62 347.758 479.491 346.661C479.363 345.564 480.145 344.56 481.242 344.432C482.338 344.304 483.342 345.085 483.47 346.182Z" fill="#F5FBEF"/>
<path d="M496.411 342.437C496.54 343.498 495.781 344.467 494.708 344.595C493.646 344.724 492.677 343.965 492.549 342.892C492.42 341.83 493.179 340.861 494.253 340.733C495.314 340.605 496.283 341.363 496.411 342.437Z" fill="#F5FBEF"/>
<path d="M493.704 360.78C493.821 361.726 493.144 362.577 492.199 362.694C491.254 362.811 490.402 362.134 490.285 361.189C490.168 360.244 490.845 359.392 491.79 359.275C492.736 359.158 493.587 359.835 493.704 360.78Z" fill="#F5FBEF"/>
<path d="M510.811 350.325C510.963 351.632 510.041 352.81 508.734 352.962C507.427 353.114 506.248 352.192 506.097 350.885C505.945 349.578 506.867 348.4 508.174 348.248C509.481 348.096 510.659 349.018 510.811 350.325Z" fill="#F5FBEF"/>
<path d="M461.124 323.066C461.241 324.081 460.517 325.003 459.502 325.12C458.487 325.236 457.565 324.513 457.448 323.498C457.332 322.482 458.055 321.561 459.07 321.444C460.086 321.327 461.007 322.051 461.124 323.066Z" fill="#F5FBEF"/>
<path d="M487.683 294.652C487.753 295.27 487.31 295.842 486.691 295.912C486.073 295.982 485.501 295.539 485.431 294.92C485.361 294.302 485.804 293.73 486.423 293.66C487.041 293.59 487.613 294.033 487.683 294.652Z" fill="#F5FBEF"/>
<path d="M497.567 313.871C497.672 314.758 497.042 315.574 496.143 315.679C495.256 315.784 494.439 315.154 494.334 314.256C494.229 313.369 494.86 312.552 495.758 312.447C496.645 312.342 497.462 312.972 497.567 313.871Z" fill="#F5FBEF"/>
<path d="M458.358 279.599C458.44 280.322 457.927 280.987 457.192 281.081C456.468 281.162 455.803 280.649 455.71 279.914C455.628 279.19 456.141 278.525 456.876 278.432C457.6 278.35 458.265 278.863 458.358 279.599Z" fill="#F5FBEF"/>
<path d="M385.578 365.226C385.66 365.88 385.193 366.475 384.528 366.557C383.875 366.638 383.28 366.171 383.198 365.506C383.116 364.853 383.583 364.258 384.248 364.176C384.902 364.094 385.497 364.561 385.578 365.226Z" fill="#F5FBEF"/>
<path d="M444.741 399.265C444.834 400.024 444.286 400.724 443.527 400.805C442.769 400.899 442.069 400.35 441.987 399.592C441.894 398.833 442.442 398.133 443.201 398.051C443.959 397.958 444.659 398.507 444.741 399.265Z" fill="#F5FBEF"/>
<path d="M339.847 404.621C339.917 405.24 339.486 405.8 338.867 405.87C338.249 405.94 337.689 405.508 337.619 404.889C337.549 404.271 337.98 403.711 338.599 403.641C339.217 403.571 339.777 404.003 339.847 404.621Z" fill="#F5FBEF"/>
<path d="M334.55 354.176C334.666 355.179 333.955 356.078 332.951 356.206C331.947 356.323 331.049 355.611 330.921 354.607C330.804 353.604 331.516 352.705 332.519 352.577C333.523 352.46 334.421 353.172 334.55 354.176Z" fill="#F5FBEF"/>
<path d="M321.434 360.827C321.527 361.574 320.99 362.251 320.243 362.332C319.496 362.414 318.82 361.889 318.738 361.142C318.645 360.395 319.181 359.718 319.928 359.637C320.675 359.543 321.352 360.08 321.434 360.827Z" fill="#F5FBEF"/>
<path d="M290.114 316.975C290.184 317.546 289.775 318.072 289.192 318.142C288.62 318.212 288.095 317.803 288.025 317.22C287.955 316.648 288.363 316.123 288.947 316.053C289.519 315.983 290.044 316.391 290.114 316.975Z" fill="#F5FBEF"/>
<path d="M320.302 346.824C320.43 347.863 319.683 348.796 318.645 348.925C317.606 349.053 316.673 348.306 316.544 347.268C316.416 346.229 317.163 345.295 318.201 345.167C319.24 345.039 320.173 345.786 320.302 346.824Z" fill="#F5FBEF"/>
<path d="M430.236 415.415C430.306 416.045 429.863 416.629 429.221 416.699C428.591 416.769 428.007 416.325 427.937 415.683C427.867 415.042 428.311 414.47 428.953 414.4C429.583 414.33 430.166 414.773 430.236 415.415Z" fill="#F5FBEF"/>
<path d="M421.671 403.209C421.764 403.991 421.204 404.703 420.422 404.796C419.641 404.889 418.929 404.329 418.835 403.548C418.742 402.766 419.302 402.054 420.084 401.961C420.866 401.867 421.578 402.427 421.671 403.209Z" fill="#F5FBEF"/>
<path d="M376.64 377.152C376.792 378.389 375.905 379.521 374.656 379.673C373.419 379.824 372.287 378.937 372.136 377.689C371.984 376.452 372.871 375.32 374.119 375.168C375.356 375.017 376.488 375.904 376.64 377.152Z" fill="#F5FBEF"/>
<path d="M349.859 417.702C349.999 418.916 349.136 420.013 347.934 420.153C346.72 420.293 345.624 419.429 345.484 418.227C345.343 417.014 346.207 415.917 347.409 415.777C348.622 415.637 349.719 416.5 349.859 417.702Z" fill="#F5FBEF"/>
<path d="M364.586 277.953C364.667 278.653 364.166 279.295 363.466 279.377C362.765 279.459 362.124 278.957 362.042 278.257C361.96 277.557 362.462 276.915 363.162 276.833C363.862 276.751 364.504 277.253 364.586 277.953Z" fill="#F5FBEF"/>
<path d="M378.997 261.301C379.137 262.445 378.309 263.495 377.165 263.624C376.022 263.752 374.971 262.935 374.843 261.792C374.703 260.648 375.531 259.598 376.675 259.469C377.819 259.329 378.869 260.158 378.997 261.301Z" fill="#F5FBEF"/>
<path d="M397.423 254.16C397.563 255.35 396.722 256.424 395.532 256.564C394.342 256.704 393.268 255.864 393.128 254.673C392.988 253.483 393.829 252.41 395.019 252.27C396.209 252.13 397.283 252.97 397.423 254.16Z" fill="#F5FBEF"/>
<path d="M352.497 257.066C352.613 258.069 351.901 258.979 350.898 259.096C349.894 259.213 348.984 258.501 348.868 257.497C348.751 256.494 349.463 255.584 350.466 255.467C351.47 255.35 352.38 256.062 352.497 257.066Z" fill="#F5FBEF"/>
<path d="M344.083 274.861C344.223 276.086 343.36 277.195 342.134 277.335C340.909 277.475 339.801 276.611 339.661 275.386C339.521 274.161 340.384 273.052 341.609 272.912C342.835 272.772 343.943 273.636 344.083 274.861Z" fill="#F5FBEF"/>
<path d="M384.05 324.583C384.178 325.715 383.385 326.73 382.253 326.87C381.133 326.998 380.106 326.205 379.966 325.073C379.837 323.941 380.631 322.926 381.763 322.786C382.895 322.657 383.91 323.451 384.05 324.583Z" fill="#F5FBEF"/>
<path d="M369.662 355.086C369.732 355.681 369.312 356.218 368.717 356.288C368.121 356.358 367.585 355.938 367.515 355.343C367.445 354.747 367.865 354.211 368.46 354.141C369.055 354.071 369.592 354.491 369.662 355.086Z" fill="#F5FBEF"/>
<path d="M429.268 319.203C429.384 320.149 428.707 321.012 427.762 321.117C426.817 321.234 425.954 320.557 425.849 319.612C425.732 318.667 426.409 317.803 427.354 317.698C428.299 317.581 429.163 318.258 429.268 319.203Z" fill="#F5FBEF"/>
</svg>
