<svg width="129" height="99" viewBox="0 0 129 99" fill="none" xmlns="http://www.w3.org/2000/svg">
<path fill-rule="evenodd" clip-rule="evenodd" d="M24.63 12.3315C25.08 12.4415 25.27 12.7915 25.8 12.8215C24.85 12.1315 23.73 11.1415 22.49 11.0715C22.93 11.9415 24.65 12.0015 24.54 13.1115C25.57 13.5115 26.45 14.0615 27.17 14.7715C25.77 14.4915 24.93 13.6415 23.47 13.4115C23.5 13.9415 23.61 14.0515 23.27 14.2915C23.83 15.0615 24.85 15.3715 25.32 16.2415C25.61 15.7915 24.77 15.6215 24.74 15.1715C25.41 14.9215 25.7 16.2315 26.59 15.7515C26.64 15.1515 26.11 15.1315 25.81 14.8715C26.26 14.4215 27.34 15.3615 27.86 15.1615C27.3 14.0915 25.68 13.2515 24.65 12.3415L24.63 12.3315Z" fill="#748B75"/>
<path fill-rule="evenodd" clip-rule="evenodd" d="M19.57 12.8116C19.45 13.9516 21.76 15.0316 22.59 13.6916C22.57 12.3516 19.74 11.1916 19.57 12.8116ZM20.25 12.9116C20.66 12.6216 21.81 12.7816 21.71 13.5916C21.04 13.9116 20.39 13.4316 20.25 12.9116Z" fill="#748B75"/>
<path fill-rule="evenodd" clip-rule="evenodd" d="M22.39 19.4416C21.46 20.2216 23.15 22.4416 23.85 20.9016C23.83 20.0416 22.94 18.9716 22.39 19.4416ZM23.07 20.6116C22.69 20.7216 22.68 20.0316 22.97 20.0316C23.14 20.2416 23.19 20.3216 23.07 20.6116Z" fill="#748B75"/>
<path fill-rule="evenodd" clip-rule="evenodd" d="M31.26 22.3616C28.32 21.5916 31.53 26.1316 32.23 23.7216C32.44 22.9916 31.69 22.4716 31.26 22.3616ZM31.65 23.5316C31.3 23.7616 30.68 23.5616 30.68 23.1416C30.84 22.6116 31.82 22.8716 31.65 23.5316Z" fill="#748B75"/>
<path fill-rule="evenodd" clip-rule="evenodd" d="M38.85 22.9416C38.61 23.1916 38.95 23.4115 39.04 23.6215C38.86 23.9215 38.45 24.0016 38.36 24.4016C38.86 25.5816 41.02 26.0116 42.35 25.4716C43.1 23.5816 40.41 22.2016 38.84 22.9416H38.85ZM39.24 24.4016C39.79 23.8416 41.65 23.7816 41.87 24.7916C41.22 25.4416 39.67 24.8916 39.24 24.4016Z" fill="#748B75"/>
<path fill-rule="evenodd" clip-rule="evenodd" d="M49.96 29.0816C49.81 29.9616 51.07 30.9016 52.01 30.1516C52.34 28.4616 50.19 27.7616 49.96 29.0816ZM51.23 29.7616C50.89 29.7416 50.74 29.5416 50.65 29.2716C50.9 28.8416 51.61 29.3116 51.23 29.7616Z" fill="#748B75"/>
<path fill-rule="evenodd" clip-rule="evenodd" d="M55.51 28.9816C54.97 28.8916 53.9 28.0416 53.56 28.6916C56.6 29.5416 58.78 31.2616 61.55 32.3916C59.84 30.9616 58.22 29.4216 56 28.4916C55.58 28.4016 55.83 28.9716 55.51 28.9816ZM58.04 30.3416C57.8 30.2816 57.54 30.2516 57.55 29.9516C57.79 30.0016 58.05 30.0316 58.04 30.3416ZM57.07 29.7616C56.77 29.8316 56.78 29.5916 56.49 29.6616C56.5 29.2316 57.09 29.3816 57.07 29.7616Z" fill="#748B75"/>
<path fill-rule="evenodd" clip-rule="evenodd" d="M15.28 29.1816C16.16 29.8316 16.82 30.6916 17.91 31.1316C16.99 30.5216 16.57 29.4216 15.28 29.1816Z" fill="#748B75"/>
<path fill-rule="evenodd" clip-rule="evenodd" d="M43.33 30.5415C42.49 30.3615 41.68 30.9715 41.67 31.8115C41.66 33.3715 45.12 34.2215 44.89 32.1015C44.82 31.4415 44.18 30.7315 43.33 30.5415ZM44.3 32.5915C43.55 33.0715 42.33 32.5415 42.35 31.6215C42.53 31.2815 42.92 31.1515 43.42 31.1315C43.22 31.8315 44.56 31.5415 44.3 32.5915Z" fill="#748B75"/>
<path fill-rule="evenodd" clip-rule="evenodd" d="M29.99 31.5216C30.54 32.8316 32.92 33.9816 34.18 35.2216C33.55 33.9916 31.34 32.6716 29.99 31.5216Z" fill="#748B75"/>
<path fill-rule="evenodd" clip-rule="evenodd" d="M59.41 33.6616C57.4 34.0816 58.34 37.5116 60.77 36.7816C60.99 36.5416 61.15 36.2516 61.26 35.9016C61.57 35.8516 61.52 36.2416 61.75 36.0016C61.25 34.9916 60.96 33.3416 59.41 33.6616ZM60.58 36.1016C59.59 36.5016 58.55 35.7116 59.02 34.6416C59.82 34.4616 60.93 35.1416 60.58 36.1016Z" fill="#748B75"/>
<path fill-rule="evenodd" clip-rule="evenodd" d="M37.78 34.9316C38.98 36.2716 40.45 37.3216 41.87 38.4416C40.62 37.1516 39.56 35.6916 37.78 34.9316Z" fill="#748B75"/>
<path fill-rule="evenodd" clip-rule="evenodd" d="M68.66 36.8716C66.45 35.6516 66.55 39.6216 68.76 39.1116C69.78 38.8716 69.26 37.2016 68.66 36.8716ZM68.66 38.4316C68.13 38.3116 67.59 38.2016 67.59 37.5516C68.16 37.2216 69.11 37.7416 68.66 38.4316Z" fill="#748B75"/>
<path fill-rule="evenodd" clip-rule="evenodd" d="M70.8 37.3615C71.15 37.3315 71.27 37.5415 71.58 37.5515C71.46 37.2815 70.91 36.8115 70.8 37.3615Z" fill="#748B75"/>
<path fill-rule="evenodd" clip-rule="evenodd" d="M71.87 37.8516C74.48 39.1716 76.59 40.9916 78.88 42.6216C76.86 40.4716 74.54 38.9016 72.06 37.6516C71.89 37.6116 71.88 37.7216 71.86 37.8516H71.87Z" fill="#748B75"/>
<path fill-rule="evenodd" clip-rule="evenodd" d="M96.71 39.8016C96.82 41.4516 99.43 42.1016 100.22 40.6816C99.62 39.6516 97.59 38.2916 96.71 39.8016ZM97.49 40.1916V39.8016H97.88C97.92 40.1016 97.79 40.2416 97.49 40.1916ZM97.98 40.3816C98.39 40.2616 99.42 40.1016 99.44 40.6716C98.99 40.8916 98.18 40.7216 97.98 40.3816Z" fill="#748B75"/>
<path fill-rule="evenodd" clip-rule="evenodd" d="M12.55 40.4816C12.34 40.2016 11.93 40.1316 11.48 40.0916C11.53 40.5316 12.21 40.3316 12.55 40.4816Z" fill="#748B75"/>
<path fill-rule="evenodd" clip-rule="evenodd" d="M14.6 40.8716C14.7 41.1216 15 41.1916 15.38 41.1616C15.34 40.8416 14.9 40.9216 14.6 40.8716Z" fill="#748B75"/>
<path fill-rule="evenodd" clip-rule="evenodd" d="M74.5 42.1316C74.38 43.1216 76.46 44.3116 77.32 43.4016C77.67 41.6316 74.68 40.6216 74.5 42.1316ZM76.64 43.1016C75.89 43.0416 75.32 42.8016 75.18 42.1316C75.49 41.7416 76.06 42.1316 76.54 42.1316C76.56 42.4616 76.87 42.8316 76.64 43.1016Z" fill="#748B75"/>
<path fill-rule="evenodd" clip-rule="evenodd" d="M91.35 41.8416C91.76 42.2516 92.2 42.6116 92.71 42.9116C92.44 42.3716 91.98 42.0116 91.35 41.8416Z" fill="#748B75"/>
<path fill-rule="evenodd" clip-rule="evenodd" d="M64.57 43.5015C64.19 45.0015 67.37 45.7316 67.39 44.1816C67.41 43.0316 65.37 42.8215 64.57 43.5015ZM65.45 43.8916C65.91 43.8816 66.68 43.5715 66.72 44.2815C66.29 44.5015 65.51 44.3516 65.45 43.8916Z" fill="#748B75"/>
<path fill-rule="evenodd" clip-rule="evenodd" d="M82.88 43.8916C82.99 44.3616 83.5 44.4416 83.56 44.9616C84.01 44.8116 84.36 44.8916 84.73 45.0616C84.31 44.5116 83.58 43.8516 82.88 43.8916Z" fill="#748B75"/>
<path fill-rule="evenodd" clip-rule="evenodd" d="M97.88 46.3216C98.64 46.2016 99.31 45.9916 99.93 45.7416V45.3516C99.14 45.1916 98.09 45.5816 97.88 46.3216Z" fill="#748B75"/>
<path fill-rule="evenodd" clip-rule="evenodd" d="M78.89 46.6215C78.72 47.8215 80.54 48.0515 81.62 47.5915C83.48 45.2515 79.11 45.1315 78.89 46.6215ZM79.57 46.7216C79.92 46.3016 80.6 46.6316 80.64 47.1116C80.22 47.3816 79.71 47.0416 79.57 46.7216ZM80.93 47.0116C80.93 46.6216 80.73 46.4316 80.73 46.0416C81.43 45.8916 81.7 47.0416 80.93 47.0116Z" fill="#748B75"/>
<path fill-rule="evenodd" clip-rule="evenodd" d="M84.63 46.6215C84.88 46.4615 84.46 46.1515 84.44 45.9415C84.15 46.1415 84.57 46.4515 84.63 46.6215Z" fill="#748B75"/>
<path fill-rule="evenodd" clip-rule="evenodd" d="M106.65 47.0016C107.9 47.1116 108.41 47.9716 109.67 48.0716C109.37 47.1516 107.56 46.0716 106.65 47.0016Z" fill="#748B75"/>
<path fill-rule="evenodd" clip-rule="evenodd" d="M70.02 47.7816C69.83 49.3216 72.13 50.9116 73.53 49.6316C73.81 47.3716 71.18 46.0716 70.02 47.7816ZM73.04 49.1416C72.77 50.0016 70.81 49.2816 70.8 48.3616C71.41 47.5416 73.3 48.3216 73.04 49.1416Z" fill="#748B75"/>
<path fill-rule="evenodd" clip-rule="evenodd" d="M83.85 47.7815C83.42 47.7815 83.78 48.3515 84.05 48.2715C84.12 47.9715 83.78 48.0815 83.85 47.7815Z" fill="#748B75"/>
<path fill-rule="evenodd" clip-rule="evenodd" d="M53.76 48.1715C56.19 50.1015 58.57 52.0615 61.36 53.6215C59.07 51.6915 56.43 50.1115 54.25 48.0715C54.02 48.0415 53.88 48.0915 53.76 48.1715Z" fill="#748B75"/>
<path fill-rule="evenodd" clip-rule="evenodd" d="M101.39 49.0516C101.58 49.6116 102.27 49.6616 102.85 49.8316C102.94 49.6616 103.12 49.5816 103.04 49.2516C102.57 49.1216 101.75 48.6916 101.39 49.0616V49.0516Z" fill="#748B75"/>
<path fill-rule="evenodd" clip-rule="evenodd" d="M85.51 51.2915C86.23 51.0215 87.37 50.3615 87.85 49.5415C86.58 49.6315 85.94 50.3615 85.51 51.2915Z" fill="#748B75"/>
<path fill-rule="evenodd" clip-rule="evenodd" d="M91.26 51.2916C92.11 51.3916 93.52 50.7916 93.4 49.9316C92.47 50.1716 91.74 50.6116 91.26 51.2916Z" fill="#748B75"/>
<path fill-rule="evenodd" clip-rule="evenodd" d="M24.05 50.0216C24.06 50.2316 24.3 50.2316 24.54 50.2216C24.61 49.8816 24.2 49.8716 24.05 50.0216Z" fill="#748B75"/>
<path fill-rule="evenodd" clip-rule="evenodd" d="M108.21 50.3216C108.78 50.8616 109.73 51.5216 110.55 51.4916C110.32 50.6016 109.2 50.1316 108.21 50.3216Z" fill="#748B75"/>
<path fill-rule="evenodd" clip-rule="evenodd" d="M55.31 51.4916C56.71 52.5516 58.47 53.7816 59.69 54.7016C58.51 53.3416 57.09 52.2316 55.31 51.4916Z" fill="#748B75"/>
<path fill-rule="evenodd" clip-rule="evenodd" d="M116.68 53.7315C117.07 54.3415 117.5 54.9215 118.14 55.2915C118.42 54.4415 117.51 53.4815 116.68 53.7315Z" fill="#748B75"/>
<path fill-rule="evenodd" clip-rule="evenodd" d="M55.02 53.8215C56.07 54.7915 57.54 55.3315 58.53 56.3515C58.01 55.3115 56.29 54.1115 55.02 53.8215Z" fill="#748B75"/>
<path fill-rule="evenodd" clip-rule="evenodd" d="M115.71 56.4515C116.1 57.2315 116.52 57.9815 117.36 58.3015C117.8 57.4815 116.37 56.4915 115.71 56.4515Z" fill="#748B75"/>
<path fill-rule="evenodd" clip-rule="evenodd" d="M55.12 56.6516C55.03 56.6516 55.05 56.7716 55.02 56.8516C56.2 57.8816 57.61 58.6816 58.82 59.6716C58.02 58.2316 56.46 57.5516 55.12 56.6516Z" fill="#748B75"/>
<path fill-rule="evenodd" clip-rule="evenodd" d="M78.5 59.4716C79.15 59.2516 79.59 57.9916 79.28 57.4216C78.62 57.7016 78.54 58.5616 78.5 59.4716Z" fill="#748B75"/>
<path fill-rule="evenodd" clip-rule="evenodd" d="M98.86 58.3016C98.88 58.9316 99.58 58.8816 100.22 58.8916C100.06 58.3416 99.4 57.9116 98.86 58.3016Z" fill="#748B75"/>
<path fill-rule="evenodd" clip-rule="evenodd" d="M107.92 59.1816C109.07 59.8716 109.85 60.9516 110.94 61.7116C110.18 60.6216 109.8 59.1516 107.92 59.1816Z" fill="#748B75"/>
<path fill-rule="evenodd" clip-rule="evenodd" d="M122.14 59.4715C122.03 59.4515 121.97 59.4915 121.94 59.5715C122.25 60.6015 122.68 61.4915 123.4 62.1015C123.4 62.0115 123.52 62.0215 123.59 62.0015C123.82 60.8215 122.44 60.4315 122.13 59.4715H122.14Z" fill="#748B75"/>
<path fill-rule="evenodd" clip-rule="evenodd" d="M90.48 61.2316C91.3 61.1116 91.44 60.3116 92.43 60.3516C92.39 59.1116 90.37 60.2216 90.48 61.2316Z" fill="#748B75"/>
<path fill-rule="evenodd" clip-rule="evenodd" d="M120.68 62.4916C120.95 63.3816 121.17 64.3316 121.85 64.8316C122.64 63.9616 121.34 62.8716 120.68 62.4916Z" fill="#748B75"/>
<path fill-rule="evenodd" clip-rule="evenodd" d="M41.78 63.9515C42.02 63.9615 42.08 64.1315 42.27 63.9515C42.22 63.8715 42.17 63.7915 42.17 63.6615C41.91 63.6315 41.75 63.7015 41.78 63.9515Z" fill="#748B75"/>
<path fill-rule="evenodd" clip-rule="evenodd" d="M78.01 64.8315C77.81 65.5415 78.05 66.5915 78.3 67.1715C78.7 66.9115 78.96 64.6715 78.01 64.8315Z" fill="#748B75"/>
<path fill-rule="evenodd" clip-rule="evenodd" d="M88.53 67.7516C88.91 67.0916 89.3 66.4416 89.5 65.6116C88.5 65.5716 88.14 67.0416 88.53 67.7516Z" fill="#748B75"/>
<path fill-rule="evenodd" clip-rule="evenodd" d="M75.38 69.2116C75.85 68.4716 75.87 67.1916 76.06 66.3816C75.04 66.6016 75.11 68.2316 75.38 69.2116Z" fill="#748B75"/>
<path fill-rule="evenodd" clip-rule="evenodd" d="M124.86 67.0716C125.03 68.6616 124.97 71.0616 124.86 72.6216C125.6 71.3016 125.73 68.5116 125.15 66.9716C124.99 66.9416 124.98 67.0616 124.86 67.0716Z" fill="#748B75"/>
<path fill-rule="evenodd" clip-rule="evenodd" d="M122.53 72.9116C123 72.0216 122.89 70.1316 123.02 68.6216H122.82C122.2 69.4716 122.08 71.9116 122.53 72.9116Z" fill="#748B75"/>
<path fill-rule="evenodd" clip-rule="evenodd" d="M104.02 68.9216C104.61 69.9516 104.91 71.2116 104.6 72.4316C105.64 71.8916 105.6 68.8216 104.02 68.9216Z" fill="#748B75"/>
<path fill-rule="evenodd" clip-rule="evenodd" d="M124.38 77.4016C125.14 77.0716 125.46 75.0316 124.96 74.3816C124 74.6216 124.69 76.5116 124.38 77.4016Z" fill="#748B75"/>
<path fill-rule="evenodd" clip-rule="evenodd" d="M85.9 74.4716C86.06 75.5016 86.83 76.3716 87.65 76.4216C87.5 75.3416 86.68 74.9216 85.9 74.4716Z" fill="#748B75"/>
<path fill-rule="evenodd" clip-rule="evenodd" d="M115.8 76.8116C116.37 76.6716 116.71 75.5716 116.29 75.0616C115.4 75.0516 115.81 76.2316 115.8 76.8116Z" fill="#748B75"/>
<path fill-rule="evenodd" clip-rule="evenodd" d="M75.77 78.8615C75.86 77.9115 75.79 76.3115 75.38 75.5515C74.69 76.3615 75.34 78.2115 75.77 78.8615Z" fill="#748B75"/>
<path fill-rule="evenodd" clip-rule="evenodd" d="M78.01 75.8416C78.2 76.7016 78.66 78.1016 79.28 78.8616C79.04 77.6716 79 76.2816 78.01 75.8416Z" fill="#748B75"/>
<path fill-rule="evenodd" clip-rule="evenodd" d="M121.65 79.6415C122.38 78.9615 122.83 77.5115 123.11 76.7215C122.05 76.6315 121.44 78.7715 121.65 79.6415Z" fill="#748B75"/>
<path fill-rule="evenodd" clip-rule="evenodd" d="M106.45 79.6416C107.45 79.5316 107.38 78.3616 107.52 77.4016C107.3 77.3016 107.21 77.0716 106.84 77.1116C106.88 77.9416 106.68 78.8216 106.45 79.6416Z" fill="#748B75"/>
<path fill-rule="evenodd" clip-rule="evenodd" d="M99.34 82.5615C100.14 82.0615 101.26 81.3715 101.19 80.3215C100.29 80.7815 99.58 81.4415 99.34 82.5615Z" fill="#748B75"/>
<path fill-rule="evenodd" clip-rule="evenodd" d="M90.77 80.9016C91.06 81.5516 93.38 81.4616 93.69 80.9016C93.11 80.3416 91.5 80.7116 90.77 80.9016Z" fill="#748B75"/>
<path fill-rule="evenodd" clip-rule="evenodd" d="M76.74 81.9716C77.2 82.8716 77.53 83.9116 78.4 84.4016C78.51 83.3716 77.42 82.2016 76.74 81.9716Z" fill="#748B75"/>
<path fill-rule="evenodd" clip-rule="evenodd" d="M119.21 85.2915C120.45 84.9115 120.63 83.4615 121.16 82.3715C119.96 82.3515 119.47 84.3715 119.21 85.2915Z" fill="#748B75"/>
<path fill-rule="evenodd" clip-rule="evenodd" d="M113.86 82.8516C113.24 83.2416 113.01 84.0116 112.69 84.7016C113.71 84.7016 114.25 83.7416 114.05 82.8516H113.85H113.86Z" fill="#748B75"/>
<path fill-rule="evenodd" clip-rule="evenodd" d="M80.45 87.2316C80.71 88.1416 81.02 89.0016 81.52 89.6716C81.46 88.9416 81.43 87.3716 80.45 87.2316Z" fill="#748B75"/>
<path fill-rule="evenodd" clip-rule="evenodd" d="M114.83 87.9115C114.61 88.3415 114.16 88.5416 114.05 89.0816C114.84 89.3616 115.49 88.7115 115.61 88.0115C115.47 87.8615 115.11 87.9215 114.83 87.9115Z" fill="#748B75"/>
<path fill-rule="evenodd" clip-rule="evenodd" d="M88.53 90.0616C89.32 90.5516 90.42 91.2116 91.55 91.0316C91.18 90.1716 89.33 89.8516 88.53 90.0616Z" fill="#748B75"/>
<path fill-rule="evenodd" clip-rule="evenodd" d="M107.33 90.8416C106.46 91.0916 105.35 91.9116 104.89 92.8916C105.98 92.9016 106.77 91.7916 107.42 91.0416C107.43 90.9316 107.4 90.8716 107.32 90.8416H107.33Z" fill="#748B75"/>
<path fill-rule="evenodd" clip-rule="evenodd" d="M93.69 92.2016C94.54 92.4216 95.16 91.6016 95.93 91.4216C95.45 90.3916 93.97 91.5316 93.69 92.2016Z" fill="#748B75"/>
<path fill-rule="evenodd" clip-rule="evenodd" d="M85.41 92.7916C85.04 92.1816 83.97 92.2816 83.36 91.9116C83.14 92.7416 84.66 93.4716 85.41 92.7916Z" fill="#748B75"/>
<path fill-rule="evenodd" clip-rule="evenodd" d="M88.82 93.0816C89.13 93.6416 89.82 93.8316 90.38 94.1516C90.16 93.4616 89.71 92.5316 88.82 93.0816Z" fill="#748B75"/>
<path fill-rule="evenodd" clip-rule="evenodd" d="M95.54 94.8315C96.45 95.1415 98.53 94.9715 99.24 94.4415C98.28 93.7415 96.28 94.3615 95.54 94.8315Z" fill="#748B75"/>
<path fill-rule="evenodd" clip-rule="evenodd" d="M125.55 59.3815C122.67 54.1415 118.31 50.3916 113.57 47.0116C113.25 46.9416 113.46 46.3416 113.18 46.2316C107.41 43.4616 102.17 40.1616 96.82 36.9816C98.28 36.1616 98.07 33.4915 97.31 31.6215C96.36 29.2815 92.84 26.2916 90.01 25.5816C88.19 25.1316 86.37 25.2415 85.14 24.2215C84.42 23.6115 83.74 20.4816 82.9 20.4216C81.74 20.3416 81.16 24.4216 79.78 24.6116C79.11 18.4316 72.14 18.5516 67.7 16.1416C66.45 15.7616 65.44 12.9615 64.19 13.2215C63.3 13.4115 63.53 15.3315 62.63 15.7515C61.97 15.6815 61.6 14.5216 61.17 13.9016C59.04 11.5816 55.24 10.9315 52.7 9.03154C52.34 8.16154 51.91 7.35154 51.43 6.59154C49.43 7.38154 48.49 9.24154 46.46 10.0015C45.74 7.12154 44.48 5.24155 42.08 4.16155C39.72 3.09155 36.86 2.89155 36.24 0.0715515C35.1 -0.378448 34.63 1.42156 33.8 1.92156C31.79 2.51156 29.4 1.44157 27.66 2.21157C21.29 1.68157 14.96 4.24156 10.91 7.67156C8.7 9.53156 6.59 12.2915 4.87 14.9715C3.94 16.4215 3.13 17.6716 2.63 19.4516C1.98 21.7816 0.460009 23.5116 0.290009 26.2716C0.110009 29.1916 0 32.1215 0 34.9415C5.21 39.0615 10.12 44.0416 15.78 47.9916C21.46 51.9516 26.57 56.5916 32.34 60.1716C33.18 60.6916 34.2 61.3715 34.58 62.4115C41.12 66.5915 47.4 72.2515 53.87 76.6315C57.09 78.8115 60.05 81.3916 63.22 83.4516C66.56 85.6116 69.68 87.8916 72.77 89.9816C73.17 90.2515 73.52 90.8115 73.84 91.3415C74.2 91.4415 73.99 90.9716 74.33 91.0516C75.94 92.2616 77.98 93.0516 79.2 94.6516C80.66 94.6516 82.34 96.0315 83.68 96.7915C85.39 96.5216 87.14 97.6115 88.45 98.3515C92.57 98.1415 99.92 99.7116 103.45 97.1816C103.85 98.0716 104.47 98.4215 106.08 98.2515C109.18 97.9315 112.66 95.5716 114.65 93.9616C116.15 92.7516 118.2 90.8715 119.62 89.0915C122.25 85.7915 125.06 82.5816 126.54 78.5715C127.56 75.8115 128.88 70.7115 128.1 66.8815C127.53 64.1015 126.15 61.8415 125.57 59.3815H125.55ZM101.78 41.1615C101.31 41.2416 101.19 40.4615 100.71 40.8715C100.79 41.4415 101.31 41.5616 101.49 42.0416C100.92 42.0616 100.97 41.4516 100.42 41.4616C100.04 42.0416 100.84 42.1815 101.01 42.5315C97.89 42.1215 96.05 40.4116 94.19 38.5416C94.64 38.2516 95.11 38.4415 95.75 38.2515C95.83 38.4915 95.72 38.9216 96.04 38.9316C96.36 38.7316 96.22 38.0716 96.43 37.7616C98.03 39.0816 100.43 39.6016 101.79 41.1716L101.78 41.1615ZM101.29 43.6016C100.5 43.5616 99.84 43.6416 99.15 43.7016C99.3 43.0916 100.99 43.2116 101.29 43.6016ZM95.64 43.1116C95.32 43.7116 93.89 43.8216 93.4 43.4016C93.44 43.5816 93.68 43.5816 93.6 43.8916C91.41 44.4316 89.87 41.9515 88.24 40.9715C89.96 41.3815 90.78 40.5916 91.65 39.9016C91.95 40.4016 92.52 40.0816 92.92 39.9016C94.35 40.8116 95.55 41.9416 96.72 43.1116C95.96 42.9916 95.41 42.3615 95.26 41.9415C93.76 42.5115 92.99 40.2916 91.56 40.4816C93.03 41.2516 94.19 42.3316 95.65 43.1116H95.64ZM92.13 44.3815C91.87 44.6115 91.48 44.7016 91.06 44.7716C89.41 44.0516 87.82 42.6916 86.19 41.6516C86.98 41.6916 87.67 41.6416 88.24 41.4516C89.52 42.4416 91.03 43.2015 92.14 44.3715L92.13 44.3815ZM89.21 28.1116C91.59 29.4116 95.37 33.3615 93.79 37.8516C93.54 38.5616 92.78 39.0215 91.94 39.3115C93.48 34.4715 89.9 31.2716 89.21 28.1116ZM93.5 39.4115C95.05 39.1615 96 41.1916 97.01 42.1416C97.48 42.0416 98.29 42.2415 98.47 42.7215C96.24 43.0615 95.01 40.6715 93.5 39.4115ZM94.57 36.6816V35.1215C95 35.3315 95.11 36.5616 94.57 36.6816ZM94.96 29.1816C96.78 31.0916 98.75 35.9516 95.35 37.1716C95.62 35.7116 95.13 34.4516 94.67 33.5716C93.5 31.3316 92.17 29.2616 90.19 28.0216C88.93 27.2316 87.19 26.9116 86.68 25.3916C89.49 26.1216 92.78 26.9015 94.96 29.1915V29.1816ZM83.86 23.7316C85.96 27.1916 91.19 30.8216 91.65 35.5216C91.8 37.0616 90.64 38.8015 90.58 40.0015C89.95 40.4015 89.03 40.2816 88.44 39.9016C90.01 31.9616 84.32 30.0416 83.57 23.8316C83.69 23.8316 83.71 23.7116 83.86 23.7316ZM83.08 25.1915C83.1 25.1215 83.16 25.0815 83.28 25.0915C84.64 30.3415 89.5 33.2216 87.56 40.5816C83.89 40.5116 85.57 35.9116 84.83 33.5716C84.16 31.4316 82.14 28.6615 83.08 25.1915ZM82.4 28.1116C82.62 30.5916 83.31 31.5115 84.15 33.4715C84.93 35.2815 83.71 38.5316 84.73 39.7016C83.31 40.1916 82.39 38.9016 81.81 37.9516C81.5 37.9016 81.47 38.1316 81.13 38.0516C78.75 33.7616 80.41 27.2816 82.4 23.7316C82.61 25.0116 82.28 26.7516 82.4 28.1116ZM80.94 24.8016H81.23C79.05 28.8916 78.7 35.6816 81.13 39.7016C80.61 39.9016 80.13 39.2915 79.28 39.5015C77.55 38.0615 76.2 35.4616 76.36 32.6816C76.56 29.0416 80.2 27.7016 80.94 24.7916V24.8016ZM75.78 32.5915C75.62 35.0715 76.99 37.6715 77.73 39.3115C75.6 38.6315 73.48 35.8815 73.64 33.5615C73.76 31.9115 74.71 31.0916 75.49 29.8616C76.68 27.9716 78.25 26.5816 79.68 25.6716C78.69 28.1016 76 29.2315 75.78 32.5915ZM73.15 34.8316C73.18 35.0616 73.14 35.2016 73.05 35.3216C72.72 35.3016 72.63 35.0316 72.56 34.7416C72.8 34.7316 73.03 34.7315 73.14 34.8415L73.15 34.8316ZM72.47 32.7916C72.58 32.7116 72.73 32.6615 72.96 32.6915C73.04 32.8015 73.09 32.9516 73.06 33.1816C72.69 33.2216 72.62 32.9716 72.48 32.7916H72.47ZM72.76 31.3316C73.22 31.3716 73.27 31.0016 73.73 31.0416C73.63 31.4316 73.56 31.8516 73.15 31.9216C72.97 31.7816 72.72 31.7015 72.76 31.3415V31.3316ZM77.05 26.8516C77.8 23.4316 75.42 21.5616 73.93 19.7416C77.17 18.5216 81.43 25.2616 77.05 26.8516ZM71.4 18.8616C73.51 20.1916 76.44 22.3516 76.76 25.2916C77 27.5416 73.99 31.4916 71.99 30.2616C73.63 30.1216 73.99 28.6816 75.11 28.0216C76.41 23.4116 73.01 21.3116 71.12 18.9616C71.24 18.9616 71.26 18.8416 71.41 18.8616H71.4ZM72.18 35.6116C71.92 35.9616 71.33 35.3115 71.5 35.2215C71.58 35.5015 72.21 35.2216 72.18 35.6116ZM72.67 29.5716H71.4C73.2 26.1716 71.69 20.8316 69.65 18.8616C72.89 20.5316 77.35 26.5516 72.67 29.5716ZM69.46 29.9616C68.84 29.7316 68.41 29.3215 67.61 29.2815C67.47 26.9115 69.52 26.2616 69.56 23.9216C69.61 21.0216 66.92 19.5816 65.86 17.3016C70.55 18.0816 73.91 26.4616 69.46 29.9616ZM71.11 30.1516C71.19 30.5216 70.67 30.4916 70.53 30.3516C70.45 29.9816 70.97 30.0016 71.11 30.1516ZM66.44 29.1816C62.08 27.4816 64.74 21.9716 66.25 19.0516C67.12 20.7516 68.98 22.2816 68.69 24.6016C68.51 26.0716 66.37 27.2816 66.45 29.1816H66.44ZM67.22 30.1516C66.7 30.1816 66.23 30.5716 66.05 29.9616C66.33 29.7716 67.23 29.5516 67.22 30.1516ZM65.37 29.7616C65.33 30.1116 65.21 30.3815 64.88 30.4415C64.54 30.2215 64.1 30.1216 63.91 29.7616C64.21 29.6016 65.07 29.6016 65.37 29.7616ZM68 30.5416C68.21 30.7616 68.83 30.5615 68.78 31.0315C68.4 31.0515 67.77 30.8116 68 30.5416ZM67.71 31.7116C67.71 31.5416 67.69 31.4116 67.61 31.3216C68.08 30.9516 68.45 31.8016 67.71 31.7116ZM68.68 31.8115C69.59 31.6115 69.76 32.1516 69.75 32.8815C69.01 33.2515 68.09 32.5115 68.68 31.8115ZM69.36 30.6416C69.72 30.7116 69.9 30.4016 70.14 30.6416C70.21 31.0016 69.93 31.0116 69.95 31.3216C70.2 31.3716 70.5 31.6416 70.24 31.9016C69.92 31.5116 69.54 31.1816 69.36 30.6416ZM64.2 16.8115C67.61 18.8315 62.95 22.3816 63.23 25.6716C63.34 27.0116 64.23 27.4316 64.5 28.9816C63.92 28.8416 63.55 29.1016 62.85 29.0816C61.98 27.6816 59.97 26.9216 60.32 24.7016C60.72 22.1716 64.07 19.3515 64.22 16.8115H64.2ZM63.42 29.9616C63.02 30.3116 62.3 29.9316 61.86 30.3516C61.66 29.2016 59.69 29.0316 58.94 28.1116C60.74 28.4216 62.09 29.1816 63.42 29.9616ZM63.32 16.9115C62.94 21.0215 57.75 24.0716 60.69 27.9216C59.22 27.6016 57.9 26.7216 57.67 25.3916C56.98 21.3016 61.59 18.9615 63.32 16.9115ZM54.46 12.8216C56.57 13.6216 58.52 15.7716 58.36 18.8616C57.72 19.2916 57.25 19.8915 56.51 20.2215C57.29 16.9215 55.78 14.8116 54.46 12.8216ZM60.89 18.1816C59.22 19.8916 57.63 21.6815 56.8 24.2215C55.33 20.7415 58.89 19.0916 60.89 18.1816ZM58.75 28.0216C57.48 27.6716 56.2 26.8115 55.73 25.9715C56.79 26.6015 57.81 27.2616 58.75 28.0216ZM61.87 16.5315C61.64 16.5315 61.58 16.7015 61.29 16.6315C61.07 15.7815 60.66 15.1216 60.41 14.2916C61.11 14.8216 61.72 15.4515 61.87 16.5315ZM60.51 16.7215C60.44 17.4715 60.01 18.0316 59.05 18.0816C58.94 13.6816 54.97 13.1315 53.21 10.3815C55.45 11.8615 60.87 13.0316 60.52 16.7116L60.51 16.7215ZM56.03 17.4016C56.35 20.1016 54.95 23.5315 52.33 22.5615C50.82 20.1515 53.69 18.9716 53.89 16.5216C54.05 14.6016 53.33 13.3916 52.82 12.0416C53.81 12.7916 55.78 15.3116 56.03 17.4016ZM51.65 10.9715C52.28 12.9615 53.8 14.5616 53.21 17.0116C52.81 18.6416 51.11 19.9416 50.97 21.6816C49.81 22.1616 48.83 20.9315 48.54 20.1215C47.33 16.8315 51.15 13.6616 51.46 10.6716C51.48 10.8116 51.62 10.8316 51.65 10.9616V10.9715ZM48.63 21.8815C46.61 22.6315 45.29 19.5316 45.81 18.0816C46.74 15.4516 49.84 12.2715 50.68 10.0915C50.15 14.2115 46.01 17.8415 48.63 21.8815ZM47.07 23.0516C46.81 22.9216 46.5 22.8415 46.58 22.3715C46.88 22.5215 47.4 22.4616 47.56 22.7616C47.33 22.7916 47.38 23.1016 47.07 23.0516ZM47.85 24.6116C47.56 24.6116 47.3 24.5715 47.36 24.2215C47.6 24.2715 47.86 24.3016 47.85 24.6116ZM45.8 24.4216C45.67 24.0916 45.19 24.1215 45.02 23.8415H45.6C45.42 24.2215 46.15 24.1816 45.79 24.4216H45.8ZM44.63 22.5716C45.65 22.9116 46.64 23.2915 47.16 24.1315C46.16 23.7715 45.34 23.2216 44.63 22.5716ZM45.31 20.4316C44.29 20.8216 43.62 20.0516 43.36 19.3616C43.53 19.1116 44.03 19.1816 43.94 18.6816C43.78 18.5216 43.41 18.5616 43.26 18.3916C44.28 14.4716 48.12 13.3816 49.79 10.1116C48.69 13.8016 44.53 15.8315 45.31 20.4415V20.4316ZM49.5 8.93157C48.17 12.8716 44.01 13.9616 42.58 17.8016C41.01 16.8116 40.05 15.2516 41.41 13.6116C43.14 11.5216 47.74 10.7016 49.5 8.93157ZM41.32 6.01155C42.39 7.55155 45.3 8.13154 44.63 10.7815C44.03 10.9315 43.62 11.2616 42.97 11.3616C43.15 8.96156 41.79 7.09154 41.31 6.00154L41.32 6.01155ZM45.51 9.52156C44.36 7.36156 42.13 6.28156 40.54 4.55156C43.22 5.11156 45.39 6.71156 45.51 9.52156ZM42.2 12.1516C42.02 12.5916 40.96 13.2716 40.64 13.7116C40.08 14.4716 39.74 15.4216 38.79 15.2716C39.53 13.7616 41.14 12.1016 40.84 9.42156C40.66 7.84156 39.8 6.52156 39.57 5.52156C41.07 6.62156 43.27 9.43156 42.2 12.1416V12.1516ZM38.3 17.6116C38.43 17.1116 39.55 17.8216 39.56 18.3916C39.01 18.2616 38.66 17.9216 38.3 17.6116ZM38.59 18.2916C37.76 18.0216 37.01 17.6616 36.54 17.0216C37.48 17.1216 38.34 17.8116 38.59 18.2916ZM36.84 16.2416C37.75 15.6016 39.08 16.2616 39.27 17.2116C38.44 17.2816 37.33 16.8216 36.84 16.2416ZM40.15 11.4715C39.71 13.3515 37.34 16.4016 35.38 15.0716C35.42 12.8816 38.01 12.2016 38.4 10.3016C38.95 7.60156 36.84 6.13155 36.94 4.07155C38.63 5.28155 40.92 8.19155 40.15 11.4715ZM35.96 4.85155C36.72 6.51155 38.45 8.06156 37.81 10.3016C37.31 12.0516 34.79 12.8915 34.5 14.7815C32.12 15.0815 30.88 13.1816 31.29 11.2716C31.54 10.1016 33.37 9.42154 34.31 8.06154C35.11 6.89154 35.44 5.38155 35.97 4.85155H35.96ZM30.5 12.3516C29.2 12.0915 28.23 11.5016 28.36 9.82155C30.57 7.72155 33.14 5.97157 35.18 3.68157C35.38 8.32157 30.94 8.34155 30.51 12.3516H30.5ZM34.79 3.00154C33.26 6.28154 29.3 7.12154 27.68 10.3115C26.92 9.81154 26.23 9.82156 25.54 9.24156C23.65 3.63156 32.52 5.72155 34.79 3.01155V3.00154ZM33.72 2.81154C32.14 4.61154 27.99 3.83157 25.93 5.15157C26.56 2.14157 30.34 2.41154 33.72 2.81154ZM7.91 11.9715C6.15 14.6315 4.92001 17.8116 3.04001 20.3516C3.84001 16.7316 5.78 14.2615 7.91 11.9715ZM2.46002 22.1016C2.59002 21.8016 3.03001 20.5016 2.85001 21.5216C2.57001 23.1016 1.30999 25.5816 0.899994 26.6816C0.919994 24.5916 1.90002 23.3316 2.46002 22.1016ZM2.85001 32.8216C2.51001 32.7316 2.91 32.5116 2.66 32.3316C2.18 32.2616 2.07 32.2616 1.59 32.3316C1.79 31.4916 2.16001 30.8216 2.17001 29.8016C2.50001 29.7716 2.52001 29.4316 2.95001 29.5116C2.94001 30.5116 3.14 31.1216 2.66 31.6516C3.13 31.5916 3.22001 32.6616 2.85001 32.8216ZM1.39001 30.5816C1.47001 30.2716 1.34999 29.7616 1.67999 29.7016C1.46999 29.8816 1.78001 30.5816 1.39001 30.5816ZM1.88 26.6816C1.45 26.1116 2.09 25.0416 2.37 24.5416C2.45 25.0116 2.5 26.3616 1.88 26.6816ZM1.67999 27.3616C2.08999 28.6216 1.33999 29.5515 0.899994 30.2815C0.899994 29.0515 0.899993 27.8116 1.67999 27.3616ZM2.17001 34.5716C2.12001 34.8116 2.17 35.1616 1.88 35.1516C1.46 34.7416 0.889996 33.2715 1.59 32.9115C1.78 33.7615 3.19999 33.3815 3.14999 34.4715C2.95999 34.6415 2.50999 34.5416 2.17999 34.5716H2.17001ZM3.92001 36.8115C4.09001 37.1615 4.74001 37.0215 4.70001 37.5915C4.28001 37.9515 3.43001 37.0315 3.92001 36.8115ZM5.38 37.1016C4.70001 36.7116 3.73 36.6116 3.34 35.9316C3.88 35.7516 4.16001 36.3415 4.51001 36.0315C4.32001 35.6315 3.55 35.8316 3.44 35.3516C4.01 35.3815 4.82001 35.8815 5.48001 36.1315C5.45001 36.4616 5.56 36.9216 5.38 37.1016ZM3.42999 31.6416C3.83999 31.2116 4.40999 31.8316 5.17999 31.6416C5.39999 32.2216 5.23 32.6716 5.38 33.2016C4.76 33.4016 3.97999 32.9915 3.42999 32.8115V32.4216C3.38999 32.1516 3.79001 32.3316 3.82001 32.1315C3.67001 31.9916 3.47999 31.8816 3.42999 31.6416ZM5.38 33.7815C5.39001 34.0215 5.39 34.2516 5.28 34.3616C4.74 33.9616 3.67 34.0916 3.53 33.2916C4.26 33.3416 4.76 33.6215 5.38 33.7815ZM4.60001 34.8516C4.14001 34.8916 3.78999 34.8215 3.42999 34.7515C3.21999 33.5415 4.46001 34.4216 4.60001 34.8516ZM5.96002 33.7815C6.29002 34.1315 6.94002 34.1616 7.52002 34.2716C7.53002 34.6816 7.97002 35.4815 7.33002 35.4415C7.09002 35.2115 7.47999 35.2616 7.42999 34.9516C7.22999 34.8616 7.05001 34.7515 6.85001 34.6615C6.61001 34.8415 7.05 35.1716 6.66 35.2416C6.11 35.1616 5.44001 34.3115 5.98001 33.7815H5.96002ZM5.76001 33.4916V31.9316C6.45001 31.8916 6.97001 32.0216 7.32001 32.3216C7.25001 32.9416 7.62001 33.5416 7.42001 33.9816C6.84001 33.8516 6.32001 33.6516 5.76001 33.4916ZM6.92999 35.7316V36.2215C6.65999 36.3715 6.17002 36.0516 5.86002 35.9316V35.4415C6.31002 35.4415 6.53999 35.6716 6.92999 35.7316ZM7.03 36.7016V37.3815C6.51 37.4115 6.10001 37.3416 5.76001 37.1816C5.61001 36.1416 6.51 36.4615 7.03 36.6915V36.7016ZM6.06 38.3516C6.02 38.1616 5.68002 38.2716 5.77002 37.9616C6.00002 37.9316 6.15001 37.9715 6.26001 38.0615C6.26001 38.2315 6.19001 38.3116 6.07001 38.3516H6.06ZM6.74002 38.5516C7.01002 38.6116 7.29001 38.6516 7.23001 39.0416C6.96001 38.9816 6.68002 38.9416 6.74002 38.5516ZM7.32001 35.7316C7.90001 35.6416 7.94 36.5016 7.81 36.8016C7.29 36.8316 7.13001 36.1016 7.32001 35.7316ZM7.42001 37.1915C7.55001 37.0615 7.88001 37.0615 8.01001 37.1915V37.4816C7.90001 37.5616 7.75002 37.6116 7.52002 37.5816C7.52002 37.4116 7.50001 37.2815 7.42001 37.1915ZM7.81 38.6516C7.68 38.5216 7.63 37.9715 7.91 37.9715C8.04 38.1015 8.09 38.6516 7.81 38.6516ZM10.25 35.8316C9.63 35.3116 8.15002 35.6615 8.11002 34.5615C8.95002 34.5315 9.42 34.8716 10.25 34.8516C10.16 35.2616 10.5 35.5416 10.25 35.8216V35.8316ZM8.39999 35.9316C9.08999 35.9816 9.73001 36.0915 10.35 36.2215C10.35 36.8615 10.72 37.5816 10.45 38.1716C9.82001 38.0516 9.11001 38.0116 8.70001 37.6816C9.15001 37.3216 7.76 36.7916 8.41 35.9316H8.39999ZM10.93 38.8516C11.54 38.4616 12.37 39.1216 13.27 39.0516C13.27 39.7216 13.64 40.4715 13.47 41.0015C12.59 40.9415 11.97 40.6216 11.13 40.5116C11.32 39.9416 10.93 39.5215 10.93 38.8516ZM11.03 38.3616C10.8 37.9216 10.86 37.1716 10.83 36.3216C11.18 36.2516 11.5 36.6215 11.61 36.2215C11.37 36.0715 11.2 35.8516 10.73 35.9316C10.67 35.7016 10.59 35.4916 10.63 35.1516C11.27 34.8916 12.07 35.2516 12.67 35.3516C12.88 36.3716 13 37.4916 13.06 38.6615C12.36 38.5815 11.66 38.5015 11.01 38.3715L11.03 38.3616ZM10.74 38.7515C10.74 39.1815 10.81 39.6615 10.45 39.7215C9.95001 39.0515 8.39999 39.4316 8.39999 38.2616C9.14999 38.0816 10.16 38.4415 10.74 38.7515ZM8.60001 41.1816C8.85001 41.1916 9.1 41.2015 9.09 41.4715C8.78 41.5215 8.69001 41.3516 8.60001 41.1816ZM8.39999 39.4316C9.23999 39.6316 10.21 39.7016 10.74 40.2116C9.99002 40.3116 8.56999 40.2416 8.39999 39.4316ZM10.74 42.8415C11.28 42.8615 11.59 43.0916 11.71 43.5216C11.18 43.4916 10.75 43.3815 10.74 42.8415ZM11.91 43.6215C12.45 43.4515 13.05 43.8616 13.18 44.4016C12.59 44.3116 12.21 44.0115 11.91 43.6215ZM12.4 43.2316C12.44 43.0016 13.06 42.9116 13.08 43.2316C12.93 43.4316 12.54 43.5116 12.4 43.2316ZM11.33 40.9916C12.26 41.0316 13.05 41.2216 13.76 41.4816C13.74 41.7916 13.83 42.2016 13.66 42.3616C12.84 41.9516 12.02 41.5315 11.32 41.0015L11.33 40.9916ZM13.76 44.9816C13.75 44.7416 13.74 44.5116 13.95 44.4916C14.15 44.6516 14.22 45.0216 13.76 44.9816ZM14.34 43.2316C15.42 43.3116 16.29 43.6215 17.17 43.9115C17.09 44.4315 17.37 44.7116 17.17 45.0816C16.04 44.6516 14.45 44.6816 14.34 43.2316ZM14.14 41.6716C15 41.3816 15.73 42.0216 16.67 41.9616C16.81 42.3116 16.95 42.6615 16.96 43.1315C16.03 42.6315 14.11 43.1316 14.13 41.6716H14.14ZM17.45 44.0116C17.91 43.7616 18.43 44.1716 18.91 44.2016C18.83 44.7416 19.24 45.1816 19.01 45.5716C18.67 45.6516 17.99 45.3116 17.55 45.1816C17.55 44.7616 17.58 44.3016 17.45 44.0116ZM18.72 43.7215C18.33 43.5015 17.79 43.4216 17.36 43.2316C17.34 42.8016 17.16 42.5215 17.16 42.0615C17.72 42.0515 18.08 42.2416 18.62 42.2616C18.6 42.7716 18.92 43.3515 18.72 43.7215ZM17.16 45.4715C16.42 45.4715 15.79 45.3416 15.41 44.9816C15.86 44.9116 16.83 45.1015 17.16 45.4715ZM15.99 46.7416C16.35 46.8016 16.72 46.8616 16.77 47.2316C16.37 47.2016 15.98 47.1816 15.99 46.7416ZM15.31 45.7716C16.57 46.3016 17.86 45.9516 19.3 46.5516C19.29 46.8316 19.35 47.1916 19.2 47.3316C18.8 47.3716 18.9 46.9215 18.61 46.8415C17.86 47.2815 15.93 46.4216 15.3 45.7716H15.31ZM18.43 49.4715C19.1 49.4515 19.31 49.8915 19.6 50.2515C19.19 50.0115 18.6 49.9615 18.43 49.4715ZM22.03 48.0116C21.11 47.9516 20.42 47.6716 19.69 47.4316V46.6516C20.77 46.8416 21.72 47.1016 22.71 47.1416C22.78 47.5316 22.92 47.8415 22.91 48.3115C22.18 48.3315 22.42 47.3716 21.84 47.2416C21.76 47.6516 22.03 47.7016 22.04 48.0216L22.03 48.0116ZM19.89 48.5915C19.91 48.5115 19.97 48.4816 20.08 48.4916C20.2 49.0216 20.67 49.2016 20.76 49.7616C20.05 49.7916 20.17 48.9815 19.88 48.5915H19.89ZM20.77 51.0315C21.42 50.8015 21.79 51.5215 22.23 51.8115C21.78 51.8815 21.04 51.4615 20.77 51.0315ZM22.13 50.7416C22.42 50.7416 22.68 50.7816 22.62 51.1315C22.3 51.1516 22.15 51.0116 22.13 50.7416ZM22.91 50.4516C22.52 50.1816 22.23 50.1216 21.74 50.3516C21.54 50.1315 21.3 49.9516 21.25 49.5716C21.42 49.5516 21.74 49.6716 21.64 49.3815C21.03 49.4016 20.73 49.1216 20.57 48.7016C21.65 48.5416 23.5 48.9416 22.91 50.4516ZM23.2 51.2316C23.43 50.6716 24.25 51.0315 24.17 51.6215C23.75 51.5815 23.32 51.5616 23.2 51.2316ZM24.17 50.8415C23.85 50.3215 23.36 49.9615 23.39 49.0915C24 49.0015 24.31 49.2115 24.75 49.2815C24.72 49.9315 25.17 50.1015 25.04 50.8415C24.73 50.9715 24.58 50.4515 24.16 50.8415H24.17ZM25.24 51.9115C24.89 51.8415 24.62 51.6916 24.56 51.3316C24.84 51.3416 25.2 51.2816 25.34 51.4316C25.37 51.6616 25.33 51.8016 25.24 51.9216V51.9115ZM26.12 53.9616C26.15 54.2916 26.64 54.1616 26.7 54.4516C26.4 54.4516 25.88 54.1716 26.12 53.9616ZM27.09 54.6416C27.38 54.6816 27.57 54.8115 27.68 55.0315C27.44 54.9415 27.12 54.9416 27.09 54.6416ZM25.92 53.4715V52.7916C27.38 52.7916 27.92 53.7216 28.36 54.7416C27.46 54.4116 26.76 53.8715 25.92 53.4715ZM25.73 52.0116V51.4216C26.24 51.4616 26.49 51.7716 26.51 52.3016C26.15 52.3016 25.95 52.1516 25.73 52.0116ZM26.61 51.6215C27.34 51.5415 27.7 51.8315 28.36 51.8115C28.44 52.0815 28.67 52.5215 28.46 52.7815C27.6 52.6315 26.77 52.4516 26.61 51.6116V51.6215ZM28.95 54.6416C28.46 54.3216 28.16 53.8115 27.88 53.2815C28.15 53.0815 28.55 53.4016 28.85 53.4816C28.85 53.8916 29.01 54.1616 28.95 54.6516V54.6416ZM29.83 56.3016C29.6 56.3416 29.62 56.1216 29.34 56.2016C29.25 55.7816 29.93 55.9016 29.83 56.3016ZM29.54 53.8616C29.74 54.5016 30.23 54.8616 30.32 55.6116C29.81 55.3516 29.4 54.4616 29.54 53.8616ZM30.9 58.2416C31.5 58.4216 32.04 58.6615 32.17 59.3115C31.6 59.1515 30.85 58.7016 30.9 58.2416ZM31.29 57.6615C31.53 57.6516 31.76 57.6516 31.87 57.7616V58.0516C31.51 58.0916 31.3 57.9715 31.29 57.6615ZM31.97 56.4916C32.48 56.4716 33 56.4316 32.85 57.0716C32.36 57.0716 32 56.9516 31.97 56.4916ZM32.65 57.8516C32.94 57.6315 33.37 57.9216 33.23 58.4316C32.85 58.4316 32.57 58.3116 32.65 57.8516ZM33.92 60.7716C33.7 60.5016 33.19 60.5216 33.24 59.9916C33.56 59.7816 34.37 60.4916 33.92 60.7716ZM34.31 58.1416C34.75 58.0916 34.8 58.4316 34.8 58.8216C34.45 58.8016 34.04 58.4816 34.31 58.1416ZM34.6 59.7016C34.99 59.5716 35.86 59.7116 35.77 60.3815C35.27 60.2616 34.67 60.2516 34.6 59.7016ZM35.18 58.2416C36.13 58.5016 37.96 58.3815 37.61 59.6016C36.79 59.1516 35.24 59.4416 35.18 58.2416ZM36.45 62.4316H36.94C36.94 62.5616 36.98 62.6415 37.04 62.7215C36.85 62.8915 36.44 62.7516 36.46 62.4316H36.45ZM37.33 63.0116C37.85 63.0116 38.18 63.2015 38.21 63.6915C37.82 63.5715 37.35 63.5116 37.33 63.0116ZM37.04 61.1615C37.37 61.1215 37.84 61.4516 38.01 61.2616C37.56 60.7016 36.23 61.0216 36.26 59.9916C36.95 60.0216 37.59 60.0915 38.01 60.3815C38.24 60.9715 38.1 61.3215 38.3 61.9415C37.74 62.5215 36.88 61.5915 37.03 61.1615H37.04ZM38.5 59.9916C38.26 59.8716 37.74 59.1116 38.21 58.9216C38.21 59.3116 38.8 59.6316 38.5 59.9916ZM38.6 60.4816C39.4 60.7216 39.57 61.5816 39.77 62.4316C39.54 62.6116 39.12 62.3616 38.8 62.3316C38.83 61.8816 38.5 60.9616 38.61 60.4816H38.6ZM39.96 63.3016V63.6915C39.65 63.7415 39.56 63.5716 39.47 63.4016C39.58 63.3216 39.73 63.2716 39.96 63.3016ZM40.06 61.7416C40.01 61.3716 39.82 61.1316 39.86 60.6716C41.57 60.5516 42.05 61.6616 42.2 63.1016C41.28 63.1416 40.64 62.9016 40.35 62.3216C40.26 62.0116 40.67 62.1916 40.64 61.9316C40.46 61.8516 40.28 61.7716 40.05 61.7416H40.06ZM39.67 64.6615C39.71 65.0715 40.49 64.7516 40.45 65.2416C40.25 65.4016 39.21 64.8515 39.67 64.6615ZM40.84 64.2716C40.36 64.5016 40.28 63.4816 40.65 63.4916C40.76 63.7116 40.9 63.8916 40.84 64.2716ZM41.62 66.2215C41.98 66.2215 42.29 66.2616 42.3 66.6116C42.05 66.8116 41.63 66.5615 41.62 66.2215ZM41.23 63.4016C41.85 63.2616 41.93 63.6716 42.5 63.6016C42.54 64.0516 42.86 64.2116 42.79 64.7716C41.69 64.8916 41.4 64.2015 41.23 63.4115V63.4016ZM43.18 64.3715C43.44 64.1815 43.81 64.7116 43.86 65.0516C43.51 65.2816 43.1 64.8715 43.18 64.3715ZM44.06 66.5116C44.31 66.4816 44.48 66.5516 44.45 66.8016C44.2 66.8316 44.03 66.7616 44.06 66.5116ZM44.06 63.8815C44.81 63.8116 45.32 63.9815 45.33 64.6615C45 64.6715 44 64.5816 44.06 63.8815ZM44.35 64.7616C44.86 64.9715 45.8 64.7415 45.71 65.5415C45.18 65.4816 44.91 65.4815 44.54 65.4415C44.46 65.2315 44.29 65.1115 44.34 64.7616H44.35ZM45.42 67.9715C46.1 67.8815 46.16 68.4016 46.3 68.8515C45.8 68.7616 45.55 68.4315 45.42 67.9715ZM45.81 67.0015C46.51 66.9815 46.94 67.2415 46.98 67.8815C46.48 68.0615 45.91 67.5515 45.81 67.0015ZM47.17 69.2416C46.97 69.0216 46.73 68.8316 46.68 68.4616C47.1 68.0616 47.69 69.0116 47.17 69.2416ZM47.07 70.2116C47.35 70.1916 47.57 70.2415 47.65 70.4115C47.49 70.5715 47.04 70.5316 47.07 70.2116ZM47.26 67.4816C47.64 67.4216 47.69 67.7015 47.75 67.9715C47.55 68.1515 47.24 67.8416 47.26 67.4816ZM47.85 66.5116C48.15 66.5315 48.56 66.4416 48.73 66.6116C48.73 66.7416 48.68 66.8216 48.63 66.9016C48.31 66.8316 47.9 66.8515 47.85 66.5116ZM48.14 67.5816C49.03 67.5716 49.47 68.0015 49.6 68.7515C48.79 68.6815 48 68.5916 48.14 67.5816ZM48.53 68.8515C49.81 68.8615 50.36 69.6115 50.67 70.6015C49.72 70.2515 48.34 70.3316 48.53 68.8515ZM50.09 67.9715C50.25 68.1315 50.62 68.0916 50.77 68.2616C50.8 69.1316 51.53 69.8416 51.26 70.7016C50.97 70.2116 50.51 69.9016 50.58 69.0415C50.13 69.0315 49.63 68.2715 50.09 67.9715ZM50.09 71.6716C50.5 71.4916 51.29 71.6715 51.45 72.0615C51.05 72.2315 50.21 72.0916 50.09 71.6716ZM52.43 72.0615C53.12 72.3215 54.25 72.6316 54.09 73.4216C53.51 73.1916 52.81 73.0816 52.34 72.7416C52.42 72.3916 52.06 72.1615 52.44 72.0615H52.43ZM53.31 73.7215C53.7 73.5615 54.4 73.8416 54.48 74.3016C53.98 74.2116 53.59 74.0215 53.31 73.7215ZM55.06 73.0415C56.09 72.9516 56.49 73.5016 56.52 74.4016C55.75 74.3516 55.59 73.7715 54.96 73.8215C55.23 73.4416 55.2 73.5516 55.06 73.0415ZM55.64 74.6015C56.13 74.7315 56.9 74.5815 56.81 75.2815C56.43 75.0515 55.76 75.1015 55.64 74.6015ZM57.1 76.2616C56.65 76.2215 56.46 75.9316 56.32 75.5816C56.81 75.5516 57.28 75.9416 57.1 76.2616ZM57.98 78.0116C57.75 77.9816 57.56 77.9115 57.49 77.7215C57.67 77.5415 57.73 77.7115 57.98 77.7215V78.0116ZM58.37 76.2616C58.43 76.4615 58.61 76.5415 58.56 76.8415C58.29 76.8215 58.04 76.3016 58.37 76.2616ZM60.61 79.4715C60.11 79.4515 60.03 79.0115 59.93 78.5915C60.3 78.3515 60.88 79.0715 60.61 79.4715ZM61.29 79.2716C61.26 78.9916 61.51 78.9715 61.48 78.6915C60.47 78.5015 60.09 77.6815 59.73 76.8415C59.7 76.5815 60.28 76.9316 60.12 76.5516C59.9 76.1616 59.39 75.9715 58.85 76.1615C57.96 74.3915 57.49 72.1916 56.71 70.3215C56.79 69.9416 56.93 69.5316 56.32 69.6416C56.72 71.8316 57.62 73.5316 58.07 75.6816C55.88 73.9116 56.2 69.6316 54.56 67.3016C54.86 69.2516 55.74 71.1215 55.92 72.8515C55.41 72.8415 55.25 72.4815 54.65 72.5615C53.44 70.4215 53.45 67.0716 52.21 64.9616C52.51 67.0416 53.52 69.4215 53.48 71.1915C53.06 70.5715 52.75 69.8415 51.92 69.6315C51.92 69.7715 51.87 69.8416 51.82 69.9216C52.06 70.5016 52.67 70.7015 52.79 71.3815C52.63 71.5515 52.46 71.2915 52.11 71.3815C51.68 70.5415 51.52 69.4416 51.23 68.4616C51.26 68.2616 51.59 68.3716 51.62 68.1716C50.33 67.5416 51.01 64.9516 49.87 64.1816C50.01 65.4016 50.47 66.3115 50.55 67.5915C50.21 67.7315 49.78 67.2215 49.67 66.8115C49.71 66.6215 50.05 66.7316 49.96 66.4216C49.24 66.0216 48.24 66.4915 47.62 66.0315C46.98 65.1115 47.26 63.2716 46.45 62.5216C46.52 63.7516 46.9 64.6616 47.04 65.8316C46.65 65.9016 46.48 65.7416 46.16 65.7316C46.26 64.9516 45.5 64.9515 45.48 64.0715C45.67 63.8415 46.08 64.3015 46.06 63.7815C45.53 63.5615 44.8 63.0315 44.6 62.8115C44.75 62.9515 44.68 63.3115 44.7 63.5915C44.35 63.6215 44.07 63.5716 43.82 63.4916C43.22 61.7916 43.15 59.5515 42.55 57.8415C42.43 59.6515 43.06 61.5416 43.33 63.2916C42.74 62.8316 41.57 61.5716 42.45 60.8616C42.1 60.9216 41.98 60.7516 41.77 60.6716C41.31 59.3416 40.94 57.4116 40.31 56.5816C40.41 57.5216 40.81 58.1516 40.9 59.1116C40.82 59.3716 40.44 58.8915 40.41 59.3115C40.55 59.7215 40.88 59.9416 40.9 60.4816C40.3 60.4616 39.93 60.2116 39.53 59.9916C38.84 58.1116 38.9 55.4916 37.87 53.9516C37.99 55.6116 38.68 57.5516 38.94 59.4016C37.75 57.8816 36.88 55.6616 36.21 53.6516C36.08 53.2616 36.36 52.6016 35.63 52.5816C36.08 54.5316 36.9 56.1216 37.19 58.2316C36.05 58.0116 34.74 57.9616 34.36 56.9616C34.83 56.8516 35.41 57.3216 35.63 56.8616C35.26 56.6616 34.63 56.4715 34.17 56.6615C33.02 55.2915 32.76 52.5915 32.51 50.6215C32.24 50.8115 32.02 51.0316 31.83 51.3016C32.37 52.8016 32.74 54.4816 33.09 56.1716C32.8 56.3116 32.22 56.0416 31.73 56.0716C31.6 55.6816 31.54 55.2215 31.24 55.0015C31.19 55.3815 31.41 55.4815 31.34 55.8815C30.36 55.8615 30.73 54.4816 30.37 53.8316C30.97 53.6516 30.84 54.2015 31.25 54.2215C31.39 54.0415 31.78 54.1016 31.74 53.7316C31.24 53.4816 30.83 53.3315 30.28 53.3415C30.11 52.9215 29.95 52.5016 29.89 51.9816C30.25 51.8516 30.56 52.2716 30.77 51.9816C30.7 51.5316 29.98 51.7216 29.7 51.4916C29.3 50.0116 29.25 48.1715 28.73 46.8115C28.16 48.1715 29.44 50.2016 29.02 51.3916C27.81 50.0016 28.08 47.1415 26.78 45.8415C26.93 47.6415 27.99 49.3716 28.14 51.4916C27.47 51.2616 26.28 51.5415 26.09 50.8115C26.2 50.5015 26.72 51.0716 26.87 50.7116C23.9 50.1016 24.91 45.5216 23.66 43.2116C23.54 45.0216 24.18 46.9116 24.54 48.5716C24.07 48.8416 23.42 48.5515 23.18 48.2815C23.1 47.6815 23.26 47.3216 23.37 46.9216C22.08 45.6116 22.67 42.4315 21.62 40.8815C21.52 42.7715 22.41 45.0115 22.5 46.7215C21.46 46.4315 20.49 46.0615 19.48 45.7515C19.44 45.2715 19.28 44.9116 19.29 44.3916C19.73 44.4116 20.18 44.4415 20.17 44.0015C19.83 43.9515 19.61 43.7815 19.2 43.8115C19.08 43.4115 19.15 42.8216 19.01 42.4516C19.23 42.1716 19.86 42.7316 19.98 42.2616C19.86 41.8916 19.08 42.1815 18.91 41.8715C18.77 40.5515 18.73 39.1316 18.23 38.1716C17.93 39.3316 18.73 40.7115 18.43 41.8715C17.9 41.8515 17.51 41.6916 17.07 41.5816C16.52 40.3716 16.87 38.2716 15.9 37.4916C16 38.7916 16.78 40.4316 16.39 41.5816C16.13 41.9016 16.17 41.0915 15.81 41.1915C15.66 41.8515 14.64 41.1415 14.15 41.1915C14.03 40.8815 14.47 41.1116 14.35 40.8016C13.73 40.6916 13.32 39.1216 14.25 39.1516C14.16 38.9116 13.86 38.8916 13.57 38.8616C13.24 37.5016 13.47 35.5816 12.69 34.6716C12.41 35.1916 11.17 34.7216 10.55 34.6716C10.56 33.8816 10.48 33.1816 10.06 32.8216C9.88 33.2316 10.24 33.8515 10.16 34.4715C9.24 34.4715 8.49001 34.3216 7.92001 33.9816C8.02001 33.3616 7.64001 32.8116 7.92001 32.3216C8.55001 32.1216 9.29001 32.9115 9.48001 32.2215C8.94001 31.9115 8.21 31.8016 7.63 31.5416C7.41001 30.9116 7.61001 29.8715 6.95001 29.6915C6.90001 30.4915 7.24001 30.9016 7.14001 31.7416C6.57001 31.6716 5.81999 31.7615 5.67999 31.2515C6.00999 30.8615 6.42999 31.5515 6.64999 31.2515C6.32999 31.1215 5.99999 30.9916 5.67999 30.8616C5.53999 29.6716 5.78 28.0916 5.19 27.3516C4.92 28.5616 5.33 30.0415 5.19 31.2515C4.72 31.4615 4.13 31.0416 3.44 31.1516C3.5 30.7916 3.19 30.5316 3.44 30.2716C3.94 30.1616 4.25002 30.7516 4.61002 30.4616C4.12002 30.2016 3.27001 30.3116 3.35001 29.4916C3.54001 29.1416 4.64002 29.6915 4.71002 29.0015C4.38002 28.8115 3.71001 28.9616 3.35001 28.8016C3.26001 27.7916 3.77002 26.2615 2.86002 25.8815C2.94002 26.9016 3.05001 28.0216 2.76001 28.9016H2.27002C1.87002 26.9216 3.29 25.5916 2.56 23.6416C5.01 16.3916 9.31 9.61156 15.22 5.52156C16.89 4.36156 18.59 4.44156 20.77 3.77156C22.61 3.20156 24.23 2.19156 26.61 2.70156C26.35 3.83156 24.63 4.23155 25.34 5.72155C23.42 7.73155 25.21 11.1216 27.87 11.1816C28.25 12.3616 29.63 12.9415 30.79 13.0315C30.83 13.3915 31.22 13.7716 30.98 14.1016C29.09 13.2416 27.85 11.7116 25.53 11.2716C25.34 10.7116 24.97 10.3416 24.26 10.3016C24.28 10.6716 23.9 10.9716 24.07 11.1816C25.18 11.1316 26.59 11.9815 27.19 13.0315C26.79 13.1015 26.53 12.5316 26.31 12.7416C26.35 14.1716 28.21 13.3015 28.94 13.9115C28.91 13.6615 28.98 13.4916 29.23 13.5216C29.36 13.5516 29.41 13.6615 29.62 13.6215C29.8 14.1015 29.29 13.8816 29.33 14.2016C29.47 14.2516 29.57 14.3416 29.72 14.4016C29.64 14.0916 29.81 14.0315 29.92 13.9115C30.62 14.4815 32.07 14.3015 32.16 15.4715C32.85 15.5415 33.44 16.0816 34.01 15.9616C34.03 15.7816 33.9 15.7416 33.91 15.5716C34.3 15.5416 34.82 15.3416 35.18 15.6716C35.31 16.3216 34.9 16.4315 34.79 16.8415C35.11 17.2015 35.84 17.1515 35.96 17.7215C34.37 17.0015 32.48 16.5915 31.58 15.1915C31.66 15.6215 30.95 15.5415 30.99 15.1915C30.63 15.0315 31.38 15.2116 31.18 14.9016C30.75 14.7216 30.36 14.4915 29.82 14.4115C30.03 14.7815 30.55 14.8515 30.79 15.1915C30.81 16.1715 32.63 16.2115 33.22 16.9415C33.3 17.2215 33.08 17.1916 33.12 17.4316C34.03 17.8316 34.59 18.5616 35.65 18.7916C35.98 18.7916 35.66 18.1616 36.04 18.2116C37.39 18.4816 38.43 20.1416 39.84 19.1816C39.84 19.4116 39.67 19.4716 39.74 19.7716C40.6 20.4016 41.82 20.6815 42.08 21.9115C41.6 21.9015 41.33 21.1716 40.91 21.4216C42.69 22.9116 44.92 23.9715 46.75 25.4115C47.06 25.3315 46.99 24.8716 47.33 24.8316C47.87 24.8416 47.91 25.3516 48.3 25.5116C48.61 25.5616 48.7 25.3915 48.79 25.2215C48.62 24.7115 48.05 24.6016 47.91 24.0516C49.18 24.0216 49.27 25.1616 50.15 25.5116C50.51 25.3316 50.06 24.9516 50.44 24.8316C51.06 25.2216 51.62 26.1715 52.49 26.0015C51.15 25.1415 50.37 23.1815 48.79 22.8815C48.95 23.4216 49.88 23.6516 49.76 24.1516C49.02 23.7616 48.17 23.4616 47.71 22.7916C48.2 22.6616 48.87 22.7115 49.27 22.5015C50.93 23.5315 52.25 24.9116 53.75 26.1016C53.81 26.5116 53.22 26.2915 53.36 26.7815C53.56 27.0315 53.98 27.0716 54.33 27.1716C54.23 27.8416 54.99 28.0516 55.79 27.8516C56.98 28.3516 57.93 29.0916 59.2 29.5116C59.95 31.2616 62.26 31.9716 63.58 32.8216C62.78 31.8316 61.16 31.6716 60.66 30.3815C62.49 30.6015 63.6 31.5316 64.85 32.3316C64.78 32.7816 65.49 33.1815 65.73 32.7215C64.98 31.9415 63.77 31.6216 63.39 30.4816C64.92 30.5016 65.01 32.1716 66.6 32.4316C66.84 32.1816 66.94 31.8015 67.57 31.9415C67.57 34.2515 70.92 33.2016 71.27 35.1516C70.82 35.1716 70.21 34.5716 69.91 35.0516C73.97 36.1516 74.97 40.3215 80.14 40.3115C81.16 42.0115 83.76 40.7516 85.59 41.4816C87.09 42.8416 89.1 43.6916 90.56 45.0816C88.68 46.2116 87.13 44.1615 85.69 43.6215C86.5 44.6315 87.91 45.0316 88.81 45.9616C87.47 46.3716 86.76 47.4215 85.5 47.9115C85.35 47.5715 85.24 47.2015 84.91 47.0315C84.72 47.0715 84.83 47.4116 84.52 47.3216C83.88 47.0416 83.06 45.5315 82.38 46.2515C83.42 46.7615 84.3 47.4416 85.11 48.2016C84.71 48.6216 84.19 48.4515 83.75 48.6915C83.27 48.4515 82.95 48.0715 82.48 47.8115C82.71 48.3915 83.46 48.4516 83.65 49.0816C83.55 49.3016 83.36 49.4315 83.07 49.4715C82.76 49.3615 82.83 48.8716 82.49 48.7916C82.06 49.2916 81.89 48.4415 81.32 48.5015C81.65 49.0715 82.41 49.2316 82.68 49.8616C82.58 50.0816 82.39 50.2115 82.1 50.2515C81.15 49.7015 80.47 48.3816 79.37 48.3016C79.82 49.4116 81.66 49.6416 81.71 50.8316C80.56 50.2816 79.66 48.9915 78.69 48.5915C79.43 49.4815 80.38 50.1415 81.03 51.1215C80.32 51.4815 80.02 52.2516 79.18 52.4816C78.87 51.6216 78.13 51.2016 77.91 50.2416C78.88 50.3816 78.86 51.5016 79.96 51.5116C79.87 51.3416 79.93 51.0216 79.76 50.9216C78.26 50.7916 78 48.9215 76.84 48.7815C76.89 49.5415 77.58 49.6715 77.52 50.5315C77.26 50.5915 77.06 50.0916 76.94 50.3316C77.6 51.1616 78.21 52.0416 78.89 52.8616C78.5 54.3116 76.91 53.1516 76.55 52.7616C76.83 53.3216 77.37 53.6315 77.72 54.1215C77.47 54.3315 77.39 54.7016 77.04 54.8016C76.71 54.1616 76.09 53.8116 75.97 52.9516C75.56 53.0316 75.51 52.7616 75.19 52.7616C75.73 53.6216 76.4 54.3416 76.85 55.2916C76.49 55.5516 76.49 56.1616 75.97 56.2616C75.08 55.8216 74.93 54.6415 74.12 54.1215C74.41 55.3315 75.79 55.9516 75.58 57.3316C74.3 56.5616 74.33 54.4916 73.14 53.6315C73.5 55.4315 75.99 57.3716 74.5 59.1816C74.15 59.1416 73.98 58.9216 73.53 58.9916C73.38 58.6216 73.26 58.2216 72.95 58.0216C72.93 58.3316 73.12 58.4316 73.05 58.8016C72.25 58.8516 71.84 58.5215 71.49 58.1215C71.52 58.3515 71.47 58.4916 71.39 58.6116C71.03 58.6716 70.39 58.4515 70.32 58.8115H71.59C71.87 59.3115 72.08 59.8715 72.17 60.5615C71.59 60.6315 70.53 60.4016 70.22 59.8815C70.48 60.1716 70.2 60.5016 70.12 60.7616C70.49 60.8516 70.7 61.0916 70.71 61.5416C70.39 61.8116 69.46 61.4616 69.15 61.7416C69.37 62.2516 69.9 62.9216 69.83 63.4016C69.55 63.5416 68.8 63.2916 68.76 63.8916C69.27 63.9116 69.73 63.8916 70.12 63.7916C70.26 64.0116 70.42 64.2115 70.41 64.5715C69.78 64.8716 69.11 64.4216 68.66 64.6716C68.69 65.4916 69.58 65.8415 69.34 66.6215C69.01 66.6815 68.43 66.4915 68.27 66.7215C68.41 67.7215 69.14 68.1215 69.15 69.2515C68.47 69.3815 67.81 68.9616 67.4 69.1516C67.2 69.7216 68.17 69.7616 67.98 70.6116C67.53 70.6416 66.84 70.4415 66.91 71.0015C67.42 71.0615 67.65 70.8316 68.18 70.9016C68.45 71.2816 68.69 71.6916 68.86 72.1716C68.03 72.4016 67.1 71.5715 66.23 72.0715C66.25 72.3716 66.71 72.2316 67.01 72.2716C67.12 72.6816 67.49 72.8315 67.5 73.3415C66.51 73.3915 65.21 72.8015 64.38 73.3415C65.48 73.5415 66.54 73.7816 67.79 73.8316C68.17 74.4316 68.58 74.9815 68.76 75.7815C68.33 75.9815 68.2 75.1415 67.69 75.1015C67.36 75.1015 67.54 75.6015 67.2 75.5915C65.55 75.4215 63.85 74.7815 62.14 75.0015C62.15 75.2815 62.55 75.1816 62.82 75.2016C62.5 75.8416 62.9 75.8415 62.92 76.5615C61.74 76.6715 61.7 75.0115 61.26 74.1315C60.77 73.1315 60.28 72.1215 59.51 71.6015C59.35 73.4415 60.87 75.2315 61.07 77.3515C60.6 77.4016 60.64 76.9416 60.19 76.9616C60.44 77.3616 60.65 77.8016 61.16 77.9316C61.16 77.7816 61.15 77.5916 61.36 77.6416C61.61 78.5216 62.15 79.1216 62.24 80.1716C61.65 80.1416 61.57 79.6115 61.27 79.2915L61.29 79.2716ZM34.11 17.3216C34.16 17.8116 33.48 17.5715 33.52 17.2215C33.82 17.1515 33.88 17.3216 34.11 17.3216ZM70.35 78.9816C70.47 78.9816 70.49 78.8515 70.64 78.8815C70.84 79.1715 71.34 79.5716 71.13 79.9516C70.67 79.8216 70.48 79.4315 70.35 78.9816ZM71.03 81.1215C70.77 81.3115 70.5 80.8615 70.45 80.5415C70.87 80.5116 70.96 80.8115 71.03 81.1215ZM71.03 78.2016C70.42 78.0816 69.98 77.3215 70.06 76.8415C72.07 76.2415 71.49 78.6816 71.91 79.9616C71.36 79.6316 71.02 79.1016 71.03 78.2116V78.2016ZM68.5 74.1116C69.11 74.1116 69.52 74.3216 70.06 74.4016C70.27 75.0116 70.74 75.3416 70.74 76.1516C69.4 76.4416 68.77 75.2015 68.5 74.1015V74.1116ZM70.06 78.0116C69.38 77.9715 69.21 77.4315 69.09 76.8415C69.79 76.8415 69.88 77.4816 70.06 78.0116ZM67.14 78.8916C66.26 78.9916 66.31 78.1615 65.97 77.7215C66.54 77.5015 67.26 77.9016 67.82 78.0116C67.73 78.5015 67.68 78.8316 68.01 79.0816C67.42 79.0516 67.63 78.2316 67.04 78.2016C66.9 78.6216 67.37 78.6515 67.14 78.8815V78.8916ZM63.54 75.3815C65.47 75.9915 68.6 75.3815 68.9 77.6215C67.32 77.1815 63.42 77.2015 63.54 75.3815ZM72.21 59.1116C72.67 59.0716 72.88 59.2816 73.38 59.2116C73.49 59.5216 73.65 59.7916 73.67 60.1816C72.81 60.2016 72.22 59.9416 72.21 59.1116ZM73.87 60.9616C73.39 60.7916 72.58 60.9515 72.6 60.2815C72.81 60.3315 73.88 60.3616 73.87 60.9616ZM72.31 60.8616C72.42 61.0416 72.43 61.3216 72.51 61.5416C72.06 61.6016 71.95 61.3215 71.54 61.3415C71.67 61.4715 71.67 61.7016 71.44 61.7316C71.48 61.5016 71 61.7815 71.15 61.4415C71.15 61.2815 71.42 61.3915 71.44 61.2515C71.25 61.0815 70.84 61.1416 70.86 60.7616C71.32 60.4816 71.68 61.0116 72.32 60.8616H72.31ZM71.43 63.4916C70.99 63.5416 70.7 63.4416 70.36 63.3916C70.3 62.8316 69.86 62.6615 69.87 62.0315C71.06 61.4215 71.19 62.6216 71.43 63.4916ZM71.82 64.6615C71.27 64.6615 70.71 64.6616 70.85 63.9816C71.36 63.7416 71.98 63.9415 71.82 64.6615ZM69.78 73.0415C70.06 72.8716 70.65 73.0015 70.85 72.7515C71.35 73.4415 71.61 74.6016 71.34 75.7716C70.8 75.5416 70.6 74.7515 71.05 74.3115C70.37 74.1415 69.97 73.7016 69.78 73.0415ZM70.95 71.7716C71.83 71.6516 71.77 72.3715 71.53 72.9415C71.15 72.7415 71.08 72.2216 70.95 71.7716ZM70.17 69.9216C71.15 69.9216 71.75 70.2915 71.83 71.1915C71.02 71.4115 70.12 70.9016 70.17 69.9216ZM69.59 68.5615C70.23 68.7015 71.05 68.6615 70.95 69.5315C70.26 69.4915 69.31 69.2515 69.59 68.5615ZM70.37 67.2915C70.79 66.9116 71.32 67.2615 71.83 67.0015C72.02 67.3815 71.91 67.8916 71.73 68.1716C71.1 68.0516 70.5 67.9116 70.37 67.2915ZM71.05 65.3415C71.05 66.1215 70.61 66.0216 71.05 66.6116H69.98C69.69 66.1616 69.46 65.6316 69.2 65.1516C69.78 64.9416 70.48 65.2515 71.05 65.3415ZM70.37 68.2616C69.37 68.3816 68.96 67.9215 68.91 67.0915C69.81 66.5115 70.22 67.5116 70.37 68.2616ZM69.59 69.7215C69.75 70.0215 69.87 70.3416 69.88 70.7915C68.89 70.8016 68.21 70.5115 68.13 69.6215C68.72 69.4015 69.07 69.7815 69.59 69.7215ZM70.56 72.2515C70.18 72.2315 69.84 72.2515 69.59 72.3515C69.24 72.1516 69.09 71.7415 68.91 71.3815C69.44 71.0715 70.78 71.2316 70.57 72.2616L70.56 72.2515ZM69.59 73.8115C68.5 73.7715 67.76 73.3616 67.54 72.4516C68.64 72.4316 69.79 72.8515 69.59 73.8115ZM71.83 70.2016C71.69 69.7915 71.38 69.5515 71.34 69.0315C71.65 68.9915 71.88 68.5516 72.12 68.7416C72.08 69.2916 72.26 70.0516 71.83 70.2016ZM71.54 65.5315C71.72 65.3215 71.85 65.0615 72.22 65.0415C72.46 65.6315 72.28 66.2316 72.32 66.8916C71.84 66.6516 71.83 65.9515 71.54 65.5315ZM72.22 64.2616C72.38 64.1316 72.55 64.0015 72.9 64.0715C72.9 64.5516 72.98 65.1316 72.51 65.1416C72.44 64.8216 72.33 64.5415 72.22 64.2616ZM71.64 63.0915C71.62 62.6915 71.34 62.5415 71.35 62.1215C71.7 61.8915 72.16 62.2415 72.71 62.1215C72.89 62.5315 73.22 63.0716 73.1 63.4816C72.52 63.4416 72.18 63.1715 71.64 63.0915ZM73.1 61.9216C73.12 61.6116 72.84 61.5916 72.91 61.2416C73.43 60.8916 74.24 61.2816 73.79 61.9216H73.11H73.1ZM73.88 59.5816C74 59.4716 74.22 59.4716 74.46 59.4816C74.46 59.8816 74.45 60.2516 74.07 60.2616C74.09 59.9516 73.81 59.9316 73.88 59.5816ZM60.34 72.9216C61.29 74.4716 61.98 76.2815 62.48 78.2815C61.46 76.8715 60.6 74.7716 60.34 72.9216ZM62.58 77.0116C63.41 76.5616 63.5 77.6316 63.65 78.1816C62.88 78.5616 62.65 77.6415 62.58 77.0116ZM63.85 79.9316C63.56 79.6616 63.34 79.3316 63.36 78.7616C63.5 78.7115 63.61 78.6216 63.75 78.5715C63.97 78.8316 64.44 79.7616 63.85 79.9316ZM64.63 81.0015C64.8 81.2515 64.93 81.5415 65.02 81.8815C64.66 81.9115 64.19 81.1415 64.63 81.0015ZM64.34 78.4715C64.09 78.1415 63.92 77.7215 63.85 77.2016C64.12 77.0016 64.53 77.3116 64.92 77.3016C65.08 77.6916 65.25 78.0715 65.41 78.4715C65.14 78.7015 64.8 78.3615 64.34 78.4715ZM65.8 79.7416C65.39 79.7916 65.41 79.4115 65.31 79.1615C65.7 79.1315 65.84 79.3516 65.8 79.7416ZM65.51 81.4016C65.8 81.4416 66.01 81.5515 66.19 81.6915C65.97 82.4415 66.56 82.3615 66.68 82.7616C66.02 82.5816 65.5 82.2516 65.51 81.4016ZM66.58 83.7416C66.86 83.8116 67.14 83.8915 67.26 84.1315C66.9 84.1315 66.7 83.9816 66.58 83.7416ZM66.97 81.5015C66.87 80.9715 67.41 81.0916 67.46 81.4016C67.35 81.4816 67.2 81.5315 66.97 81.5015ZM67.36 80.6215C67.28 80.1815 66.97 79.9715 66.97 79.4516C67.64 79.1016 68.04 80.2915 67.94 80.7215C67.71 80.7215 67.65 80.5515 67.36 80.6215ZM67.75 81.2016C68.25 80.9416 68.5 81.4816 68.53 81.9816C68.06 81.9315 67.72 81.7516 67.75 81.2016ZM68.33 79.5415C68.34 79.9215 68.66 79.9916 68.62 80.4216C68.12 80.5016 67.84 79.5916 68.33 79.5415ZM68.43 78.9616C68.35 78.6916 68.11 78.5616 68.14 78.1816C69.34 78.0616 70.07 78.9016 70.09 79.6416C69.35 79.5916 69.35 78.5416 68.43 78.9616ZM69.01 80.2316C69.49 80.2316 69.55 80.6616 69.69 81.0116C69.1 81.1216 69.21 80.5116 69.01 80.2316ZM69.89 81.6915C70.38 81.4215 70.87 82.4416 70.77 82.7616C70.57 82.3116 70.11 82.1315 69.89 81.6915ZM70.77 84.3215C71.09 84.3815 71.3 84.5715 71.26 85.0015C70.82 85.0415 70.77 84.7115 70.77 84.3215ZM72.13 81.4016C71.67 81.4016 71.54 81.0815 71.45 80.7215C71.96 80.6615 72.1 80.9816 72.13 81.4016ZM71.74 82.8616C71.71 82.7316 71.6 82.6715 71.64 82.4715H71.93C71.96 82.6915 71.91 82.8416 71.73 82.8616H71.74ZM72.13 86.2716C72.36 86.0616 72.67 86.3015 72.62 86.6615C72.3 86.6815 72.15 86.5416 72.13 86.2716ZM72.72 84.5216C72.51 84.2416 72.26 84.0116 72.13 83.6416C72.46 83.7316 73.02 84.1116 72.72 84.5216ZM72.72 82.8715C72.63 82.5315 72.3 82.4516 72.33 81.9916C72.92 81.6016 73.02 82.5215 72.72 82.8715ZM73.69 86.9616C73.32 87.0916 73.18 86.5115 73.4 86.3815C73.54 86.5315 73.79 86.5716 73.69 86.9616ZM77.39 89.6915C77.69 89.7515 77.89 89.9116 77.88 90.2716C77.61 90.1816 77.47 89.9615 77.39 89.6915ZM80.12 92.8115C80.7 93.2715 81.47 93.5416 81.87 94.1716C81.26 93.8516 79.89 93.3315 80.12 92.8115ZM112.95 93.7815C111.19 95.3415 107.95 98.1616 105.16 96.8016C108.69 91.7416 114.58 88.9816 117.63 83.4616C120.86 77.5916 121.5 69.3916 118.99 63.4916C118.35 61.9816 117.87 60.2416 117.14 59.0116C115.48 56.2316 112.21 55.3516 108.96 53.8516C105.87 52.4216 103.19 51.3616 99.22 51.8016C93.89 52.4016 87.43 54.1816 84.51 57.7416C82.95 59.6516 82.31 61.6615 81.39 64.0715C81.02 65.0415 80.45 65.7416 80.32 66.7016C79.79 70.3916 80.17 74.0416 80.61 76.8316C81.61 83.0916 85.65 87.0216 91.03 89.2016C94.04 90.4216 97.85 90.1815 101.65 89.7915C104.82 89.4615 106.87 87.3715 108.76 85.6015C109.61 84.8015 110.77 84.0216 111.39 83.2616C114.78 79.1415 114.31 70.3616 111.68 65.9216C111.27 65.2316 110.45 63.7016 109.83 63.2916C109.56 63.1116 108.95 63.0716 108.47 62.8016C107.57 62.3016 106.74 61.3616 106.04 61.0516C104.42 60.3216 101.85 60.1615 99.81 60.6615C97.2 61.3015 93.91 62.8516 92.6 64.6516C91.73 65.8516 90.41 67.7816 90.16 69.4216C89.8 71.8416 90.99 75.1715 92.79 76.0415C94.01 76.6315 95.85 77.2116 97.27 77.1116C102.09 76.7816 101.84 70.4815 101.46 66.1015C104.25 64.7616 107.31 66.6015 108.47 68.4415C111.26 72.8415 109.55 79.7615 106.91 83.3415C105.14 85.7415 100.21 87.6616 96.29 87.2416C92.68 86.8516 89.48 85.2616 87.62 82.7616C86.75 81.5916 85.23 80.8516 84.7 79.7416C83.88 78.0316 83.45 75.3816 83.34 73.5116C83.01 68.0715 84.27 62.9816 87.14 60.2616C89.8 57.7416 93.74 55.7916 97.37 55.3916C103.04 54.7616 106.18 56.5916 109.45 58.5116C113.4 60.8316 114.74 64.1516 115.59 69.6116C116.69 69.0316 115.59 67.2016 115.79 66.4016C118.41 71.0016 118.28 79.9315 115.2 83.8415C115.2 84.1615 115.48 84.2115 115.4 84.6215C114.9 85.0915 114.12 85.2916 113.94 86.0816C114.14 86.1416 114.62 85.9216 114.53 86.2716C111.76 89.9616 107.44 92.1116 104.4 95.5216C100.17 97.0516 94.23 98.9216 88.91 97.2716C85.72 96.2816 83.4 93.8116 81.02 92.3016C79.98 90.3916 77.81 89.2316 76.54 87.4316C75.52 85.9816 73.72 83.4116 73.32 81.3916C72.11 75.1916 72.16 68.2516 74.29 62.4916C74.33 62.0416 74.81 62.6316 74.97 62.2916C74.93 61.8816 74.59 61.7615 74.68 61.2215C75.04 60.7115 75.06 59.8515 75.75 59.6615C75.39 58.4515 76.75 57.3716 77.02 56.1516C77.21 55.8016 77.43 56.0016 77.7 55.8616C77.65 55.6416 77.51 55.3616 77.7 55.1816C79.87 52.8616 82.34 50.8615 85.3 49.3415C87.86 47.2815 91.21 44.6515 95.62 44.4715C99.63 44.3115 104.94 43.6416 108.48 44.8616C109.95 45.3716 111.29 46.8916 112.57 47.6816C117.8 50.9316 122.03 54.3916 124.94 60.0516C126.32 62.7316 127.65 65.7716 127.67 69.2116C127.74 81.1616 119.64 87.8316 112.96 93.7616L112.95 93.7815ZM83.73 81.8016C82.6 79.1916 81.12 75.9015 81.78 72.1615C82.05 76.0515 83.02 79.2316 84.8 81.6116C84.47 81.7016 84.09 81.7415 83.73 81.8115V81.8016ZM84.8 82.9715C84.53 83.0615 84.32 82.3416 84.7 82.3916C84.77 82.5916 85.01 82.7815 84.8 82.9715ZM81.59 68.9415C81.82 69.7115 81.79 70.7515 81.78 71.7616C81.43 71.1115 81.27 69.3815 81.59 68.9415ZM82.37 67.8715C82.41 66.7015 82.62 65.7216 83.25 65.1416C83.06 66.1616 82.85 67.1415 82.37 67.8715ZM81.78 66.4115C81.83 64.5015 82.49 62.3916 83.44 61.0516C83.42 61.3316 83.43 61.5816 83.73 61.5416C85.34 60.2116 86.59 58.3016 88.31 56.9616C89.35 56.1516 90.74 55.8316 91.91 55.0116C93.06 54.2016 94.16 53.1316 95.61 53.2616C95.31 53.5116 94.72 53.4815 94.64 53.9415C96.55 53.3915 100.56 52.2015 102.53 53.8415C97.67 52.7515 94.5 55.3215 91.33 56.4715C89.24 57.2315 87.83 58.0216 86.36 59.4916C84.4 61.4616 82.92 63.8215 81.78 66.4115ZM83.83 60.1816C85.28 57.1816 87.91 55.3615 91.52 54.5315C90.46 55.7115 88.43 55.9216 87.53 57.2616C87.2 57.3016 87.38 56.8315 86.94 56.9715C85.52 57.6015 85.1 59.7416 83.82 60.1816H83.83ZM101.46 52.4916C104.03 52.6716 106.81 53.4216 108.76 54.5416C107.33 54.1816 105.65 54.0716 103.79 54.1516C103.51 53.1016 102.11 53.1715 101.45 52.5015L101.46 52.4916ZM110.91 58.9216C107.5 56.2916 103.16 53.9516 97.17 54.7316C102.59 53.3416 108.8 55.7116 110.91 58.9216ZM106.14 54.7316C107.73 54.6116 109.37 55.2616 110.52 55.9016C110.59 56.4416 110.61 57.0416 110.81 57.4616C114.44 59.9316 117.45 64.0715 117.63 69.3415C115.49 62.7815 112.18 57.3916 106.14 54.7316ZM112.08 57.0716C112.72 57.3716 113.66 57.9016 113.54 58.6315C113.04 58.1216 112.36 57.8016 112.08 57.0716ZM115.1 59.7016C116.47 60.6016 116.97 62.3716 117.53 64.0816C116.5 62.8316 115.96 61.1116 115.1 59.7016ZM118.8 65.3515C118.61 64.7616 117.84 63.8316 118.22 63.3016C118.45 63.8916 118.97 64.6915 118.8 65.3515ZM118.41 77.5315C118.35 75.1415 118.47 72.3515 118.7 70.1315C119.01 72.5715 119.71 75.8315 118.41 77.5315ZM96.49 89.2215C95.87 87.9615 93.9 89.1116 93.18 87.9516C93.01 88.1716 92.75 88.3016 92.3 88.2416C91.46 87.1016 90.24 86.0415 88.4 86.1915C87.59 85.8015 87.6 84.5916 86.94 84.0516C86.46 84.0416 85.91 84.1016 85.58 83.9516C85.58 83.3816 85.02 82.3915 85.48 82.0015C88.17 85.4515 92.22 88.0516 98.05 88.0415C97.96 88.4715 97.14 89.0116 96.49 89.2116V89.2215ZM100.77 88.3415C101.39 88.1215 101.48 87.3916 101.94 87.9516C101.11 88.7116 99.61 89.3216 98.04 89.0216C98.48 87.9516 99.62 88.7415 100.77 88.3415ZM90.44 87.6615C89.71 87.6415 89.16 87.4416 88.88 86.9816C89.57 86.4416 90.18 87.1815 90.44 87.6615ZM87.23 86.0015C86.87 85.5815 86.29 85.3916 86.16 84.7416C86.99 84.1016 87.51 85.2915 87.23 86.0015ZM101.94 87.3616C104.09 86.0116 106.81 85.2215 107.98 82.8815C108.01 83.8515 108.24 85.0916 107.49 85.5116C107.07 85.5415 107.01 85.2115 106.51 85.3215C106.01 87.1415 103.83 87.6916 101.93 87.3616H101.94ZM108.76 83.2716C108.98 83.4416 109.14 83.6715 109.54 83.6615C109.38 84.1215 109.01 84.3615 108.57 84.5415C108.64 84.1315 108.39 83.3916 108.76 83.2716ZM109.44 80.1516C109.43 81.0116 109.91 82.1915 109.44 82.8815C108.51 82.3115 108.53 80.7016 109.44 80.1516ZM111.88 69.8215C111.83 70.0816 111.32 69.4915 111.2 69.8215C111.35 70.4816 111.95 70.7016 112.56 70.8916C112.92 73.0916 113.65 76.5415 112.36 78.2016C112.31 77.1116 111.97 76.3215 111.87 75.2815C112.02 75.0815 112.39 75.0916 112.36 74.7016C111.37 72.0016 111.31 69.4416 109.73 67.4916C110.64 68.0816 111.31 68.9016 111.87 69.8316L111.88 69.8215ZM110.22 66.0216C110.78 65.8116 111.23 66.4915 111.19 67.1915C110.62 67.0415 110.3 66.6516 110.22 66.0216ZM111.39 79.1716C111.43 79.6216 112.1 79.4315 112.27 79.7515C112.02 80.1515 111.98 80.7616 111.59 81.0216C111.52 80.4716 111.1 79.7616 111.39 79.1716ZM111.2 78.9715C110.97 77.2715 110.08 75.2916 110.81 73.5216C111.44 75.2516 112.09 77.5515 111.2 78.9715ZM110.42 77.6116C110.49 78.6016 111 80.0016 110.62 80.8316C110.54 79.8416 109.53 78.3816 110.42 77.6116ZM110.42 81.9016C110.56 82.2216 110.82 82.8515 110.23 82.8715C110.32 82.5715 110.02 81.8816 110.42 81.9016ZM103.11 62.5216C103.79 62.4316 103.84 62.9616 103.99 63.4016C103.54 63.2616 103.18 63.0416 103.11 62.5216ZM103.21 64.7616C103.25 64.5315 103.03 64.5516 103.11 64.2716C103.56 63.9216 103.98 64.8515 103.21 64.7616ZM103.4 62.0315C104.58 62.0915 105.46 62.4315 106.22 62.9115C105.95 63.0015 106 63.4015 105.93 63.6915C105.21 63.0115 104.37 62.4515 103.4 62.0315ZM106.22 64.9516C106.37 65.1916 106.42 65.5316 106.61 65.7316C106.3 65.6216 106.03 65.4715 105.73 65.3415C105.72 65.0315 105.98 65.0116 106.22 64.9516ZM100.76 62.4216C100.48 62.3416 100.7 61.7715 100.27 61.8415C99.22 62.1215 98.3 62.5316 97.74 63.3016C98.88 63.8216 99.77 64.5815 100.76 65.2515C101 65.0615 101.4 65.0415 101.83 65.0615C100.06 65.6315 100.43 68.3315 99.78 70.0315C99.05 67.8115 98.57 65.3316 97.15 63.8016C96.58 64.1316 96.39 63.5315 95.98 63.4115C94.99 63.5616 94.79 64.4915 94.23 65.0715C93.87 65.1315 93.86 64.8615 93.55 64.8715C95.21 62.8915 99.48 60.6816 102.51 62.2416C101.78 61.9816 101.07 62.3616 100.76 62.4316V62.4216ZM101.73 64.1716C101.24 64.0516 100.89 63.7816 100.76 63.2916C101.39 63.2716 101.7 63.5916 101.73 64.1716ZM100.37 64.0715C100.08 64.0315 99.89 63.9016 99.79 63.6816C100.04 63.4616 100.45 63.6715 100.37 64.0715ZM99.98 72.0615C99.9 71.9915 99.72 71.3916 100.08 71.4816C100.03 71.6516 100.2 72.0515 99.98 72.0615ZM96.57 73.3316C96.43 72.9616 96.84 73.1415 96.77 72.8415C96.25 71.6815 95.58 70.0616 95.11 68.5516C95.44 68.3416 95.56 69.0315 96.18 68.8415C96.89 70.5015 97.6 72.1615 98.03 74.1015C97.46 74.1915 97.22 72.9215 96.57 73.3215V73.3316ZM97.64 75.5715C97.42 75.3716 97.3 75.0615 97.35 74.6015C97.99 74.5215 98.28 75.4315 97.64 75.5715ZM94.04 70.2116C94.4 70.3616 94.9 70.2315 95.11 70.3115C95.61 71.7915 96.27 73.1115 96.57 74.7915C95.77 73.2415 94.63 72.1516 94.04 70.2116ZM96.48 75.6716C96.09 75.9916 95.41 75.0315 95.89 74.7915C96.02 75.1516 96.38 75.2716 96.48 75.6716ZM92.97 66.7116C94.12 66.8916 94.42 67.9216 94.63 69.0516C94.02 68.9716 93.66 67.8115 92.88 67.5915C92.9 67.2915 92.81 66.8816 92.98 66.7116H92.97ZM92.77 66.0315C92.74 65.6715 92.88 65.4915 92.97 65.2515C93.36 65.1915 93.36 65.5116 93.75 65.4516C93.81 65.8416 93.49 65.8416 93.56 66.2316C93.15 66.3116 93.1 66.0415 92.78 66.0415L92.77 66.0315ZM97.15 67.1015C96.22 66.7315 95.69 65.9616 95.3 65.0516C94.91 64.9516 95.01 65.3416 94.62 65.2416C95.49 62.4416 97.04 65.4715 97.15 67.0915V67.1015ZM96.66 64.1816C96.78 64.0716 97 64.0716 97.24 64.0816C98.05 65.9716 99.06 68.1715 99.29 70.3115C97.75 68.9315 97.58 66.1716 96.66 64.1716V64.1816ZM95.98 68.3715C95.04 67.8415 94.04 66.8816 94.13 65.6416C95.48 65.8116 95.73 67.0915 95.98 68.3715ZM93.06 72.0715C93.33 72.6115 93.79 72.9616 93.84 73.7316C93.36 73.5216 92.82 72.3716 93.06 72.0715ZM93.35 71.4916C93.91 71.5816 94.34 72.3115 94.13 72.8515C93.84 72.4215 93.55 72.0016 93.35 71.4916ZM96.37 67.5015C96.89 67.6115 96.86 67.4716 97.34 67.4016C97.81 69.4116 99.2 71.5115 99.19 73.3415C98.01 71.6315 96.89 69.8615 96.37 67.5015ZM98.71 73.7316C99.42 73.6815 99.87 75.1416 99.1 75.3916C98.61 75.2016 98.72 74.4116 98.71 73.7316ZM92.48 68.4715C92.33 68.7115 91.88 68.6416 91.9 69.0516C92.13 69.4416 92.6 69.5915 92.68 70.1215C92.35 70.0915 91.89 70.2016 91.71 70.0216C91.66 68.9316 91.74 67.9715 92 67.1915C93.06 67.3115 92.08 67.8616 92.49 68.4616L92.48 68.4715Z" fill="#748B75"/>
<path fill-rule="evenodd" clip-rule="evenodd" d="M18.59 29.3716C19.53 30.8016 21.27 31.4316 22.39 32.6816C21.68 31.4116 19.98 30.2916 18.59 29.3716Z" fill="#748B75"/>
<path fill-rule="evenodd" clip-rule="evenodd" d="M23.56 29.5715C24.76 30.8115 26.29 31.7115 27.65 32.7915C26.73 31.6615 25.11 30.3915 23.56 29.5715Z" fill="#748B75"/>
<path fill-rule="evenodd" clip-rule="evenodd" d="M78.01 40.7716C79.28 41.9716 80.68 43.0416 82.1 44.0816C81.21 42.8916 79.34 41.8416 78.01 40.7716Z" fill="#748B75"/>
<path fill-rule="evenodd" clip-rule="evenodd" d="M33.69 41.1616C34.76 42.8216 36.51 43.8016 37.88 45.1516C37.01 43.7416 35.19 41.9416 33.69 41.1616Z" fill="#748B75"/>
<path fill-rule="evenodd" clip-rule="evenodd" d="M86.97 46.4215C86.35 45.8715 85.57 45.4815 84.83 45.0615C85.32 45.7415 86.15 46.0815 86.97 46.4215Z" fill="#748B75"/>
<path fill-rule="evenodd" clip-rule="evenodd" d="M57.36 61.6116C56.21 61.0416 55.41 60.1216 54.34 59.4716C54.74 60.3216 56.97 61.6916 57.46 61.8116C57.37 61.8116 57.38 61.6916 57.36 61.6116Z" fill="#748B75"/>
<path fill-rule="evenodd" clip-rule="evenodd" d="M27.55 17.3916C27.67 18.2416 28.7 18.6616 29.5 18.2716C29.7 17.9816 29.71 17.5016 29.89 17.2016C29.42 16.1716 27.87 16.3416 27.55 17.3916Z" fill="#748B75"/>
</svg>
