<svg width="200" height="264" viewBox="0 0 200 264" fill="none" xmlns="http://www.w3.org/2000/svg">
<path d="M113.081 -0.000213623C108.301 21.1698 113.301 43.4298 121.331 63.5898C123.431 68.8698 137.581 100.18 145.951 93.7598C149.731 90.8598 146.511 74.4498 145.851 70.3898C144.451 61.6998 133.341 23.8198 113.081 -0.000213623Z" fill="#F5FBEF"/>
<path d="M154.481 102.51C181.911 84.8998 198.741 51.9598 196.931 19.4098C179.911 28.6198 147.661 81.0998 143.181 90.8598C137.901 102.34 141.201 111.03 154.481 102.51Z" fill="#F5FBEF"/>
<path d="M198.421 174.87C180.281 170.97 123.811 189.24 114.411 193.59C110.261 195.51 103.981 198.27 105.861 200.23C112.201 206.83 185.751 201.9 198.421 174.87Z" fill="#F5FBEF"/>
<path d="M130.331 96.0698C126.491 86.5998 122.111 77.2498 116.011 69.0498C109.911 60.8498 101.951 53.7998 92.4409 50.0598C97.5509 71.2298 106.011 91.5898 117.391 110.15C119.671 113.87 129.661 129.74 135.481 125.87C141.341 121.98 132.211 100.71 130.331 96.0598V96.0698Z" fill="#F5FBEF"/>
<path d="M207.171 78.3598C200.641 99.2798 185.011 116.2 167.801 129.76C163.291 133.31 135.101 153.52 131.031 143.67C129.191 139.22 140.311 126.51 142.931 123.29C148.551 116.4 177.411 88.9198 207.171 78.3498V78.3598Z" fill="#F5FBEF"/>
<path d="M142.791 154.07C151.741 148.75 192.211 137.34 202.501 140.22C185.441 154.28 166.051 165.6 145.261 173.62C141.101 175.23 123.111 181.93 120.511 175.15C117.901 168.32 138.411 156.68 142.791 154.07Z" fill="#F5FBEF"/>
<path d="M136.101 278.63C124.771 269.42 78.6508 262.09 70.5008 261.78C66.9108 261.64 61.5208 261.34 62.1408 263.39C64.2308 270.28 117.571 293.07 136.101 278.63Z" fill="#F5FBEF"/>
<path d="M185.161 204.39C170.141 220.35 148.691 228.74 127.281 233.41C121.681 234.63 87.4809 240.49 88.1309 229.85C88.4209 225.05 103.971 218.47 107.741 216.73C115.811 212.99 153.781 200.89 185.161 204.39Z" fill="#F5FBEF"/>
<path d="M105.571 239.96C115.961 239.41 157.101 248.12 164.871 255.46C143.231 259.98 120.801 260.98 98.6609 258.42C94.2309 257.91 75.1808 255.48 76.0408 248.26C76.9008 241 100.471 240.23 105.571 239.96Z" fill="#F5FBEF"/>
<path d="M100.201 136.57C93.8908 128.29 77.9208 89.3998 79.6008 78.8398C95.5208 94.1698 108.991 112.14 119.341 131.88C121.411 135.83 130.131 152.94 123.691 156.29C117.211 159.67 103.291 140.63 100.201 136.57Z" fill="#F5FBEF"/>
<path d="M65.7408 114.24C66.0408 133.56 75.0308 151.77 86.2008 167.54C89.1208 171.67 107.931 195.8 113.821 188.49C116.481 185.19 110.261 171.66 108.841 168.28C105.811 161.05 88.2608 130.6 65.7308 114.23L65.7408 114.24Z" fill="#F5FBEF"/>
<path d="M36.251 202.6C33.751 216.93 37.831 231.66 43.871 244.89C45.451 248.35 55.951 268.85 61.341 264.27C63.771 262.2 61.081 251.33 60.501 248.63C59.281 242.86 50.591 217.87 36.241 202.6H36.251Z" fill="#F5FBEF"/>
<path d="M89.5709 189.82C85.7309 180.35 81.3509 171 75.2509 162.8C69.1509 154.6 61.1909 147.55 51.6809 143.81C56.7909 164.98 65.2509 185.34 76.6309 203.9C78.9109 207.62 88.9009 223.49 94.7209 219.62C100.581 215.73 91.4509 194.46 89.5709 189.81V189.82Z" fill="#F5FBEF"/>
<path d="M57.401 222.17C51.091 213.89 35.121 175 36.801 164.44C52.721 179.77 66.191 197.74 76.541 217.48C78.611 221.43 87.331 238.54 80.891 241.89C74.411 245.27 60.491 226.23 57.401 222.17Z" fill="#F5FBEF"/>
<path d="M147.651 85.3598C140.991 120.89 130.021 155.71 114.431 188.35C98.8909 220.88 78.4509 251.5 52.2509 276.43C37.6609 290.31 21.2909 302.31 3.46091 311.67C0.850906 313.04 -1.46909 309.08 1.15091 307.71C32.6209 291.19 59.0109 266.48 79.8509 237.85C101.121 208.64 116.991 175.66 128.421 141.45C134.681 122.71 139.611 103.54 143.241 84.1298C143.781 81.2298 148.201 82.4598 147.661 85.3498L147.651 85.3598Z" fill="#F5FBEF"/>
</svg>
